<svg xmlns="http://www.w3.org/2000/svg" width="45.081" height="24.419" viewBox="0 0 45.081 24.419"><defs><style>.a{fill:#f6f6f7;}</style></defs><g transform="translate(0 -117.333)"><g transform="translate(0 117.333)"><g transform="translate(0 0)"><path class="a" d="M218.968,128.6a5.635,5.635,0,1,0-5.635-5.635A5.624,5.624,0,0,0,218.968,128.6Z" transform="translate(-194.549 -117.333)"/><path class="a" d="M366.2,128.6a5.635,5.635,0,0,0,0-11.27,5.49,5.49,0,0,0-1.719.272,9.309,9.309,0,0,1,0,10.726A5.487,5.487,0,0,0,366.2,128.6Z" transform="translate(-332.388 -117.333)"/><path class="a" d="M160.6,288c-3.757,0-11.27,1.878-11.27,5.635v3.757h22.541v-3.757C171.874,289.878,164.36,288,160.6,288Z" transform="translate(-136.184 -272.973)"/><path class="a" d="M418.56,291.413a6.935,6.935,0,0,1,2.592,5.335V300.5h5.635v-3.757C426.787,293.855,422.326,292.08,418.56,291.413Z" transform="translate(-381.706 -276.085)"/><path class="a" d="M15.027,165.635H9.392V160H5.635v5.635H0v3.757H5.635v5.635H9.392v-5.635h5.635Z" transform="translate(0 -156.243)"/></g></g></g></svg>