<svg xmlns="http://www.w3.org/2000/svg" width="39.75" height="48" viewBox="0 0 39.75 48"><defs><style>.a{fill:#fff;}</style></defs><g transform="translate(-44)"><g transform="translate(44 15.656)"><path class="a" d="M45.6,167.275a.937.937,0,1,0,.275.663A.944.944,0,0,0,45.6,167.275Z" transform="translate(-44 -167)"/></g><g transform="translate(44)"><path class="a" d="M80.938,0H61.969a.938.938,0,0,0,0,1.875H80.938a.939.939,0,0,1,.938.938V45.188a.939.939,0,0,1-.937.938H46.813a.939.939,0,0,1-.937-.937V20.094a.938.938,0,0,0-1.875,0V45.188A2.816,2.816,0,0,0,46.813,48H80.938a2.816,2.816,0,0,0,2.813-2.812V2.813A2.816,2.816,0,0,0,80.938,0Z" transform="translate(-44)"/></g><g transform="translate(51.565 3.75)"><path class="a" d="M137.006,40a12.62,12.62,0,0,0-1.905.145A.938.938,0,1,0,135.384,42a10.724,10.724,0,0,1,1.621-.123,10.588,10.588,0,0,1,8.1,17.41,9.393,9.393,0,0,0-4.894-4.1,4.58,4.58,0,0,0,1.385-3.283v-.914a4.594,4.594,0,1,0-9.187,0v.914A4.579,4.579,0,0,0,133.8,55.19a9.395,9.395,0,0,0-4.9,4.112,10.559,10.559,0,0,1-2.335-5.067.938.938,0,0,0-1.849.31A12.47,12.47,0,1,0,137.006,40Zm-2.719,10.992a2.719,2.719,0,1,1,5.438,0v.914a2.719,2.719,0,0,1-5.437,0Zm2.719,12.07a10.581,10.581,0,0,1-6.721-2.389,7.5,7.5,0,0,1,13.435-.016A10.545,10.545,0,0,1,137.006,63.063Z" transform="translate(-124.696 -40)"/></g><g transform="translate(58.283 37.313)"><path class="a" d="M210.607,398H197.294a.938.938,0,0,0,0,1.875h13.313a.938.938,0,0,0,0-1.875Z" transform="translate(-196.357 -398.002)"/></g><g transform="translate(54.279 32.063)"><path class="a" d="M155.24,342.275a.937.937,0,1,0,.275.663A.944.944,0,0,0,155.24,342.275Z" transform="translate(-153.64 -342)"/></g><g transform="translate(54.279 37.313)"><path class="a" d="M155.24,398.275a.937.937,0,1,0,.275.663A.943.943,0,0,0,155.24,398.275Z" transform="translate(-153.64 -398)"/></g><g transform="translate(58.283 32.063)"><path class="a" d="M210.607,342H197.294a.938.938,0,0,0,0,1.875h13.313a.938.938,0,0,0,0-1.875Z" transform="translate(-196.357 -342.002)"/></g><g transform="translate(48.005 5.128)"><path class="a" d="M93.739,54.976a.938.938,0,0,0-1.326,0L89.36,58.029l-1.043-1.043a.938.938,0,1,0-1.326,1.326L88.7,60.017a.938.938,0,0,0,1.326,0L93.739,56.3A.938.938,0,0,0,93.739,54.976Z" transform="translate(-86.716 -54.701)"/></g><g transform="translate(44)"><path class="a" d="M51.688,0a7.687,7.687,0,1,0,7.688,7.687A7.7,7.7,0,0,0,51.688,0Zm0,13.5A5.813,5.813,0,1,1,57.5,7.687,5.819,5.819,0,0,1,51.688,13.5Z" transform="translate(-44)"/></g></g></svg>