<svg xmlns="http://www.w3.org/2000/svg" width="30.597" height="30.051" viewBox="0 0 30.597 30.051"><defs><style>.a{fill:#fff;}</style></defs><path class="a" d="M332.371,218.686a2.186,2.186,0,1,1-2.186-2.186A2.186,2.186,0,0,1,332.371,218.686Zm0,0" transform="translate(-305.598 -201.748)"/><path class="a" d="M60.371,218.686a2.186,2.186,0,1,1-2.186-2.186A2.186,2.186,0,0,1,60.371,218.686Zm0,0" transform="translate(-52.175 -201.748)"/><path class="a" d="M196.371,186.686a2.186,2.186,0,1,1-2.185-2.186A2.186,2.186,0,0,1,196.371,186.686Zm0,0" transform="translate(-178.887 -171.933)"/><path class="a" d="M8.757,313.242A2.686,2.686,0,0,1,8.2,311.6v-5.464a4.916,4.916,0,0,1,.283-1.622c-.094-.006-.187-.017-.283-.017H3.825a3.781,3.781,0,0,0-2.15.663A3.829,3.829,0,0,0,0,308.324v2.186a2.737,2.737,0,0,0,1.591,2.48,2.583,2.583,0,0,0,.595.2v-5.955H3.278v6.01Zm0,0" transform="translate(0 -283.737)"/><path class="a" d="M136.017,440.307l-.017-.014v.014Zm0,0" transform="translate(-126.712 -410.256)"/><path class="a" d="M147.572,274.529a3.871,3.871,0,0,0-1.225-1.366,1.382,1.382,0,0,0-.16-.1,3.819,3.819,0,0,0-1.992-.561h-4.371A3.825,3.825,0,0,0,136,276.325v5.464a1.639,1.639,0,0,0,1.639,1.639h.546v-7.649h1.093v7.649h5.464v-7.649h1.093v7.649h.546a1.639,1.639,0,0,0,1.639-1.639v-5.464A3.816,3.816,0,0,0,147.572,274.529Zm0,0" transform="translate(-126.712 -253.923)"/><path class="a" d="M326.861,305.164a3.782,3.782,0,0,0-2.151-.664h-4.371c-.1,0-.189.01-.283.017a4.925,4.925,0,0,1,.283,1.622V311.6a2.687,2.687,0,0,1-.562,1.639h5.479v-6.01h1.093v5.955a2.518,2.518,0,0,0,.586-.194,2.736,2.736,0,0,0,1.6-2.483v-2.186A3.829,3.829,0,0,0,326.861,305.164Zm0,0" transform="translate(-297.937 -283.737)"/><path class="a" d="M134.558,104.5a6.543,6.543,0,0,0-5.953,9.288h3.118a3.278,3.278,0,1,1,5.669,0h3.121a6.543,6.543,0,0,0-5.955-9.288Zm0,0" transform="translate(-119.26 -97.397)"/><path class="a" d="M50.773,11.974h-2.95l-.106-.41A10.094,10.094,0,0,0,46.6,8.894l-.219-.365,2.095-2.1a.541.541,0,0,0,0-.768l-2.32-2.321a.554.554,0,0,0-.765,0l-2.1,2.1-.365-.218a10.117,10.117,0,0,0-2.673-1.115L39.845,4V1.046A.546.546,0,0,0,39.3.5H36.02a.546.546,0,0,0-.546.546V4l-.41.106a10.118,10.118,0,0,0-2.67,1.114l-.365.219-2.1-2.094a.554.554,0,0,0-.768,0l-2.321,2.32a.542.542,0,0,0,0,.768l2.1,2.1-.218.365a10.1,10.1,0,0,0-1.115,2.67l-.107.41H24.546A.546.546,0,0,0,24,12.52V15.8a.546.546,0,0,0,.546.546h.739a3.27,3.27,0,0,1,4.747-1.731c-.009-.151-.023-.3-.023-.455a7.649,7.649,0,0,1,15.3,0c0,.153-.014.3-.023.455a3.27,3.27,0,0,1,4.747,1.731h.739a.546.546,0,0,0,.546-.546V12.52A.546.546,0,0,0,50.773,11.974Zm0,0" transform="translate(-22.361 -0.5)"/></svg>