<svg xmlns="http://www.w3.org/2000/svg" width="58.609" height="30.513" viewBox="0 0 58.609 30.513"><defs><style>.a{fill:#fff;}</style></defs><g transform="translate(0 -6.513)"><circle class="a" cx="4.884" cy="4.884" r="4.884" transform="translate(4.884 10.163)"/><path class="a" d="M16.289,13.977a10.233,10.233,0,0,0-4.078,8.181v.611H1.832A1.845,1.845,0,0,1,0,20.937V19.716A6.712,6.712,0,0,1,6.716,13h6.105A6.672,6.672,0,0,1,16.289,13.977Z" transform="translate(0 9.373)"/><circle class="a" cx="4.884" cy="4.884" r="4.884" transform="translate(43.957 10.163)"/><path class="a" d="M33.619,19.716v1.221a1.845,1.845,0,0,1-1.832,1.832H21.408v-.611a10.233,10.233,0,0,0-4.078-8.181A6.672,6.672,0,0,1,20.8,13H26.9A6.712,6.712,0,0,1,33.619,19.716Z" transform="translate(24.991 9.373)"/><ellipse class="a" cx="7" cy="7.5" rx="7" ry="7.5" transform="translate(22.305 6.513)"/><path class="a" d="M26.647,14H13.216A6.721,6.721,0,0,0,6.5,20.716v3.663A1.832,1.832,0,0,0,8.332,26.21h23.2a1.832,1.832,0,0,0,1.832-1.832V20.716A6.721,6.721,0,0,0,26.647,14Z" transform="translate(9.373 10.815)"/></g></svg>