<svg xmlns="http://www.w3.org/2000/svg" width="29.945" height="39" viewBox="0 0 29.945 39"><defs><style>.a{fill:none;stroke:#fff;}</style></defs><g transform="translate(0.5 0.5)"><path class="a" d="M105.586,6.68H90V2.227h4.643a3.341,3.341,0,0,1,6.3,0h4.643Zm0,0" transform="translate(-83.32)"/><path class="a" d="M101.232,260.223l-.787,2.361,2.361-.787,8.379-8.378-1.575-1.575Zm0,0" transform="translate(-92.99 -233.152)"/><path class="a" d="M245.141,205.246l1.575,1.575,2.035-2.036-1.574-1.574Zm0,0" transform="translate(-226.947 -188.129)"/><path class="a" d="M24.492,30v6.68H4.453V30H0V65.773H28.945V30ZM11.019,58.364,3.934,60.726,6.3,53.642,20.23,39.707l4.723,4.723Zm0,0" transform="translate(0 -27.773)"/></g></svg>