<svg xmlns="http://www.w3.org/2000/svg" width="44.995" height="48" viewBox="0 0 44.995 48"><defs><style>.a{fill:#fff;}</style></defs><g transform="translate(-0.5)"><path class="a" d="M33.973,46.291H32.559V32.059h3.713v1.415h-2.3Zm0,0" transform="translate(-29.053 -29.053)"/><path class="a" d="M32.559,199.9h1.415v1.5H32.559Zm0,0" transform="translate(-29.053 -181.158)"/><path class="a" d="M368.707,32.059h1.5v1.415h-1.5Zm0,0" transform="translate(-333.688 -29.053)"/><path class="a" d="M336.648,32.059h1.5v1.415h-1.5Zm0,0" transform="translate(-304.635 -29.053)"/><path class="a" d="M182.91,5.216h1.415V0h-24V1.415H182.91Zm0,0" transform="translate(-144.841)"/><path class="a" d="M1.915,1.415H13.229V0H.5V48H11.727V46.585H1.915Zm0,0"/><path class="a" d="M168.381,305.135h-9.768V314.9h-14.32v1.415h15.32L169.8,306.135V296.074h-1.415Zm-1,1.415-7.353,7.353v-7.353Zm0,0" transform="translate(-130.312 -268.317)"/><path class="a" d="M96.207,272.5h17.282v1.415H96.207Zm0,0" transform="translate(-86.735 -246.953)"/><path class="a" d="M56.133,312.574H84.685v1.415H56.133Zm0,0" transform="translate(-50.417 -283.27)"/><path class="a" d="M56.133,352.645H84.685v1.415H56.133Zm0,0" transform="translate(-50.417 -319.584)"/><path class="a" d="M56.133,392.719H77.171v1.415H56.133Zm0,0" transform="translate(-50.417 -355.901)"/><path class="a" d="M56.133,432.793h16.53v1.415H56.133Zm0,0" transform="translate(-50.417 -392.219)"/><path class="a" d="M90.915,75.845a3.705,3.705,0,0,0,1.293,2.813,5.975,5.975,0,0,0-3.547,5.453c0,1.284.619,3.713,2.962,3.713h6.011c2.343,0,2.962-2.429,2.962-3.713a5.974,5.974,0,0,0-3.547-5.453,3.712,3.712,0,1,0-6.132-2.813Zm4.863,3.861-1.15,1.15-1.15-1.15a4.556,4.556,0,0,1,2.3,0Zm3.4,4.4a4.118,4.118,0,0,1-.248,1.284,1.307,1.307,0,0,1-1.3,1.016H91.622a1.308,1.308,0,0,1-1.3-1.016,4.127,4.127,0,0,1-.247-1.282A4.551,4.551,0,0,1,92.1,80.328l2.529,2.529,2.529-2.529A4.549,4.549,0,0,1,99.18,84.109ZM94.627,73.547a2.3,2.3,0,1,1-2.3,2.3A2.3,2.3,0,0,1,94.627,73.547Zm0,0" transform="translate(-79.895 -65.37)"/><path class="a" d="M267.444,64.117A10.475,10.475,0,1,0,275,81.845l-1.021-.98a9.04,9.04,0,1,1,1.129-1.442l1.2.755a10.477,10.477,0,0,0-8.863-16.061Zm0,0" transform="translate(-232.425 -58.106)"/><path class="a" d="M311.308,123.756v-5.3h5.3v-1.415h-5.3v-5.3h-1.415v5.3h-5.3v1.415h5.3v5.3Zm0,0" transform="translate(-275.581 -101.259)"/></g></svg>