<svg id="_003-statistics" data-name="003-statistics" xmlns="http://www.w3.org/2000/svg" width="29.945" height="30.434" viewBox="0 0 29.945 30.434">
  <path id="Path_2251" data-name="Path 2251" d="M33.632,14.266a2.6,2.6,0,0,0,1.822-.752l2.6,1.32a2.626,2.626,0,1,0,4.968-.822l3.523-3.58a2.566,2.566,0,0,0,1.127.268,2.644,2.644,0,0,0,2.5-3.467L53.23,4.9a2.585,2.585,0,0,0,1.457.45,2.657,2.657,0,0,0,2.632-2.675,2.632,2.632,0,1,0-5.132.792L49.126,5.8a2.585,2.585,0,0,0-1.457-.45A2.665,2.665,0,0,0,45.3,9.17l-3.523,3.58a2.566,2.566,0,0,0-1.127-.268,2.6,2.6,0,0,0-1.822.752l-2.6-1.32A2.629,2.629,0,1,0,31,11.591,2.657,2.657,0,0,0,33.632,14.266Zm0,0" transform="translate(-29.187)" fill="#1f1a17"/>
  <path id="Path_2252" data-name="Path 2252" d="M29.068,169.734h-.936V150.892a.884.884,0,0,0-.877-.892H23.746a.884.884,0,0,0-.877.892v18.843H21.114V156.241a.884.884,0,0,0-.877-.892H16.727a.884.884,0,0,0-.877.892v13.493H14.1v-6.36a.884.884,0,0,0-.877-.892H9.709a.884.884,0,0,0-.877.892v6.36H7.077v-9.927a.884.884,0,0,0-.877-.892H2.69a.884.884,0,0,0-.877.892v9.927H.877a.892.892,0,0,0,0,1.783H29.068a.892.892,0,0,0,0-1.783Zm0,0" transform="translate(0 -141.084)" fill="#1f1a17"/>
</svg>
