<svg xmlns="http://www.w3.org/2000/svg" width="28.637" height="30.659" viewBox="0 0 28.637 30.659"><defs><style>.a{fill:#fff;}</style></defs><g transform="translate(-48.043 -32)"><path class="a" d="M256,433.56l3.236-.747-2.489-2.489Z" transform="translate(-193.637 -370.901)"/><path class="a" d="M61.721,224.41l.535-2.32c0-.006,0-.011,0-.017s.005-.019.008-.029l.009-.026.01-.024.013-.028.01-.02.017-.028.011-.017.02-.027.013-.016.022-.025.009-.01,7.215-7.215A11.079,11.079,0,0,0,59.606,208a10.707,10.707,0,0,0-8.153,3.777,15.015,15.015,0,0,0-3.41,9.658c1.264.638,6.456,3.087,11.563,3.087a20.517,20.517,0,0,0,2.115-.113Z" transform="translate(0 -163.883)"/><path class="a" d="M0,0H12.117V4.406H0Z" transform="translate(63.568 58.33) rotate(-45)"/><circle class="a" cx="5.508" cy="5.508" r="5.508" transform="translate(54.098 32)"/><path class="a" d="M413.134,271.53a2.2,2.2,0,0,0-3.761-1.558l3.116,3.116a2.188,2.188,0,0,0,.645-1.558Z" transform="translate(-336.454 -220.989)"/></g></svg>