<svg xmlns="http://www.w3.org/2000/svg" width="30.035" height="37" viewBox="0 0 30.035 37">
  <g id="_005-accepted" data-name="005-accepted" transform="translate(-48.199)">
    <path id="Path_2253" data-name="Path 2253" d="M337.086,17.441h6.835l-8.654-8.653v6.835A1.821,1.821,0,0,0,337.086,17.441Z" transform="translate(-266.322 -8.152)" fill="#1f1a17"/>
    <path id="Path_2254" data-name="Path 2254" d="M165.578,222.8a7.043,7.043,0,1,0,7.043,7.043A7.051,7.051,0,0,0,165.578,222.8Zm3.229,6.168-3.284,3.284a1.084,1.084,0,0,1-1.533,0l-1.642-1.642a1.084,1.084,0,1,1,1.533-1.533l.876.875,2.517-2.517a1.084,1.084,0,1,1,1.533,1.533Z" transform="translate(-102.361 -206.699)" fill="#1f1a17"/>
    <path id="Path_2255" data-name="Path 2255" d="M70.764,11.456A3.991,3.991,0,0,1,66.777,7.47V0H52.187A3.991,3.991,0,0,0,48.2,3.987V33.013A3.991,3.991,0,0,0,52.187,37h22.06a3.991,3.991,0,0,0,3.987-3.987V11.456Zm-7.547,20.9a9.211,9.211,0,1,1,9.211-9.211A9.222,9.222,0,0,1,63.217,32.356Z" fill="#1f1a17"/>
  </g>
</svg>
