<svg xmlns="http://www.w3.org/2000/svg" width="27.512" height="23.747" viewBox="0 0 27.512 23.747"><defs><style>.a{fill:#fff;}</style></defs><g transform="translate(0 -41.75)"><g transform="translate(0 41.75)"><path class="a" d="M26.6,48.23,15.631,42.152a4,4,0,0,0-3.5,0L.914,48.23A1.541,1.541,0,0,0,0,49.588a1.577,1.577,0,0,0,.914,1.359l.914.5v5.72a1.76,1.76,0,0,0-.977,1.609A1.791,1.791,0,0,0,1.8,60.385L.378,65.5H4.349L2.931,60.385A1.827,1.827,0,0,0,2.9,57.168V52.055l1.67.93v7.436a.63.63,0,0,0,.095.322,11.01,11.01,0,0,0,18.121,0,.63.63,0,0,0,.095-.322v-7.4L26.6,50.947a1.541,1.541,0,0,0,.914-1.359A1.606,1.606,0,0,0,26.6,48.23ZM21.871,60.242a10.044,10.044,0,0,1-16.262,0V53.485l6.524,3.539a3.821,3.821,0,0,0,1.733.393,3.462,3.462,0,0,0,1.765-.429l6.24-3.468Zm4.286-10.3-3.782,2.109a.355.355,0,0,0-.347.215L15.19,56.024a3.117,3.117,0,0,1-2.647,0L4.128,51.447,13.8,50.16a.543.543,0,0,0,.441-.608.51.51,0,0,0-.536-.5L2.49,50.554l-1.135-.608a.674.674,0,0,1-.347-.322c0-.036.063-.179.347-.322l11.219-6.113a2.925,2.925,0,0,1,1.292-.286,2.869,2.869,0,0,1,1.324.286l10.967,6.078c.284.143.347.286.347.358A.913.913,0,0,1,26.157,49.946Z" transform="translate(0 -41.75)"/></g></g></svg>