<svg xmlns="http://www.w3.org/2000/svg" width="34" height="34" viewBox="0 0 34 34"><defs><style>.a{fill:#fff;}</style></defs><path class="a" d="M20.188,0H3.9A3.894,3.894,0,0,0,0,3.9V25.854a3.894,3.894,0,0,0,3.9,3.9h9.336a12.37,12.37,0,0,1-1.19-5.312,12.244,12.244,0,0,1,.892-4.618.748.748,0,0,1-.184.014H5.667a1.417,1.417,0,1,1,0-2.833H12.75A1.4,1.4,0,0,1,14,17.765a12.5,12.5,0,0,1,3.513-3.6H5.667a1.417,1.417,0,1,1,0-2.833h12.75a1.421,1.421,0,0,1,1.417,1.417.748.748,0,0,1-.014.184,11.872,11.872,0,0,1,4.264-.878V3.9A3.894,3.894,0,0,0,20.188,0ZM11.333,8.5H5.667a1.417,1.417,0,0,1,0-2.833h5.667a1.417,1.417,0,1,1,0,2.833Z"/><path class="a" d="M20.063,10.5a9.562,9.562,0,1,0,9.562,9.563A9.573,9.573,0,0,0,20.063,10.5Zm3.9,10.979H21.479v2.479a1.417,1.417,0,1,1-2.833,0V21.479H16.167a1.417,1.417,0,0,1,0-2.833h2.479V16.167a1.417,1.417,0,0,1,2.833,0v2.479h2.479a1.417,1.417,0,1,1,0,2.833Z" transform="translate(4.375 4.375)"/></svg>