<svg xmlns="http://www.w3.org/2000/svg" width="26.848" height="25" viewBox="0 0 26.848 25"><defs><style>.a{fill:#fff;}</style></defs><g transform="translate(0 0)"><path class="a" d="M.451,28.342,4.52,24.274v-4.7a1.539,1.539,0,0,1,3.078,0V21.2l3.03-3.029a4.049,4.049,0,0,1,5.6,0L26.4,28.342a1.539,1.539,0,1,1-2.177,2.176L14.048,20.346a.909.909,0,0,0-1.245,0L2.628,30.518A1.539,1.539,0,1,1,.451,28.342Z" transform="translate(-0.001 -17.047)"/><path class="a" d="M77.8,127.969a.756.756,0,0,1,1.069,0l8.95,8.944a.757.757,0,0,1,.221.535v6.524a2.773,2.773,0,0,1-2.773,2.772H80.833v-6.86h-5v6.86H71.4a2.773,2.773,0,0,1-2.773-2.772v-6.524a.754.754,0,0,1,.221-.535Z" transform="translate(-64.908 -121.745)"/></g></svg>