<svg xmlns="http://www.w3.org/2000/svg" width="41.99" height="44.075" viewBox="0 0 41.99 44.075"><defs><style>.a{fill:#fff;}</style></defs><g transform="translate(-12.013 0)"><g transform="translate(12.013 0)"><g transform="translate(0 0)"><path class="a" d="M48.493,38.571c-.382,3.653-4.174,4.5-11.3,3.8a69.129,69.129,0,0,0-12.209,0c-4.5.312-8.053.564-9.936-1.189-1.085-1.015-1.614-2.733-1.614-5.259A17.663,17.663,0,0,1,24.951,19.377a10.6,10.6,0,0,0,12.27-.009,17.8,17.8,0,0,1,6.2,3.931l1-1.024a19.228,19.228,0,0,0-5.944-3.948,10.66,10.66,0,1,0-14.786.009,19.081,19.081,0,0,0-11.68,17.58c0,2.942.72,4.955,2.074,6.3,2.681,2.681,8.226,1.718,11.012,1.571,5.345-.278,5.276-.538,12.01,0,6.161.495,11.5.807,12.782-4.9ZM21.853,10.665A9.233,9.233,0,1,1,31.086,19.9,9.24,9.24,0,0,1,21.853,10.665Z" transform="translate(-12.013 0)"/></g></g><g transform="translate(40.328 23.724)"><path class="a" d="M345.151,273.4a6.838,6.838,0,1,0,6.838,6.838A6.846,6.846,0,0,0,345.151,273.4Zm0,12.244a5.406,5.406,0,1,1,5.406-5.406A5.412,5.412,0,0,1,345.151,285.644Z" transform="translate(-338.313 -273.4)"/></g><g transform="translate(43.339 26.735)"><path class="a" d="M377.551,311.215V308.1h-1.432v3.115h-3.106v1.423h3.106v3.115h1.432v-3.115h3.115v-1.423Z" transform="translate(-373.013 -308.1)"/></g></g></svg>