<svg xmlns="http://www.w3.org/2000/svg" width="100.843" height="100.842" viewBox="0 0 100.843 100.842"><defs><style>.a{opacity:0.1;}</style></defs><path class="a" d="M50.421.562a50.421,50.421,0,1,0,50.421,50.421A50.413,50.413,0,0,0,50.421.562Zm0,19.518A17.891,17.891,0,1,1,32.53,37.972,17.892,17.892,0,0,1,50.421,20.08Zm0,69.939A38.96,38.96,0,0,1,20.636,76.154,22.668,22.668,0,0,1,40.662,64a4.975,4.975,0,0,1,1.444.224,26.919,26.919,0,0,0,8.315,1.4,26.817,26.817,0,0,0,8.315-1.4A4.974,4.974,0,0,1,60.18,64,22.668,22.668,0,0,1,80.206,76.154,38.96,38.96,0,0,1,50.421,90.02Z" transform="translate(0 -0.563)"/></svg>