<svg xmlns="http://www.w3.org/2000/svg" width="28.242" height="18.203" viewBox="0 0 28.242 18.203"><defs><style>.a{fill:#fff;}</style></defs><g transform="translate(0 -91)"><path class="a" d="M188.274,181H180v8.274h8.274Zm-1.655,6.619h-4.964v-1.655h4.964Zm0-3.31h-4.964v-1.655h4.964Z" transform="translate(-170.071 -85.036)"/><path class="a" d="M27.415,93.519a1.7,1.7,0,0,1-1.71-1.692V91H2.519v.827A1.694,1.694,0,0,1,.827,93.519H0v13.165H.827a1.694,1.694,0,0,1,1.692,1.692v.827H25.7v-.827a1.7,1.7,0,0,1,1.71-1.692h.827V93.519Zm-20.8,12.374H4.964v-1.655H6.619Zm0-3.31H4.964v-1.655H6.619Zm0-3.31H4.964V97.619H6.619Zm0-3.31H4.964V94.31H6.619Zm13.239,9.929H8.274V94.31H19.858Zm3.31,0H21.513v-1.655h1.655Zm0-3.31H21.513v-1.655h1.655Zm0-3.31H21.513V97.619h1.655Zm0-3.31H21.513V94.31h1.655Z" transform="translate(0 0)"/></g></svg>