<svg xmlns="http://www.w3.org/2000/svg" width="30.3" height="30.3" viewBox="0 0 30.3 30.3"><defs><style>.a{fill:#fff;}</style></defs><path class="a" d="M12.063,0H2.282A2.285,2.285,0,0,0,0,2.282V8.151a2.285,2.285,0,0,0,2.282,2.282h9.781a2.285,2.285,0,0,0,2.282-2.282V2.282A2.285,2.285,0,0,0,12.063,0Zm0,0"/><path class="a" d="M12.063,213.332H2.282A2.285,2.285,0,0,0,0,215.614v13.693a2.285,2.285,0,0,0,2.282,2.282h9.781a2.285,2.285,0,0,0,2.282-2.282V215.614A2.285,2.285,0,0,0,12.063,213.332Zm0,0" transform="translate(0 -201.29)"/><path class="a" d="M289.4,341.332h-9.781a2.285,2.285,0,0,0-2.282,2.282v5.868a2.285,2.285,0,0,0,2.282,2.282H289.4a2.285,2.285,0,0,0,2.282-2.282v-5.868A2.285,2.285,0,0,0,289.4,341.332Zm0,0" transform="translate(-261.377 -321.465)"/><path class="a" d="M289.4,0h-9.781a2.285,2.285,0,0,0-2.282,2.282V15.975a2.285,2.285,0,0,0,2.282,2.282H289.4a2.285,2.285,0,0,0,2.282-2.282V2.282A2.285,2.285,0,0,0,289.4,0Zm0,0" transform="translate(-261.377)"/></svg>