<svg xmlns="http://www.w3.org/2000/svg" width="28.305" height="30.192" viewBox="0 0 28.305 30.192"><defs><style>.a{fill:#333;}</style></defs><g transform="translate(-16)"><g transform="translate(22.604)"><path class="a" d="M143.009,13.762a.941.941,0,0,0-.859-.553h-3.774V.943A.944.944,0,0,0,137.433,0h-3.774a.944.944,0,0,0-.943.943V13.209h-3.774a.943.943,0,0,0-.71,1.564l6.6,7.548a.941.941,0,0,0,1.419,0l6.6-7.548A.941.941,0,0,0,143.009,13.762Z" transform="translate(-127.998)"/></g><g transform="translate(16 20.757)"><path class="a" d="M40.531,352v5.661H19.774V352H16v7.548a1.886,1.886,0,0,0,1.887,1.887H42.418a1.885,1.885,0,0,0,1.887-1.887V352Z" transform="translate(-16 -352)"/></g></g></svg>