<svg xmlns="http://www.w3.org/2000/svg" width="18.52" height="19.754" viewBox="0 0 18.52 19.754"><defs><style>.a{fill:#fff;}</style></defs><g transform="translate(-16)"><g transform="translate(20.321)"><path class="a" d="M137.82,9a.616.616,0,0,0-.562-.362h-2.469V.617A.618.618,0,0,0,134.171,0H131.7a.618.618,0,0,0-.617.617V8.642h-2.469a.617.617,0,0,0-.464,1.024l4.321,4.939a.616.616,0,0,0,.928,0l4.321-4.939A.616.616,0,0,0,137.82,9Z" transform="translate(-127.998)"/></g><g transform="translate(16 13.581)"><path class="a" d="M32.05,352v3.7H18.469V352H16v4.939a1.234,1.234,0,0,0,1.235,1.235h16.05a1.234,1.234,0,0,0,1.235-1.235V352Z" transform="translate(-16 -352)"/></g></g></svg>