<svg xmlns="http://www.w3.org/2000/svg" width="49.733" height="49.734" viewBox="0 0 49.733 49.734"><defs><style>.a{fill:#fff;}</style></defs><g transform="translate(0 0.001)"><path class="a" d="M191.716,145.561,182,142.132v6.592a1.457,1.457,0,0,0,1.457,1.457h19.427a1.457,1.457,0,0,0,1.457-1.457v-6.592l-9.716,3.429a4.371,4.371,0,0,1-2.91,0Z" transform="translate(-164.321 -128.327)"/><path class="a" d="M112.972,8.658l16.513,5.828a1.457,1.457,0,0,0,.97,0l14.571-5.143v5.711a1.457,1.457,0,0,0,2.914,0V7.284a1.457,1.457,0,0,0-.972-1.374L130.455.082a1.456,1.456,0,0,0-.97,0L112.972,5.911a1.457,1.457,0,0,0,0,2.748Z" transform="translate(-101.121)"/><path class="a" d="M145.487,290.323l-5.511,7.207a5.828,5.828,0,0,1-4.63,2.288H125.113a1.457,1.457,0,0,1,0-2.914h8.869a3.453,3.453,0,0,0,3.466-3.466,3.4,3.4,0,0,0-3.4-3.333h-10.2a8.438,8.438,0,0,0-10.753-.784l-1.1.784v16.513h25.339a8.742,8.742,0,0,0,7.354-4.015l5.686-8.845a2.991,2.991,0,0,0-4.892-3.434Z" transform="translate(-101.121 -259.798)"/><path class="a" d="M6.508,282H1.457A1.457,1.457,0,0,0,0,283.457v19.427a1.457,1.457,0,0,0,1.457,1.457H6.508a1.457,1.457,0,0,0,1.457-1.457V283.457A1.457,1.457,0,0,0,6.508,282Z" transform="translate(0 -254.608)"/></g></svg>