<svg xmlns="http://www.w3.org/2000/svg" width="14.76" height="14.76" viewBox="0 0 14.76 14.76"><defs><style>.a{fill:#d7443e;}</style></defs><path class="a" d="M7.38,0a7.38,7.38,0,1,0,7.38,7.38A7.376,7.376,0,0,0,7.38,0Zm0,13.607A6.227,6.227,0,1,1,13.607,7.38,6.223,6.223,0,0,1,7.38,13.607Z"/><g transform="translate(4.138 4.138)"><path class="a" d="M168.835,167.855l-2.057-2.057,2.057-2.057a.694.694,0,0,0-.981-.981l-2.057,2.057-2.057-2.057a.694.694,0,1,0-.981.981l2.057,2.057-2.057,2.057a.694.694,0,1,0,.981.981l2.057-2.057,2.057,2.057a.694.694,0,0,0,.981-.981Z" transform="translate(-162.555 -162.556)"/></g></svg>