<svg xmlns="http://www.w3.org/2000/svg" width="18.7" height="12.75" viewBox="0 0 18.7 12.75"><defs><style>.a{fill:#145e9a;}</style></defs><g transform="translate(0 -74.667)"><g transform="translate(0 74.667)"><g transform="translate(0 0)"><path class="a" d="M173.354,170.667a2.687,2.687,0,1,0,2.687,2.687A2.689,2.689,0,0,0,173.354,170.667Z" transform="translate(-164.004 -166.979)"/><path class="a" d="M9.35,74.667A10.053,10.053,0,0,0,0,81.042a10.044,10.044,0,0,0,18.7,0A10.048,10.048,0,0,0,9.35,74.667Zm0,10.625a4.25,4.25,0,1,1,4.25-4.25A4.252,4.252,0,0,1,9.35,85.292Z" transform="translate(0 -74.667)"/></g></g></g></svg>