<svg xmlns="http://www.w3.org/2000/svg" width="15.676" height="16.721" viewBox="0 0 15.676 16.721"><defs><style>.a{fill:#145e9a;}</style></defs><g transform="translate(-1725.422 -404)"><g transform="translate(1709.422 404)"><g transform="translate(19.658)"><path class="a" d="M136.312,7.622a.521.521,0,0,0-.476-.306h-2.09V.523A.523.523,0,0,0,133.223,0h-2.09a.523.523,0,0,0-.523.523V7.315h-2.09a.522.522,0,0,0-.393.866l3.658,4.18a.521.521,0,0,0,.786,0l3.658-4.18A.521.521,0,0,0,136.312,7.622Z" transform="translate(-127.998)"/></g><g transform="translate(16 11.496)"><path class="a" d="M29.586,352v3.135H18.09V352H16v4.18a1.045,1.045,0,0,0,1.045,1.045H30.631a1.044,1.044,0,0,0,1.045-1.045V352Z" transform="translate(-16 -352)"/></g></g></g></svg>