<svg xmlns="http://www.w3.org/2000/svg" width="26.086" height="32.713" viewBox="0 0 26.086 32.713"><defs><style>.a{fill:#fff;}</style></defs><g transform="translate(3.582)"><path class="a" d="M164.681,74.454h3.065a1.284,1.284,0,0,0-1.158-.705h-1.906a.353.353,0,0,0,0,.705Zm0,0" transform="translate(-158.44 -69.589)"/><path class="a" d="M140.258,90.148a2.159,2.159,0,0,0-.355.85,1.981,1.981,0,0,0,.72-.333A1.494,1.494,0,0,1,140.258,90.148Zm0,0" transform="translate(-135.392 -85.064)"/><path class="a" d="M366.118,20.827l-4.7-4.807V20.1a.758.758,0,0,0,.777.722Zm0,0" transform="translate(-344.413 -15.116)"/><path class="a" d="M141.068,110.623a2.206,2.206,0,0,0,2.15-2.2V106.25h-2.3a3.093,3.093,0,0,1-2,1.091v1.082A2.206,2.206,0,0,0,141.068,110.623Zm0,0" transform="translate(-134.463 -100.257)"/><path class="a" d="M187.668,221.919v1.234h3.525v-.621a1.265,1.265,0,0,0-1.265-1.282h-1.175Zm0,0" transform="translate(-180.463 -208.771)"/><path class="a" d="M-1.484,76.384H17.728a2.07,2.07,0,0,0,2.033-1.41H1.193a3.159,3.159,0,0,1-3.224-3.1V46.281a1.98,1.98,0,0,0-1.551,1.9V74.413A2.03,2.03,0,0,0-1.484,76.384Zm0,0" transform="translate(0 -43.671)"/><path class="a" d="M164.431,201.289a3.09,3.09,0,0,1-.936.141,3.246,3.246,0,0,1-.827-.11v.22l.854.562.909-.57Zm0,0" transform="translate(-156.873 -189.936)"/><path class="a" d="M109.872,221.911l-1.02-.661h-1.161a1.272,1.272,0,0,0-1.273,1.282v.621h3.455Zm0,0" transform="translate(-103.795 -208.771)"/><path class="a" d="M67.048,6.839H62.326a1.886,1.886,0,0,1-1.905-1.85V0H45.738a2.053,2.053,0,0,0-2.113,1.9.541.541,0,0,1,.011.073c0,.03.005.059.005.087V28.2a2.031,2.031,0,0,0,2.1,1.973H64.95a2.032,2.032,0,0,0,2.1-1.973Zm-21.01,6.923a2.4,2.4,0,0,1,2.4-2.411h.771V10.83a3.43,3.43,0,0,1-1.34-2.664V6.315a3.293,3.293,0,0,1,2.073-3.036,1.51,1.51,0,0,1,.841-.248h1.906a2.411,2.411,0,0,1,2.416,2.407.556.556,0,0,1-.564.554h-.116V8.166a3.213,3.213,0,0,1-1.2,2.577v.608h.779A2.394,2.394,0,0,1,56.4,13.761v1.157a.57.57,0,0,1-.541.592H46.588a.577.577,0,0,1-.549-.592Zm.549,4.005h9.273a.564.564,0,1,1,0,1.128H46.588a.564.564,0,1,1,0-1.128Zm16.139,9.377H46.588a.564.564,0,1,1,0-1.128H62.727a.564.564,0,0,1,0,1.128Zm0-2.75H46.588a.564.564,0,1,1,0-1.128H62.727a.564.564,0,0,1,0,1.128Zm0-2.75H46.588a.564.564,0,1,1,0-1.128H62.727a.564.564,0,0,1,0,1.128Zm0,0" transform="translate(-44.544)"/></g></svg>