<svg xmlns="http://www.w3.org/2000/svg" width="43.026" height="43.026" viewBox="0 0 43.026 43.026"><defs><style>.a{fill:#fff;}</style></defs><g transform="translate(0 0)"><path class="a" d="M183.187,7.847l-.485,2.831a1.26,1.26,0,0,0,1.829,1.329l2.542-1.337,2.543,1.337a1.259,1.259,0,0,0,.586.145h0a1.261,1.261,0,0,0,1.227-1.542l-.474-2.763,2.057-2a1.261,1.261,0,0,0-.7-2.15l-2.842-.413L188.2.7a1.261,1.261,0,0,0-2.261,0l-1.271,2.576-2.843.413a1.261,1.261,0,0,0-.7,2.15Z" transform="translate(-165.56)"/><path class="a" d="M378.663,369.994a9.846,9.846,0,0,1-8.653,2.025,11.153,11.153,0,0,1,.709,3.923v1.35a7.124,7.124,0,0,1-1.711,4.636h7.38a4.641,4.641,0,0,0,4.636-4.636v-1.35A8.655,8.655,0,0,0,378.663,369.994Z" transform="translate(-337.999 -338.902)"/><path class="a" d="M176.035,207.472a7.336,7.336,0,1,0-7.336-7.336A7.344,7.344,0,0,0,176.035,207.472Z" transform="translate(-154.522 -176.598)"/><path class="a" d="M357.136,207.472a7.336,7.336,0,1,0-4.724-12.944,9.835,9.835,0,0,1,0,11.215A7.3,7.3,0,0,0,357.136,207.472Z" transform="translate(-322.797 -176.598)"/><path class="a" d="M23.4,207.473a7.3,7.3,0,0,0,4.725-1.729,9.835,9.835,0,0,1,0-11.215A7.335,7.335,0,1,0,23.4,207.473Z" transform="translate(-14.716 -176.599)"/><path class="a" d="M161.319,372.3a9.813,9.813,0,0,1-6.325-2.3,8.655,8.655,0,0,0-2.362,5.947v1.35a4.641,4.641,0,0,0,4.636,4.636h8.1a4.641,4.641,0,0,0,4.636-4.636v-1.35a8.655,8.655,0,0,0-2.362-5.947A9.812,9.812,0,0,1,161.319,372.3Z" transform="translate(-139.807 -338.902)"/><path class="a" d="M10.305,375.942a11.152,11.152,0,0,1,.709-3.923,9.846,9.846,0,0,1-8.653-2.025A8.655,8.655,0,0,0,0,375.942v1.35a4.641,4.641,0,0,0,4.636,4.636h7.38a7.124,7.124,0,0,1-1.711-4.636Z" transform="translate(0 -338.903)"/></g></svg>