<svg xmlns="http://www.w3.org/2000/svg" width="30.275" height="33.606" viewBox="0 0 30.275 33.606">
  <g id="Human_Resource-Job_Search-Magnifying_Glass-Paper-Search" data-name="Human Resource-Job Search-Magnifying Glass-Paper-Search" transform="translate(-7 -4)">
    <path id="Path_2328" data-name="Path 2328" d="M27,32.9v.414l.6.6.6-.6V32.9a3.031,3.031,0,0,1-1.2,0Z" transform="translate(-7.998 -11.557)" fill="#1f1a17"/>
    <path id="Path_2329" data-name="Path 2329" d="M30.17,35.994l.246-.54-.468-.234-.378.372Z" transform="translate(-9.025 -12.485)" fill="#1f1a17"/>
    <path id="Path_2330" data-name="Path 2330" d="M28.329,20.135a7.2,7.2,0,0,0-10.382,9.974,3.01,3.01,0,0,1,1.542-1.878l1.944-.972v-.846a2.972,2.972,0,0,1-1.2-2.382v-1.8a3,3,0,1,1,6,0v1.8a2.972,2.972,0,0,1-1.2,2.382v.846l1.944.972a3.01,3.01,0,0,1,1.542,1.878A7.2,7.2,0,0,0,28.329,20.135Z" transform="translate(-3.632 -5.627)" fill="#1f1a17"/>
    <path id="Path_2331" data-name="Path 2331" d="M25.02,35.454l.246.54.6-.4-.378-.372Z" transform="translate(-7.206 -12.485)" fill="#1f1a17"/>
    <path id="Path_2332" data-name="Path 2332" d="M28.405,36.668l-.342-.168-.516,1.146a.591.591,0,0,1-.378.33A.54.54,0,0,1,27,38a.58.58,0,0,1-.33-.1L25.2,36.92l-1.47.978a.58.58,0,0,1-.33.1.54.54,0,0,1-.168-.024.591.591,0,0,1-.378-.33L22.338,36.5,22,36.668a1.827,1.827,0,0,0-1,1.614v.156a7.21,7.21,0,0,0,8.4,0v-.156A1.827,1.827,0,0,0,28.405,36.668Z" transform="translate(-5.598 -12.996)" fill="#1f1a17"/>
    <path id="Path_2333" data-name="Path 2333" d="M25,27.444a1.8,1.8,0,0,0,3.6,0v-.018a1.781,1.781,0,0,1-1.38-.816,4.1,4.1,0,0,1-2.22.81Z" transform="translate(-7.198 -9.041)" fill="#1f1a17"/>
    <path id="Path_2334" data-name="Path 2334" d="M42.011,40.614,40.967,39.57a11.03,11.03,0,0,1-1.5,1.9,10.908,10.908,0,0,1-1.9,1.5l1.044,1.044Z" transform="translate(-12.225 -14.224)" fill="#1f1a17"/>
    <path id="Path_2335" data-name="Path 2335" d="M28.4,16.822a9.591,9.591,0,1,0,2.815,6.787A9.591,9.591,0,0,0,28.4,16.822ZM27.557,29.55a8.4,8.4,0,1,1,2.46-5.941A8.4,8.4,0,0,1,27.557,29.55Z" transform="translate(-2.013 -4.006)" fill="#1f1a17"/>
    <path id="Path_2336" data-name="Path 2336" d="M27.5,23.206a.619.619,0,0,1,.444.324l.264.54a.593.593,0,0,0,.4.312V23.8a1.8,1.8,0,0,0-3.6,0v.57a2.988,2.988,0,0,0,1.83-.846l.144-.15A.619.619,0,0,1,27.5,23.206Z" transform="translate(-7.198 -7.198)" fill="#1f1a17"/>
    <path id="Path_2337" data-name="Path 2337" d="M51.193,53.193a2.4,2.4,0,0,0,0-3.391L46.951,45.56,43.56,48.951,47.8,53.193A2.4,2.4,0,0,0,51.193,53.193Z" transform="translate(-14.62 -16.619)" fill="#1f1a17"/>
    <path id="Path_2338" data-name="Path 2338" d="M43.6,8.166h2.152L43,5.414V7.566A.6.6,0,0,0,43.6,8.166Z" transform="translate(-14.396 -0.565)" fill="#1f1a17"/>
    <path id="Path_2339" data-name="Path 2339" d="M40.755,47,45,42.756V42.75a.571.571,0,0,0,.174-.42A.62.62,0,0,0,45,41.9a.609.609,0,0,0-.852,0L39.9,46.147a.6.6,0,1,0,.852.852Z" transform="translate(-13.087 -15.088)" fill="#1f1a17"/>
    <path id="Path_2340" data-name="Path 2340" d="M30.716,25.628l-1.374-1.374a10.813,10.813,0,1,0-5.095,5.089l1.374,1.368a1.8,1.8,0,0,0,.348,2.046,1.775,1.775,0,0,0,1.272.528,1.8,1.8,0,0,0,.768-.18l3.817,3.8a1.786,1.786,0,0,1-1.422.7H8.8a1.806,1.806,0,0,1-1.8-1.8V5.8A1.806,1.806,0,0,1,8.8,4H27.4V7a1.806,1.806,0,0,0,1.8,1.8h3V25.61A1.86,1.86,0,0,0,30.716,25.628Z" transform="translate(0 0)" fill="#1f1a17"/>
  </g>
</svg>
