<svg xmlns="http://www.w3.org/2000/svg" width="32" height="32" viewBox="0 0 32 32"><defs><style>.a{fill:#333;}</style></defs><path class="a" d="M16,0A16,16,0,1,0,32,16,16.017,16.017,0,0,0,16,0Zm0,29.521A13.521,13.521,0,1,1,29.521,16,13.537,13.537,0,0,1,16,29.521Z"/><g transform="translate(8.564 8.452)"><path class="a" d="M150.655,141.435H145.7v-4.957a1.239,1.239,0,1,0-2.479,0v4.957h-4.957a1.239,1.239,0,1,0,0,2.479h4.957v4.957a1.239,1.239,0,1,0,2.479,0v-4.957h4.957a1.239,1.239,0,1,0,0-2.479Z" transform="translate(-137.022 -135.238)"/></g></svg>