<svg xmlns="http://www.w3.org/2000/svg" width="18" height="19.565" viewBox="0 0 18 19.565"><defs><style>.a{fill:#707070;}</style></defs><path class="a" d="M4.872,108.5A1.247,1.247,0,0,0,6.046,109.8H21.7a1.316,1.316,0,0,0,0-2.617H6.046A1.247,1.247,0,0,0,4.872,108.5Z" transform="translate(-4.872 -90.239)"/><path class="a" d="M12.282,15.148a1.164,1.164,0,0,0,1.06.77,1.057,1.057,0,0,0,.478-.116l14.148-7.2a1.331,1.331,0,0,0,.683-1.23,1.308,1.308,0,0,0-.746-1.183L13.758.087a1.128,1.128,0,0,0-1.5.753,1.363,1.363,0,0,0,.67,1.69L24.472,7.513l-11.61,5.9A1.38,1.38,0,0,0,12.282,15.148Z" transform="translate(-10.871 0)"/></svg>