<svg xmlns="http://www.w3.org/2000/svg" width="540.309" height="95.875" viewBox="0 0 540.309 95.875">
  <g id="LnT_Full_Logo_blue" data-name="LnT Full Logo_blue" transform="translate(-358.122 -197.124)">
    <path id="Path_3362" data-name="Path 3362" d="M382.963,180.071a41.826,41.826,0,0,1,.607,83.649l19.293-34.876h13.155l7.151-12.885H390.114l-7.151,12.885h12.345l-19.023,34.337a41.882,41.882,0,0,1-5.4-81.423L352,215.892h0l-7.151,12.885H377.9l7.151-12.885h-25.5l19.833-35.753C380.534,180.139,381.749,180.071,382.963,180.071Zm0-6.071a47.935,47.935,0,1,1-33.924,14.04A47.935,47.935,0,0,1,382.963,174Z" transform="translate(23.124 23.124)" fill-rule="evenodd"/>
    <path id="Path_3363" data-name="Path 3363" d="M507.6,256.695h21.592l1.294-5.742H516.657l5.58-25.069h-7.682Zm46.256-8.006.728,8.006h8.087l-4.205-30.811H548.6l-17.548,30.811h8.168l4.286-8.006h10.351Zm-8.087-5.014,3.558-6.631c.97-1.779,2.022-4.124,2.911-6.065h.081c.162,1.86.4,4.367.566,6.065l.728,6.631Zm19.893,13.02h7.682l2.669-12.13h2.345c3.073,0,4.529,1.132,4.852,4.852a47.144,47.144,0,0,0,1.051,7.278h7.925c-.647-1.294-.97-5.256-1.375-8.734-.4-2.75-1.294-4.852-3.4-5.58v-.162c4.609-1.294,8.168-4.124,8.168-8.653a6.537,6.537,0,0,0-4.043-6.065c-2.507-1.294-6.065-1.779-9.462-1.779a53.484,53.484,0,0,0-9.623.809l-6.793,30.164Zm13.343-25.554A12.785,12.785,0,0,1,582,230.9c3.073,0,5.5,1.132,5.5,3.558,0,2.992-3.073,5.176-7.2,5.176h-3.235ZM594.856,255c1.7,1.132,5.256,2.183,10.351,2.264,8.006,0,14.637-3.558,14.637-10.432,0-3.639-2.75-6.146-7.2-8.168-3.073-1.456-5.256-2.588-5.256-4.367,0-1.7,1.86-3.235,5.5-3.235a15.2,15.2,0,0,1,6.712,1.375l2.426-5.418c-1.536-.809-4.124-1.617-8.491-1.617-7.844,0-14.233,3.8-14.233,10.028,0,4.043,3.639,6.389,7.521,8.168,3.316,1.456,4.852,2.588,4.852,4.367,0,2.426-2.75,3.639-5.742,3.639a19.642,19.642,0,0,1-8.491-1.941Zm52-16.9H634l1.456-6.55h13.586l1.294-5.58H628.982l-6.874,30.811h22.077l1.213-5.661H631l1.617-7.44h12.858l1.375-5.58Zm9.219,18.6,2.345-10.755c1.051-4.852,1.941-9.219,2.345-12.211l.162-.081a87.776,87.776,0,0,0,3.558,10.755l5.014,12.292H677.5l6.712-30.811h-7.2l-2.426,11.16a60.831,60.831,0,0,0-1.617,11.079h-.162c-.89-3.4-1.86-6.55-3.235-10.513l-4.771-11.726H655.75l-6.874,30.811Zm68.9,0a77.8,77.8,0,0,1-5.256-5.742,28.345,28.345,0,0,0,8.491-11.968h-7.036a22.743,22.743,0,0,1-5.014,7.844c-1.456-1.7-3.4-3.962-4.852-5.9v-.162c5.742-2.264,8.9-4.933,8.9-8.491,0-4.124-3.72-6.874-9.138-6.874-6.631,0-11.321,3.882-11.321,8.815a9,9,0,0,0,2.022,5.176l-.081.162c-4.69,1.86-8.653,4.771-8.653,9.542,0,5.014,4.448,8.168,11.16,8.168a17.076,17.076,0,0,0,9.623-2.588,24.851,24.851,0,0,0,2.022,2.1l9.138-.081Zm-18.519-4.448c-3.558,0-5.5-1.941-5.5-4.367,0-2.345,1.941-3.882,3.558-4.852,2.1,2.749,4.529,5.661,6.389,7.763a7.3,7.3,0,0,1-4.448,1.456Zm4.124-22.562a2.576,2.576,0,0,1,2.911,2.669c0,2.264-2.264,3.962-5.095,5.095a5.768,5.768,0,0,1-1.617-3.8,3.835,3.835,0,0,1,3.8-3.963Zm33.884,27.01h7.682l5.5-25.069h9.623l1.294-5.742H741.793l-1.375,5.742h9.542Zm41.162-31.3a20.835,20.835,0,0,0-13.181,4.367,19.032,19.032,0,0,0-6.631,14.556c0,7.2,5.256,12.858,14.637,12.858a20.4,20.4,0,0,0,13.343-4.448,18.968,18.968,0,0,0,6.389-14.556c0-7.278-5.014-12.777-14.556-12.777Zm-.89,5.5c5.661,0,7.278,3.72,7.278,7.521,0,3.558-1.536,8.653-4.367,11.079a9.509,9.509,0,0,1-6.065,2.264c-5.256,0-7.521-3.235-7.521-7.6,0-3.72,1.617-8.41,4.529-10.917a8.9,8.9,0,0,1,6.146-2.345Zm22.966-5.014-3.8,17.144a20.832,20.832,0,0,0-.566,4.286c0,6.55,4.529,9.866,11.968,9.866,9.785,0,14.637-4.448,16.659-13.828l3.882-17.467H828.16L824.2,243.675c-1.294,5.742-3.963,8.006-7.925,8.006-3.477,0-5.256-1.941-5.256-4.367a12.534,12.534,0,0,1,.4-3.639l3.963-17.71-7.682-.081ZM835.2,256.371a57.659,57.659,0,0,0,9.138.566c5.984,0,10.513-.809,13.586-2.507,2.83-1.617,4.933-4.043,4.933-7.278,0-3.4-2.183-5.822-5.661-6.712v-.162c3.882-.97,7.278-3.4,7.278-7.278,0-2.588-1.779-4.529-4.205-5.58-2.426-1.213-5.176-1.617-8.9-1.617a62.6,62.6,0,0,0-9.461.728l-6.712,29.84Zm13.262-25.312a12.786,12.786,0,0,1,2.992-.243c2.911,0,5.095.97,5.095,3.154,0,2.588-2.911,4.124-7.116,4.124H846.84Zm-2.83,11.888h2.426c3.558,0,6.55.89,6.55,3.962,0,3.4-3.8,4.852-8.006,4.852-1.132,0-2.022-.081-2.911-.162l1.941-8.653Zm19.651,13.747h7.682l2.669-12.13h2.345c3.073,0,4.529,1.132,4.852,4.852a47.144,47.144,0,0,0,1.051,7.278H891.8c-.647-1.294-.97-5.256-1.375-8.734-.4-2.75-1.294-4.852-3.4-5.58v-.162c4.609-1.294,8.168-4.124,8.168-8.653a6.537,6.537,0,0,0-4.043-6.065c-2.507-1.294-6.065-1.779-9.462-1.779a53.48,53.48,0,0,0-9.623.809l-6.793,30.164Zm13.343-25.554a12.788,12.788,0,0,1,2.992-.243c3.073,0,5.5,1.132,5.5,3.558,0,2.992-3.073,5.176-7.2,5.176H876.68Zm38.25-5.742a20.835,20.835,0,0,0-13.182,4.367,19.032,19.032,0,0,0-6.631,14.556c0,7.2,5.256,12.858,14.637,12.858a20.4,20.4,0,0,0,13.343-4.448,18.967,18.967,0,0,0,6.389-14.556C931.428,230.9,926.333,225.4,916.871,225.4Zm-.97,5.5c5.661,0,7.278,3.72,7.278,7.521,0,3.558-1.536,8.653-4.367,11.079a9.509,9.509,0,0,1-6.065,2.264c-5.256,0-7.521-3.235-7.521-7.6,0-3.72,1.617-8.41,4.529-10.917A9.208,9.208,0,0,1,915.9,230.9Z" transform="translate(-33 3.541)"/>
  </g>
</svg>
