<svg xmlns="http://www.w3.org/2000/svg" xmlns:xlink="http://www.w3.org/1999/xlink" width="618" height="618" viewBox="0 0 618 618">
  <defs>
    <linearGradient id="linear-gradient" x1="-0.419" y1="0.656" x2="0.627" y2="0.656" gradientUnits="objectBoundingBox">
      <stop offset="0.19" stop-color="#47a2e9"/>
      <stop offset="0.66" stop-color="#8abcf7"/>
    </linearGradient>
    <linearGradient id="linear-gradient-2" x1="0.096" y1="1.63" x2="-0.691" y2="0.759" gradientUnits="objectBoundingBox">
      <stop offset="0.24" stop-color="#49687e"/>
      <stop offset="1" stop-color="#dff1fd"/>
    </linearGradient>
    <linearGradient id="linear-gradient-3" x1="-0.108" y1="1.237" x2="-0.527" y2="0.247" xlink:href="#linear-gradient-2"/>
    <linearGradient id="linear-gradient-4" x1="0" y1="0.5" x2="1" y2="0.5" xlink:href="#linear-gradient"/>
    <linearGradient id="linear-gradient-5" x1="0.499" y1="1" x2="0.499" y2="0" xlink:href="#linear-gradient-2"/>
    <linearGradient id="linear-gradient-6" x1="1.48" y1="1.077" x2="0.798" y2="0.117" xlink:href="#linear-gradient-2"/>
    <linearGradient id="linear-gradient-7" x1="-0.316" y1="2.267" x2="0.332" y2="1.648" xlink:href="#linear-gradient-2"/>
    <linearGradient id="linear-gradient-8" x1="0.162" y1="2.44" x2="0.81" y2="1.82" xlink:href="#linear-gradient-2"/>
    <linearGradient id="linear-gradient-9" x1="2.417" y1="2.643" x2="3.261" y2="1.723" xlink:href="#linear-gradient-2"/>
    <linearGradient id="linear-gradient-10" x1="0" y1="0.5" x2="1" y2="0.5" xlink:href="#linear-gradient"/>
    <linearGradient id="linear-gradient-11" x1="-0.453" y1="1.72" x2="-0.105" y2="1.561" xlink:href="#linear-gradient-2"/>
  </defs>
  <g id="_2397204" data-name="2397204" transform="translate(-0.333 -0.333)">
    <g id="BACKGROUND">
      <rect id="Rectangle_8" data-name="Rectangle 8" width="618" height="618" transform="translate(0.333 0.333)" fill="#fff"/>
    </g>
    <g id="OBJECTS" transform="translate(37.033 89.281)">
      <path id="Path_3" data-name="Path 3" d="M267.139,214.42a15.727,15.727,0,0,0-14.291-20.973,17.83,17.83,0,0,0-17.323-13.611h-1.386a13.611,13.611,0,0,0-5.333-2.7,14.6,14.6,0,0,0-9.033-10.7,30.59,30.59,0,0,0,.3-4.157,29.35,29.35,0,0,0-58.662-1.522A21.492,21.492,0,0,0,142.465,182.1v1.423a11.841,11.841,0,0,0-3.91,22.272,11.917,11.917,0,0,0-.247,2.475,11.767,11.767,0,0,0,1.621,5.964h-.247a8.216,8.216,0,0,0-8.191,8.191h0a8.216,8.216,0,0,0,8.191,8.191h125.9a8.216,8.216,0,0,0,8.191-8.191h0a8.228,8.228,0,0,0-6.632-8.006Z" transform="translate(-5.826 -57.744)" fill="#dff1fd"/>
      <path id="Path_4" data-name="Path 4" d="M287.973,191.936a11.977,11.977,0,0,1,10.888-15.986,13.611,13.611,0,0,1,13.2-10.344h1.052a10.393,10.393,0,0,1,4.071-2.054,11.136,11.136,0,0,1,6.88-8.154,22.359,22.359,0,1,1,44.47-4.331,16.382,16.382,0,0,1,14.452,16.259v1.089a9.033,9.033,0,0,1,2.982,16.976,9.9,9.9,0,0,1,.186,1.831,9.02,9.02,0,0,1-1.237,4.553h.186a6.261,6.261,0,0,1,6.248,6.187h0a6.261,6.261,0,0,1-6.249,6.249H289.21a6.261,6.261,0,0,1-6.31-6.15h0A6.261,6.261,0,0,1,287.973,191.936Z" transform="translate(30.108 -58.436)" fill="#dff1fd"/>
      <path id="Path_5" data-name="Path 5" d="M235.863,116.507a8.562,8.562,0,0,1,7.783-11.433,9.725,9.725,0,0,1,9.441-7.424,7.522,7.522,0,0,1,.755,0,7.584,7.584,0,0,1,2.908-1.46,7.931,7.931,0,0,1,4.949-5.84,15.118,15.118,0,0,1-.161-2.264,15.986,15.986,0,0,1,31.948-.829,11.718,11.718,0,0,1,10.332,11.631v.78a6.446,6.446,0,0,1,2.128,12.126,6.644,6.644,0,0,1,.136,1.312,6.446,6.446,0,0,1-.891,3.254h.136a4.467,4.467,0,0,1,4.467,4.467h0a4.467,4.467,0,0,1-4.467,4.454h-68.61a4.467,4.467,0,0,1-4.467-4.454h0a4.479,4.479,0,0,1,3.613-4.318Z" transform="translate(18.087 -72.156)" fill="#dff1fd"/>
      <path id="Path_6" data-name="Path 6" d="M318.1,276.052a12,12,0,0,1,10.888-15.974,13.611,13.611,0,0,1,13.2-10.356h1.052a10.468,10.468,0,0,1,4.071-2.054,11.136,11.136,0,0,1,6.88-8.154,24.182,24.182,0,0,1-.223-3.168,22.371,22.371,0,0,1,44.7-1.151,16.37,16.37,0,0,1,14.44,16.259c0,.359,0,.73,0,1.089a9.02,9.02,0,0,1,2.982,16.964,9.032,9.032,0,0,1-1.052,6.385h.186a6.261,6.261,0,0,1,6.248,6.248h0a6.261,6.261,0,0,1-6.249,6.187H319.287a6.261,6.261,0,0,1-6.187-6.187h0a6.273,6.273,0,0,1,5-6.088Z" transform="translate(37.276 -38.467)" fill="#dff1fd"/>
      <path id="Path_7" data-name="Path 7" d="M62.479,310.714a12.014,12.014,0,0,1,10.889-15.986,13.611,13.611,0,0,1,13.215-10.344h1.052A10.469,10.469,0,0,1,91.7,282.33a11.136,11.136,0,0,1,6.88-8.154,24.313,24.313,0,0,1-.223-3.168,22.371,22.371,0,0,1,44.7-1.163,16.382,16.382,0,0,1,14.427,16.333v1.076a9.02,9.02,0,0,1,2.982,16.976,8.92,8.92,0,0,1,.186,1.831,9.02,9.02,0,0,1-1.237,4.553h.161a6.261,6.261,0,0,1,6.187,6.187h0a6.261,6.261,0,0,1-6.187,6.249H63.667A6.261,6.261,0,0,1,57.48,316.8h0a6.249,6.249,0,0,1,5-6.088Z" transform="translate(-23.391 -30.243)" fill="#dff1fd"/>
      <ellipse id="Ellipse_1" data-name="Ellipse 1" cx="272.3" cy="43.814" rx="272.3" ry="43.814" transform="translate(0 320.536)" fill="#c6e6fd"/>
      <path id="Path_8" data-name="Path 8" d="M395.962,207.579s-8.228-29.882-6.706-43.047,8.748-8.971,10.121.854,9.466,4.665,3.489-9.651,8.278-24.091,11.012-15.43-9.23,39.063-4.751,40.684,4.85-14.031,9.688-13.45,5.407,15.875-3.625,26.8S406.109,213.3,402.4,215.016,395.962,207.579,395.962,207.579Z" transform="translate(55.305 -56.756)" fill="url(#linear-gradient)"/>
      <path id="Path_9" data-name="Path 9" d="M398,198.136s-1.336-12.534.779-17.78,4.875-15.615,4.875-15.615" transform="translate(57.326 -50.183)" fill="none" stroke="#4089c1" stroke-linecap="round" stroke-width="1.85"/>
      <path id="Path_10" data-name="Path 10" d="M398.884,180.621s-4.343-7.968-3.712-11.421" transform="translate(56.739 -49.125)" fill="none" stroke="#4089c1" stroke-linecap="round" stroke-width="1.85"/>
      <path id="Path_11" data-name="Path 11" d="M397.5,184.732c.173.569,16.011-7.845,17.162-12.782" transform="translate(57.307 -48.472)" fill="none" stroke="#4089c1" stroke-linecap="round" stroke-width="1.85"/>
      <path id="Path_12" data-name="Path 12" d="M383.624,236.443s2.673-22.594,15.59-37.516S420.311,182,420.311,182s7.622,18.783-8.067,39.038S375.693,257.477,383.624,236.443Z" transform="translate(53.6 -46.087)" fill="url(#linear-gradient-2)"/>
      <path id="Path_13" data-name="Path 13" d="M382.31,244.73s25.984-36.675,34.014-58.39" transform="translate(53.701 -45.057)" fill="none" stroke="#b2c0ca" stroke-linecap="round" stroke-width="0.92"/>
      <path id="Path_14" data-name="Path 14" d="M384.3,231.7s9.515-3.91,11-5.42" transform="translate(54.174 -35.578)" fill="none" stroke="#b2c0ca" stroke-linecap="round" stroke-width="0.92"/>
      <path id="Path_15" data-name="Path 15" d="M388.721,209.73c-1.782,4,1.534,15.64,1.534,15.64s10.134-.186,11.495-1.757" transform="translate(55.098 -39.506)" fill="none" stroke="#b2c0ca" stroke-linecap="round" stroke-width="0.92"/>
      <path id="Path_16" data-name="Path 16" d="M395.2,214.323a57.35,57.35,0,0,0,10.7-1.683" transform="translate(56.761 -38.815)" fill="none" stroke="#b2c0ca" stroke-linecap="round" stroke-width="0.92"/>
      <path id="Path_17" data-name="Path 17" d="M399.53,206.739s10.851.606,13.437-2.029" transform="translate(57.788 -40.697)" fill="none" stroke="#b2c0ca" stroke-linecap="round" stroke-width="0.92"/>
      <path id="Path_18" data-name="Path 18" d="M397.808,213.109s-3.823-12.052-1.683-15.269" transform="translate(56.826 -42.327)" fill="none" stroke="#b2c0ca" stroke-linecap="round" stroke-width="0.92"/>
      <path id="Path_19" data-name="Path 19" d="M403.65,199.955s8.785-.136,10.9-2.475" transform="translate(58.766 -42.413)" fill="none" stroke="#b2c0ca" stroke-linecap="round" stroke-width="0.92"/>
      <path id="Path_20" data-name="Path 20" d="M406.037,196.788s-2.376-5.16-1.522-6.558" transform="translate(58.928 -44.134)" fill="none" stroke="#b2c0ca" stroke-linecap="round" stroke-width="0.92"/>
      <path id="Path_21" data-name="Path 21" d="M384.312,214.931s-4.108-16.085.742-29.548,9.9-17.013,9.9-17.013,10.1,10.752,4.751,28.595S384.51,231.313,384.312,214.931Z" transform="translate(53.791 -49.322)" fill="url(#linear-gradient-3)"/>
      <path id="Path_22" data-name="Path 22" d="M385.34,220.678s8.03-31.688,7.783-48.528" transform="translate(54.421 -48.425)" fill="none" stroke="#b2c0ca" stroke-linecap="round" stroke-width="0.92"/>
      <path id="Path_23" data-name="Path 23" d="M386,210.158s5.42-5.135,6.038-6.558" transform="translate(54.577 -40.96)" fill="none" stroke="#b2c0ca" stroke-linecap="round" stroke-width="0.92"/>
      <path id="Path_24" data-name="Path 24" d="M383.391,193.57c-.161,3.18,5.135,10.208,5.135,10.208s6.83-2.772,7.35-4.195" transform="translate(53.957 -43.341)" fill="none" stroke="#b2c0ca" stroke-linecap="round" stroke-width="0.92"/>
      <path id="Path_25" data-name="Path 25" d="M389,195.507a42.229,42.229,0,0,0,6.83-3.947" transform="translate(55.289 -43.818)" fill="none" stroke="#b2c0ca" stroke-linecap="round" stroke-width="0.92"/>
      <path id="Path_26" data-name="Path 26" d="M389.91,189.369s7.511-2.475,8.587-4.949" transform="translate(55.505 -45.512)" fill="none" stroke="#b2c0ca" stroke-linecap="round" stroke-width="0.92"/>
      <path id="Path_27" data-name="Path 27" d="M390.436,193.489s-5.754-7.177-5.147-9.9" transform="translate(54.398 -45.709)" fill="none" stroke="#b2c0ca" stroke-linecap="round" stroke-width="0.92"/>
      <path id="Path_28" data-name="Path 28" d="M390.91,183.556s5.914-2.388,6.731-4.566" transform="translate(55.743 -46.801)" fill="none" stroke="#b2c0ca" stroke-linecap="round" stroke-width="0.92"/>
      <path id="Path_29" data-name="Path 29" d="M391.8,180.238s-2.97-2.883-2.759-4.058" transform="translate(55.297 -47.468)" fill="none" stroke="#b2c0ca" stroke-linecap="round" stroke-width="0.92"/>
      <path id="Path_30" data-name="Path 30" d="M382.389,322.54s-24.116-51.807-25.452-76.22,13.153-19.018,18.671-1.571,18.659,5.568,3.39-18.56,7.634-46.363,15.269-31.453-4.764,73.881,3.873,75.477,4.516-27.023,13.475-27.456,14.737,27.221,1.67,49.865-10.678,37.219-16.9,41.475S382.389,322.54,382.389,322.54Z" transform="translate(47.659 -44.209)" fill="url(#linear-gradient-4)"/>
      <path id="Path_31" data-name="Path 31" d="M383.622,303.851s-6.3-22.383-4.071-32.554,4.071-29.906,4.071-29.906" transform="translate(52.934 -31.992)" fill="none" stroke="#4089c1" stroke-linecap="round" stroke-width="1.85"/>
      <path id="Path_32" data-name="Path 32" d="M381.064,271.372s-10.344-13.14-10.344-19.612" transform="translate(50.951 -29.53)" fill="none" stroke="#4089c1" stroke-linecap="round" stroke-width="1.85"/>
      <path id="Path_33" data-name="Path 33" d="M379.08,280.281c.483.99,26.689-19.191,27.221-28.521" transform="translate(52.935 -29.53)" fill="none" stroke="#4089c1" stroke-linecap="round" stroke-width="1.85"/>
      <path id="Path_34" data-name="Path 34" d="M390.75,355.068s-13.611-32.319-7.585-62.126,15.43-38.691,15.43-38.691,24.474,19.389,18.82,58.439S396.1,389.367,390.75,355.068Z" transform="translate(53.539 -28.939)" fill="url(#linear-gradient-5)"/>
      <path id="Path_35" data-name="Path 35" d="M393.37,366.564s7-68.882,1.237-104.084" transform="translate(56.326 -26.986)" fill="none" stroke="#b2c0ca" stroke-linecap="round" stroke-width="1.85"/>
      <path id="Path_36" data-name="Path 36" d="M393.87,344.225s9.775-12.46,10.629-15.615" transform="translate(56.445 -11.291)" fill="none" stroke="#b2c0ca" stroke-linecap="round" stroke-width="1.85"/>
      <path id="Path_37" data-name="Path 37" d="M383.77,309.9c.643,6.719,13.92,19.8,13.92,19.8s13.437-7.931,14.081-11.074" transform="translate(54.048 -15.732)" fill="none" stroke="#b2c0ca" stroke-linecap="round" stroke-width="1.85"/>
      <path id="Path_38" data-name="Path 38" d="M395.82,312.621s9.057-5.927,13.091-10.381" transform="translate(56.908 -17.55)" fill="none" stroke="#b2c0ca" stroke-linecap="round" stroke-width="1.85"/>
      <path id="Path_39" data-name="Path 39" d="M395.82,299.583s15.009-7.424,16.481-12.943" transform="translate(56.908 -21.252)" fill="none" stroke="#b2c0ca" stroke-linecap="round" stroke-width="1.85"/>
      <path id="Path_40" data-name="Path 40" d="M398.478,307.563s-14.266-13.264-13.846-19.2" transform="translate(54.25 -20.844)" fill="none" stroke="#b2c0ca" stroke-linecap="round" stroke-width="1.85"/>
      <path id="Path_41" data-name="Path 41" d="M396.14,287s11.668-6.855,12.7-11.668" transform="translate(56.984 -23.936)" fill="none" stroke="#b2c0ca" stroke-linecap="round" stroke-width="1.85"/>
      <path id="Path_42" data-name="Path 42" d="M397.248,279.379s-7.1-5.123-7.028-7.659" transform="translate(55.579 -24.793)" fill="none" stroke="#b2c0ca" stroke-linecap="round" stroke-width="1.85"/>
      <path id="Path_43" data-name="Path 43" d="M406.412,346.531s-4.021-34.819,10.022-61.78S442.048,251.9,442.048,251.9s18.1,25.44,1.782,61.359S402.02,380.979,406.412,346.531Z" transform="translate(59.295 -29.497)" fill="url(#linear-gradient-6)"/>
      <path id="Path_44" data-name="Path 44" d="M407.51,359.1s25.922-64.193,30.24-99.593" transform="translate(59.682 -27.691)" fill="none" stroke="#b2c0ca" stroke-linecap="round" stroke-width="1.85"/>
      <path id="Path_45" data-name="Path 45" d="M409.48,337.307s12.868-9.23,14.563-12.027" transform="translate(60.15 -12.082)" fill="none" stroke="#b2c0ca" stroke-linecap="round" stroke-width="1.85"/>
      <path id="Path_46" data-name="Path 46" d="M408.542,302.13c-1.237,6.62,7.845,22.891,7.845,22.891s15.12-3.873,16.605-6.719" transform="translate(59.9 -17.576)" fill="none" stroke="#b2c0ca" stroke-linecap="round" stroke-width="1.85"/>
      <path id="Path_47" data-name="Path 47" d="M419.89,307.4s10.344-3.168,15.467-6.323" transform="translate(62.62 -17.825)" fill="none" stroke="#b2c0ca" stroke-linecap="round" stroke-width="1.85"/>
      <path id="Path_48" data-name="Path 48" d="M423.66,294.69s16.481-2.945,19.439-7.82" transform="translate(63.515 -21.198)" fill="none" stroke="#b2c0ca" stroke-linecap="round" stroke-width="1.85"/>
      <path id="Path_49" data-name="Path 49" d="M423.347,303.972s-10-16.716-7.944-22.272" transform="translate(61.49 -22.425)" fill="none" stroke="#b2c0ca" stroke-linecap="round" stroke-width="1.85"/>
      <path id="Path_50" data-name="Path 50" d="M427.41,282.9s13.116-3.328,15.442-7.659" transform="translate(64.405 -23.958)" fill="none" stroke="#b2c0ca" stroke-linecap="round" stroke-width="1.85"/>
      <path id="Path_51" data-name="Path 51" d="M429.99,276.565s-5.395-6.892-4.615-9.3" transform="translate(63.904 -25.852)" fill="none" stroke="#b2c0ca" stroke-linecap="round" stroke-width="1.85"/>
      <path id="Path_52" data-name="Path 52" d="M224.18,341.3s-50.879-14.118-80.538-49S112.3,237.933,112.3,237.933s45.781-10.839,86.613,32.294S269.763,366.986,224.18,341.3Z" transform="translate(-10.381 -33.1)" fill="url(#linear-gradient-7)"/>
      <path id="Path_53" data-name="Path 53" d="M243.057,345.09s-74.908-72.557-121.877-98.64" transform="translate(-8.273 -30.791)" fill="none" stroke="#b2c0ca" stroke-linecap="round" stroke-width="1.85"/>
      <path id="Path_54" data-name="Path 54" d="M215.438,325.785S209.832,302.6,206.9,298.65" transform="translate(12.071 -18.402)" fill="none" stroke="#b2c0ca" stroke-linecap="round" stroke-width="1.85"/>
      <path id="Path_55" data-name="Path 55" d="M167.33,308.057c8.538,5.518,36.4,2.029,36.4,2.029s3.168-23.3,0-26.986" transform="translate(2.68 -22.092)" fill="none" stroke="#b2c0ca" stroke-linecap="round" stroke-width="1.85"/>
      <path id="Path_56" data-name="Path 56" d="M179.464,294.535s1.435-16.246-.074-25.155" transform="translate(5.542 -25.349)" fill="none" stroke="#b2c0ca" stroke-linecap="round" stroke-width="1.85"/>
      <path id="Path_57" data-name="Path 57" d="M163.44,283.132s5.234-24.672.087-31.552" transform="translate(1.756 -29.573)" fill="none" stroke="#b2c0ca" stroke-linecap="round" stroke-width="1.85"/>
      <path id="Path_58" data-name="Path 58" d="M178.3,283.709s-29.028,4.442-35.635-1.559" transform="translate(-3.175 -22.318)" fill="none" stroke="#b2c0ca" stroke-linecap="round" stroke-width="1.85"/>
      <path id="Path_59" data-name="Path 59" d="M149.523,270.157s2.8-20.193-1.943-25.9" transform="translate(-2.008 -31.31)" fill="none" stroke="#b2c0ca" stroke-linecap="round" stroke-width="1.85"/>
      <path id="Path_60" data-name="Path 60" d="M143.813,259.08s-12.683,3.613-15.6,1.163" transform="translate(-6.605 -27.793)" fill="none" stroke="#b2c0ca" stroke-linecap="round" stroke-width="1.85"/>
      <path id="Path_61" data-name="Path 61" d="M133.7,284.494s-31.329-8.661-49.6-30.179-19.29-33.482-19.29-33.482,28.174-6.669,53.366,19.9S161.78,300.294,133.7,284.494Z" transform="translate(-21.652 -37.047)" fill="url(#linear-gradient-8)"/>
      <path id="Path_62" data-name="Path 62" d="M145.337,286.833S99.2,242.153,70.28,226.08" transform="translate(-20.354 -35.625)" fill="none" stroke="#b2c0ca" stroke-linecap="round" stroke-width="1.85"/>
      <path id="Path_63" data-name="Path 63" d="M128.331,274.946s-3.452-14.279-5.271-16.716" transform="translate(-7.827 -27.995)" fill="none" stroke="#b2c0ca" stroke-linecap="round" stroke-width="1.85"/>
      <path id="Path_64" data-name="Path 64" d="M98.7,264.028c5.259,3.39,22.408,1.237,22.408,1.237s1.955-14.341,0-16.605" transform="translate(-13.609 -30.266)" fill="none" stroke="#b2c0ca" stroke-linecap="round" stroke-width="1.85"/>
      <path id="Path_65" data-name="Path 65" d="M106.16,255.7s.879-10.01,0-15.5" transform="translate(-11.838 -32.274)" fill="none" stroke="#b2c0ca" stroke-linecap="round" stroke-width="1.85"/>
      <path id="Path_66" data-name="Path 66" d="M96.3,248.729s3.217-15.194,0-19.439" transform="translate(-14.178 -34.863)" fill="none" stroke="#b2c0ca" stroke-linecap="round" stroke-width="1.85"/>
      <path id="Path_67" data-name="Path 67" d="M105.448,249.023s-17.867,2.772-21.938-.953" transform="translate(-17.214 -30.406)" fill="none" stroke="#b2c0ca" stroke-linecap="round" stroke-width="1.85"/>
      <path id="Path_68" data-name="Path 68" d="M87.737,240.679s1.72-12.435-1.237-15.949" transform="translate(-16.504 -35.946)" fill="none" stroke="#b2c0ca" stroke-linecap="round" stroke-width="1.85"/>
      <path id="Path_69" data-name="Path 69" d="M84.212,233.86s-7.808,2.227-9.6.718" transform="translate(-19.326 -33.779)" fill="none" stroke="#b2c0ca" stroke-linecap="round" stroke-width="1.85"/>
      <path id="Path_70" data-name="Path 70" d="M118.59,265.192S95.266,242.537,89.537,214.92s-.891-38.63-.891-38.63,27.939,7.659,37.293,43.034S135.64,292.513,118.59,265.192Z" transform="translate(-16.448 -47.442)" fill="url(#linear-gradient-9)"/>
      <path id="Path_71" data-name="Path 71" d="M127.236,272.938S108.182,211.6,90.5,183.64" transform="translate(-15.555 -45.698)" fill="none" stroke="#b2c0ca" stroke-linecap="round" stroke-width="1.85"/>
      <path id="Path_72" data-name="Path 72" d="M118.66,254.347s3.823-14.18,3.4-17.187" transform="translate(-8.871 -32.995)" fill="none" stroke="#b2c0ca" stroke-linecap="round" stroke-width="1.85"/>
      <path id="Path_73" data-name="Path 73" d="M98.66,228.522c2.982,5.506,19.067,11.854,19.067,11.854s8.661-11.656,7.993-14.576" transform="translate(-13.618 -35.692)" fill="none" stroke="#b2c0ca" stroke-linecap="round" stroke-width="1.85"/>
      <path id="Path_74" data-name="Path 74" d="M109.21,226.831s5.58-8.352,7.424-13.611" transform="translate(-11.114 -38.677)" fill="none" stroke="#b2c0ca" stroke-linecap="round" stroke-width="1.85"/>
      <path id="Path_75" data-name="Path 75" d="M104.29,215.936s10.121-11.792,9.367-17.026" transform="translate(-12.282 -42.073)" fill="none" stroke="#b2c0ca" stroke-linecap="round" stroke-width="1.85"/>
      <path id="Path_76" data-name="Path 76" d="M110.365,220.639s-17-6.187-18.8-11.359" transform="translate(-15.301 -39.612)" fill="none" stroke="#b2c0ca" stroke-linecap="round" stroke-width="1.85"/>
      <path id="Path_77" data-name="Path 77" d="M100.08,204.793s7.424-10.084,6.595-14.563" transform="translate(-13.281 -44.134)" fill="none" stroke="#b2c0ca" stroke-linecap="round" stroke-width="1.85"/>
      <path id="Path_78" data-name="Path 78" d="M99.063,197.022s-7.919-1.782-8.773-3.972" transform="translate(-15.605 -43.464)" fill="none" stroke="#b2c0ca" stroke-linecap="round" stroke-width="1.85"/>
      <path id="Path_79" data-name="Path 79" d="M133.509,335.343s-30.636-65.678-32.27-96.611,16.679-24.116,23.67-1.992,23.658,7.065,4.306-23.6,9.676-58.786,19.352-39.879-6.038,93.679,4.949,95.671,5.716-34.262,17.075-34.819,18.7,34.5,2.116,63.228-13.586,47.217-21.443,52.649S133.509,335.343,133.509,335.343Z" transform="translate(-13.03 -49.614)" fill="url(#linear-gradient-10)"/>
      <path id="Path_80" data-name="Path 80" d="M135.106,311.642s-7.981-28.384-5.16-41.29,5.16-37.912,5.16-37.912" transform="translate(-6.336 -34.116)" fill="none" stroke="#4089c1" stroke-linecap="round" stroke-width="1.85"/>
      <path id="Path_81" data-name="Path 81" d="M131.823,270.463s-13.1-16.679-13.1-24.883" transform="translate(-8.857 -30.997)" fill="none" stroke="#4089c1" stroke-linecap="round" stroke-width="1.85"/>
      <path id="Path_82" data-name="Path 82" d="M129.31,281.76c.619,1.237,33.853-24.338,34.571-36.18" transform="translate(-6.344 -30.997)" fill="none" stroke="#4089c1" stroke-linecap="round" stroke-width="1.85"/>
      <path id="Path_83" data-name="Path 83" d="M230.825,346.439s-51.312,12.373-94.2-3.6S82.79,310.606,82.79,310.606s34.645-31.738,91.4-13.97S283.127,346.625,230.825,346.439Z" transform="translate(-17.385 -20.162)" fill="url(#linear-gradient-11)"/>
      <path id="Path_84" data-name="Path 84" d="M249.281,337.048S148.525,310.123,94.8,310.21" transform="translate(-14.534 -15.658)" fill="none" stroke="#b2c0ca" stroke-linecap="round" stroke-width="1.85"/>
      <path id="Path_85" data-name="Path 85" d="M215.753,333.63S199.569,316.1,195.09,314.08" transform="translate(9.268 -14.74)" fill="none" stroke="#b2c0ca" stroke-linecap="round" stroke-width="1.85"/>
      <path id="Path_86" data-name="Path 86" d="M162.78,344.965c10.134.656,32.777-15.949,32.777-15.949s-8.575-21.888-13.1-23.6" transform="translate(1.6 -16.795)" fill="none" stroke="#b2c0ca" stroke-linecap="round" stroke-width="1.85"/>
      <path id="Path_87" data-name="Path 87" d="M169.121,323.85S162.465,309,156.81,301.9" transform="translate(0.183 -17.631)" fill="none" stroke="#b2c0ca" stroke-linecap="round" stroke-width="1.85"/>
      <path id="Path_88" data-name="Path 88" d="M149.563,321.685s-7.424-24.091-15.293-27.6" transform="translate(-5.167 -19.486)" fill="none" stroke="#b2c0ca" stroke-linecap="round" stroke-width="1.85"/>
      <path id="Path_89" data-name="Path 89" d="M162.812,318S139.661,336.065,131,334.011" transform="translate(-5.943 -13.809)" fill="none" stroke="#b2c0ca" stroke-linecap="round" stroke-width="1.85"/>
      <path id="Path_90" data-name="Path 90" d="M131.091,317.156S123.667,298.15,116.8,295.49" transform="translate(-9.313 -19.152)" fill="none" stroke="#b2c0ca" stroke-linecap="round" stroke-width="1.85"/>
      <path id="Path_91" data-name="Path 91" d="M120.6,311.68s-9.3,9.33-13.054,8.6" transform="translate(-11.508 -15.309)" fill="none" stroke="#b2c0ca" stroke-linecap="round" stroke-width="1.85"/>
      <path id="Path_92" data-name="Path 92" d="M138.929,325.918a33.029,33.029,0,0,0-4.306-4.058,42.239,42.239,0,0,0-4.826-3.328,38.674,38.674,0,0,0-5.37-2.648c-.47-.2-.953-.371-1.448-.544l-.73-.247a6.186,6.186,0,0,0-.878-.26,12.188,12.188,0,0,0-4.788-.322,14.848,14.848,0,0,0-4.12,1.1,20.578,20.578,0,0,0-3.316,1.757,32.3,32.3,0,0,0-5.11,4.157,45.191,45.191,0,0,0-4.071,4.566c-.619.78-1.237,1.584-1.807,2.388l-.854,1.237c-.21.322-.408.606-.619.94-2.475,2.994-4.875,5.976-7.276,9s-4.949,6.187-7.424,9.292-4.887,6.187-7.3,9.367c-.94,1.237-1.856,2.475-2.8,3.712v14.662a5.531,5.531,0,0,0,4.368-1.918q3.861-4.516,7.647-9.082t7.511-9.193c2.475-3.069,4.949-6.187,7.424-9.268s4.949-6.187,7.35-9.33l.235-.3.21-.346.582-.928.668-1q.693-1,1.411-1.967c.977-1.237,1.992-2.475,3.019-3.613a21.258,21.258,0,0,1,3.155-2.8,6.955,6.955,0,0,1,2.475-1.237,1.549,1.549,0,0,1,.569,0l.433.1.557.148,1.126.334c1.51.445,3.044.978,4.59,1.559s3.13,1.175,4.714,1.794,3.229,1.324,4.776,1.856l.309.111a3.526,3.526,0,0,0,3.811-5.642Z" transform="translate(-19.971 -14.663)" fill="#0d2933"/>
      <path id="Path_93" data-name="Path 93" d="M215.988,318.871a11.323,11.323,0,0,0-.544-1.918,10.085,10.085,0,0,0-2-3.056,13.24,13.24,0,0,0-2.388-1.98,17.67,17.67,0,0,0-2.413-1.237c-.4-.161-.792-.322-1.237-.458l-.594-.21-.767-.2a14.489,14.489,0,0,0-6.261-.173,17.78,17.78,0,0,0-5.382,1.93,22.271,22.271,0,0,0-4.182,2.9,33.2,33.2,0,0,0-3.39,3.328q-.767.879-1.485,1.782l-.718.94c-.247.346-.421.594-.742,1.089l-.384.606-.247.767c-2.289,7.04-4.566,14.081-6.768,21.146l-2.97,9.676v18.362h.062a5.593,5.593,0,0,0,7.152-3.378q1.856-5.234,3.712-10.493l3.539-10.517q3.366-10.146,6.57-20.329l.433-.594a13.855,13.855,0,0,1,.977-1.237,21.4,21.4,0,0,1,2.116-2.227,10.777,10.777,0,0,1,4.034-2.561,3.451,3.451,0,0,1,1.485-.111h.186l.346.074a3.05,3.05,0,0,1,.681.173l1.151.309c.705.2,1.064.334,1.312.173a.8.8,0,0,1,.47-.173.557.557,0,0,1,.309.111l.161.1h.087l.111-.1a3.458,3.458,0,0,0,6.187,3.093l.346-.557.247-.408a5.751,5.751,0,0,0,.371-.854,6.37,6.37,0,0,0,.433-1.844,8.862,8.862,0,0,0,0-1.943Z" transform="translate(4.146 -15.856)" fill="#0d2933"/>
      <path id="Path_94" data-name="Path 94" d="M82.247,339.48A10.344,10.344,0,0,0,71.94,349.787v11.705l22-22.012Z" transform="translate(-19.96 -8.712)" fill="#7fc8fd" opacity="0.59"/>
      <path id="Path_95" data-name="Path 95" d="M112.512,339.48h-10.5L71.94,369.56v4.083a10.332,10.332,0,0,0,6.818,9.676L119.676,342.4a10.332,10.332,0,0,0-7.164-2.92Z" transform="translate(-19.96 -8.712)" fill="#7fc8fd" opacity="0.59"/>
      <path id="Path_96" data-name="Path 96" d="M121.511,349.234a10.307,10.307,0,0,0-3.143-7.424L77.45,382.766a10.208,10.208,0,0,0,3.489.631h13.4l27.221-27.221Z" transform="translate(-18.652 -8.159)" fill="#f0f8ff" opacity="0.59"/>
      <path id="Path_97" data-name="Path 97" d="M91.1,380.632h16.865a10.344,10.344,0,0,0,10.307-10.307V353.46Z" transform="translate(-15.412 -5.394)" fill="#7fc8fd" opacity="0.59"/>
      <path id="Path_98" data-name="Path 98" d="M93.94,339.49l-22,22v8.067l30.067-30.067Z" transform="translate(-19.96 -8.709)" fill="#f0f8ff" opacity="0.59"/>
      <path id="Path_99" data-name="Path 99" d="M144.277,339.48a10.344,10.344,0,0,0-10.307,10.307v12.262l22.569-22.569Z" transform="translate(-5.238 -8.712)" fill="#7fc8fd" opacity="0.59"/>
      <path id="Path_100" data-name="Path 100" d="M156.539,339.49,133.97,362.047v6.112l28.681-28.669Z" transform="translate(-5.238 -8.709)" fill="#f0f8ff" opacity="0.59"/>
      <path id="Path_101" data-name="Path 101" d="M174.535,339.48H162.644L134,368.161v5.481a10.344,10.344,0,0,0,6.187,9.441L181.266,342A10.27,10.27,0,0,0,174.535,339.48Z" transform="translate(-5.231 -8.712)" fill="#7fc8fd" opacity="0.59"/>
      <path id="Path_102" data-name="Path 102" d="M183.655,349.3a10.294,10.294,0,0,0-3.588-7.783L139,382.6a10.121,10.121,0,0,0,4.1.866h10.629l29.943-29.956Z" transform="translate(-4.044 -8.227)" fill="#f0f8ff" opacity="0.59"/>
      <path id="Path_103" data-name="Path 103" d="M150.89,381.166h19.636a10.344,10.344,0,0,0,10.307-10.307V351.21Z" transform="translate(-1.222 -5.928)" fill="#7fc8fd" opacity="0.59"/>
      <rect id="Rectangle_9" data-name="Rectangle 9" width="50.879" height="44.457" rx="8.33" transform="translate(51.98 330.768)" fill="none" stroke="#174859" stroke-width="5.55"/>
      <rect id="Rectangle_10" data-name="Rectangle 10" width="50.879" height="44.457" rx="8.33" transform="translate(128.732 330.768)" fill="none" stroke="#174859" stroke-width="5.55"/>
      <path id="Path_104" data-name="Path 104" d="M113.06,356.566s13.722-14.848,25.873,0" transform="translate(-10.2 -6.223)" fill="none" stroke="#174859" stroke-width="5.55"/>
      <path id="Path_105" data-name="Path 105" d="M324.6,326.751a26.182,26.182,0,0,0,13.475,5.32,6.558,6.558,0,0,0,6.756-4.1l2.66-6.644a26.071,26.071,0,0,1-22.272-8.921l-2.685,6.694a6.545,6.545,0,0,0,2.066,7.647Z" transform="translate(39.4 -15.136)" fill="#ff5d7b"/>
      <rect id="Rectangle_11" data-name="Rectangle 11" width="97.7" height="9.008" transform="translate(371.691 297.249) rotate(-68.18)" fill="#f4b031"/>
      <rect id="Rectangle_12" data-name="Rectangle 12" width="97.7" height="8.426" transform="translate(380.056 300.588) rotate(-68.18)" fill="#e8a423"/>
      <rect id="Rectangle_13" data-name="Rectangle 13" width="97.7" height="6.545" transform="translate(365.614 294.805) rotate(-68.18)" fill="#f4c43e"/>
      <path id="Path_106" data-name="Path 106" d="M354.78,240.022,373.7,225.05l3.341,23.893S365.137,251.69,354.78,240.022Z" transform="translate(47.168 -35.87)" fill="#facfc9"/>
      <path id="Path_107" data-name="Path 107" d="M364.34,230.655a24.487,24.487,0,0,0,8.364,3.489l-1.237-9.094Z" transform="translate(49.437 -35.87)" fill="#174859"/>
      <path id="Path_108" data-name="Path 108" d="M323.64,316.967a26.083,26.083,0,0,0,22.272,8.921l4.306-10.777a26.071,26.071,0,0,1-22.272-8.921Z" transform="translate(39.777 -16.612)" fill="#174859"/>
      <path id="Path_109" data-name="Path 109" d="M330.346,339a26.1,26.1,0,0,0,11.643,8.661,6.57,6.57,0,0,0,7.585-2.215l4.294-5.692a26.071,26.071,0,0,1-19.2-14.378l-4.318,5.716A6.521,6.521,0,0,0,330.346,339Z" transform="translate(41.052 -12.058)" fill="#ff5d7b"/>
      <rect id="Rectangle_14" data-name="Rectangle 14" width="97.7" height="9.008" transform="translate(382.515 315.121) rotate(-53.2)" fill="#f4b031"/>
      <rect id="Rectangle_15" data-name="Rectangle 15" width="97.7" height="8.426" transform="translate(389.736 320.513) rotate(-53.2)" fill="#e8a423"/>
      <rect id="Rectangle_16" data-name="Rectangle 16" width="97.7" height="6.545" transform="translate(377.268 311.197) rotate(-53.2)" fill="#f4c43e"/>
      <path id="Path_110" data-name="Path 110" d="M382.14,262.3l22.148-9.577-2.932,23.942S389.143,276.242,382.14,262.3Z" transform="translate(53.661 -29.303)" fill="#facfc9"/>
      <path id="Path_111" data-name="Path 111" d="M393.34,256.308a24.263,24.263,0,0,0,7.176,5.531l1.114-9.119Z" transform="translate(56.319 -29.303)" fill="#174859"/>
      <path id="Path_112" data-name="Path 112" d="M332,329.3a26.107,26.107,0,0,0,19.2,14.378l6.954-9.292A26.133,26.133,0,0,1,338.917,320Z" transform="translate(41.761 -13.335)" fill="#174859"/>
      <path id="Path_113" data-name="Path 113" d="M445.6,340.505l-7.511,27.964a4.949,4.949,0,0,1-5.964,3.44h0a4.949,4.949,0,0,1-3.427-5.964l7.523-27.964a4.875,4.875,0,0,1,5.952-3.44h0a4.875,4.875,0,0,1,3.427,5.964Z" transform="translate(64.675 -9.922)" fill="#aab9d8"/>
      <path id="Path_114" data-name="Path 114" d="M382.791,295.164a44.989,44.989,0,1,0,10.01,82.9,23.51,23.51,0,0,1,17.4-2.314l5.333,1.435a18.374,18.374,0,0,0,22.52-12.98l3.836-14.279a18.387,18.387,0,0,0-12.98-22.433l-5.333-1.435a23.312,23.312,0,0,1-13.908-10.579,44.866,44.866,0,0,0-26.875-20.317Z" transform="translate(40.377 -19.593)" fill="#b4d3f7"/>
      <path id="Path_115" data-name="Path 115" d="M364.835,294.081a39.854,39.854,0,0,1,33.606,19.29,20.614,20.614,0,0,0,12.287,9.354l4.727,1.237a16.259,16.259,0,0,1,11.47,19.909l-3.353,12.6a16.234,16.234,0,0,1-19.9,11.47l-4.714-1.237a20.713,20.713,0,0,0-15.38,1.955,39.669,39.669,0,0,1-56.831-22.272,44.928,44.928,0,0,0,65.888,31.626,23.509,23.509,0,0,1,17.422-2.264l5.333,1.435a18.374,18.374,0,0,0,22.52-12.98l3.836-14.279a18.387,18.387,0,0,0-12.98-22.433l-5.333-1.435a23.312,23.312,0,0,1-13.908-10.579,44.989,44.989,0,0,0-44.693-21.394Z" transform="translate(40.515 -19.586)" fill="#99c5f7"/>
      <path id="Path_116" data-name="Path 116" d="M423.664,359.42l-52.636-14.143s6.471.173,5.135-5.184-14.625-.854-7.535,1.237,15.157-7.968,7.56-13.14-12.311,6.694-1.237,4.368,2.3-10.468,2.3-10.468l52.636,14.143" transform="translate(49.963 -12.839)" fill="none" stroke="#c1deff" stroke-linejoin="round" stroke-width="1.43"/>
      <path id="Path_117" data-name="Path 117" d="M431.814,333.853l-9.379,34.918a6.088,6.088,0,0,1-7.424,4.281h0a6.075,6.075,0,0,1-4.281-7.424l9.391-34.918a6.075,6.075,0,0,1,7.424-4.281h0a6.075,6.075,0,0,1,4.269,7.424Z" transform="translate(60.398 -11.858)" fill="#e0eff2"/>
      <path id="Path_118" data-name="Path 118" d="M435.651,334.9,426.285,369.8a6.075,6.075,0,0,1-7.424,4.281h0a6.075,6.075,0,0,1-4.281-7.424l9.379-34.918a6.088,6.088,0,0,1,7.424-4.281h0A6.088,6.088,0,0,1,435.651,334.9Z" transform="translate(61.311 -11.613)" fill="#e0eff2"/>
      <path id="Path_119" data-name="Path 119" d="M439.493,335.925l-9.379,34.905a6.088,6.088,0,0,1-7.424,4.281h0a6.075,6.075,0,0,1-4.281-7.424l9.379-34.918a6.088,6.088,0,0,1,7.424-4.281h0A6.088,6.088,0,0,1,439.493,335.925Z" transform="translate(62.22 -11.368)" fill="#e0eff2"/>
      <path id="Path_120" data-name="Path 120" d="M443.335,336.943l-9.391,34.905a6.075,6.075,0,0,1-7.424,4.294h0a6.088,6.088,0,0,1-4.281-7.424l9.379-34.856a6.088,6.088,0,0,1,7.424-4.294h0a6.088,6.088,0,0,1,4.294,7.375Z" transform="translate(63.13 -11.112)" fill="#e0eff2"/>
      <path id="Path_121" data-name="Path 121" d="M428.519,331.811l-10.134,37.664a6.546,6.546,0,0,1-8.018,4.615h0a6.57,6.57,0,0,1-4.615-8.018l10.121-37.664a6.558,6.558,0,0,1,8.018-4.615h0A6.57,6.57,0,0,1,428.519,331.811Z" transform="translate(59.213 -12.488)" fill="#aab9d8"/>
      <path id="Path_122" data-name="Path 122" d="M358.232,315.277h0a7.8,7.8,0,0,1-9.515,5.494l-3.873-1.039a7.8,7.8,0,0,1-5.494-9.527h0a7.808,7.808,0,0,1,9.527-5.494l3.873,1.039a7.8,7.8,0,0,1,5.481,9.527Z" transform="translate(43.443 -17.026)" fill="#c1deff"/>
      <path id="Path_123" data-name="Path 123" d="M369.029,316.344h0a5.9,5.9,0,0,1-7.214,4.157h0a5.9,5.9,0,0,1-4.157-7.214h0a5.914,5.914,0,0,1,7.214-4.17h0a5.914,5.914,0,0,1,4.157,7.226Z" transform="translate(47.803 -15.964)" fill="#c1deff"/>
      <path id="Path_124" data-name="Path 124" d="M467.233,337.358l-4.85,18.065a4.949,4.949,0,0,1-5.964,3.44l-.173-.074a6.088,6.088,0,0,1-6.979,3.118,5.964,5.964,0,0,0-4.751-1.237,6.186,6.186,0,0,1-2.24-1.151,17.916,17.916,0,0,0-7.263-1.411h0a6.035,6.035,0,0,1-.792-.285,6.508,6.508,0,0,1-9.391-3.217,17.706,17.706,0,0,1-9.3,0l-5.333-1.435c-.742-.186-1.472-.346-2.215-.47a23.422,23.422,0,0,0-13.153,1.7,22.044,22.044,0,0,0-2.029,1,45.1,45.1,0,0,1-10.01,4.034c-1.4.384-2.821.693-4.256.94a45.152,45.152,0,0,1-8.8.594,34.348,34.348,0,0,1-4.479-.371,45.306,45.306,0,0,1-6.756-1.423c-.928-.272-1.844-.582-2.747-.916l-.693-.247c-.854-.334-1.7-.668-2.475-1.052h-.136c-.866-.4-1.708-.829-2.537-1.237l-.594-.334c-.78-.433-1.534-.878-2.277-1.349l-.161-.1c-.8-.52-1.571-1.064-2.326-1.621l-.47-.359c-.705-.532-1.4-1.089-2.066-1.658l-.148-.124c-.718-.619-1.423-1.237-2.1-1.943l-.322-.334c-.656-.643-1.237-1.312-1.881-1.992l-.087-.087c-.643-.742-1.237-1.5-1.868-2.277l-.173-.247q-.866-1.138-1.67-2.339h0c-.557-.841-1.089-1.7-1.584-2.574l-.074-.124a45.347,45.347,0,0,1-5.222-14.5,44.779,44.779,0,0,0,5.221,30.067l.074.124c.495.878,1.027,1.732,1.584,2.574h0c.532.8,1.089,1.571,1.67,2.339l.173.247c.606.78,1.237,1.534,1.868,2.277l.087.087c.594.681,1.237,1.349,1.881,1.992l.322.334c.681.668,1.386,1.324,2.1,1.943l.148.124c.668.569,1.361,1.126,2.066,1.658l.47.359c.755.557,1.522,1.1,2.326,1.621l.161.1c.742.47,1.5.916,2.277,1.349l.594.322a22.837,22.837,0,0,0,2.537,1.237h.136c.817.371,1.658.718,2.475,1.052l.693.247c.9.334,1.819.643,2.747.916a45.322,45.322,0,0,0,6.756,1.423c1.5.2,2.994.322,4.479.371a45.149,45.149,0,0,0,8.8-.606,41.39,41.39,0,0,0,4.256-.928,44.54,44.54,0,0,0,10.01-4.046c.668-.359,1.336-.693,2.029-.99a23.423,23.423,0,0,1,13.153-1.7c.742.124,1.472.272,2.215.47l5.333,1.435a18.2,18.2,0,0,0,5.494.619,17.833,17.833,0,0,0,3.811-.569,6.508,6.508,0,0,0,9.391,3.217,6.034,6.034,0,0,0,.792.285h0a5.989,5.989,0,0,0,2.475.124,5.852,5.852,0,0,0,2.24,1.151,6.088,6.088,0,0,1,4.751,1.237,5.977,5.977,0,0,0,2.475.136,6.185,6.185,0,0,0,2.24,1.151,6.087,6.087,0,0,0,6.979-3.118l.173.074a4.949,4.949,0,0,0,5.964-3.44l7.511-27.964A4.875,4.875,0,0,0,467.233,337.358Z" transform="translate(40.383 -12.442)" fill="#e0eff2"/>
      <path id="Path_125" data-name="Path 125" d="M217.425,326.177s3.2-4.269,14.972-5.345,100.471,0,100.471,0a15.689,15.689,0,0,1,8.55,5.345c3.2,4.281,33.136,42.762,33.136,42.762s4.269,5.333,0,8.55-176.369,0-176.369,0-9.614,1.064-5.345-6.422S217.425,326.177,217.425,326.177Z" transform="translate(8.475 -13.251)" fill="#164454"/>
      <rect id="Rectangle_17" data-name="Rectangle 17" width="168.884" height="22.445" transform="translate(206.659 335.371)" fill="#fff"/>
      <path id="Path_126" data-name="Path 126" d="M217.425,306.307s3.2-4.269,14.972-5.345,100.471,0,100.471,0a15.689,15.689,0,0,1,8.55,5.345c3.2,4.281,33.136,42.762,33.136,42.762s4.269,5.345,0,8.55-176.369,0-176.369,0-9.614,1.064-5.345-6.422S217.425,306.307,217.425,306.307Z" transform="translate(8.475 -17.967)" fill="#164454"/>
      <rect id="Rectangle_18" data-name="Rectangle 18" width="168.884" height="1.064" transform="translate(206.659 342.857)" fill="#dfecf0"/>
      <rect id="Rectangle_19" data-name="Rectangle 19" width="168.884" height="1.064" transform="translate(206.659 346.062)" fill="#dfecf0"/>
      <rect id="Rectangle_20" data-name="Rectangle 20" width="168.884" height="1.064" transform="translate(206.659 349.267)" fill="#dfecf0"/>
      <rect id="Rectangle_21" data-name="Rectangle 21" width="168.884" height="1.064" transform="translate(206.659 352.471)" fill="#dfecf0"/>
      <rect id="Rectangle_22" data-name="Rectangle 22" width="168.884" height="1.064" transform="translate(206.659 355.688)" fill="#dfecf0"/>
      <path id="Path_127" data-name="Path 127" d="M217.574,302.193s2.982-3.972,13.908-4.949,93.357,0,93.357,0a14.539,14.539,0,0,1,7.944,4.949c2.97,3.972,30.785,39.731,30.785,39.731s3.972,4.949,0,7.944-163.86,0-163.86,0-8.946.99-4.949-5.964S217.574,302.193,217.574,302.193Z" transform="translate(8.945 -18.839)" fill="#66a1ed"/>
      <rect id="Rectangle_23" data-name="Rectangle 23" width="156.906" height="20.849" transform="translate(208.676 304.215)" fill="#fff"/>
      <path id="Path_128" data-name="Path 128" d="M217.574,283.733s2.982-3.972,13.908-4.949,93.357,0,93.357,0a14.539,14.539,0,0,1,7.944,4.949c2.97,3.972,30.785,39.731,30.785,39.731s3.972,4.949,0,7.944-163.86,0-163.86,0-8.946.99-4.949-5.964S217.574,283.733,217.574,283.733Z" transform="translate(8.945 -23.22)" fill="#8cbdf7"/>
      <rect id="Rectangle_24" data-name="Rectangle 24" width="156.906" height="0.99" transform="translate(208.676 311.169)" fill="#dfecf0"/>
      <rect id="Rectangle_25" data-name="Rectangle 25" width="156.906" height="0.99" transform="translate(208.676 314.139)" fill="#dfecf0"/>
      <rect id="Rectangle_26" data-name="Rectangle 26" width="156.906" height="0.99" transform="translate(208.676 317.121)" fill="#dfecf0"/>
      <rect id="Rectangle_27" data-name="Rectangle 27" width="156.906" height="0.99" transform="translate(208.676 320.103)" fill="#dfecf0"/>
      <rect id="Rectangle_28" data-name="Rectangle 28" width="156.906" height="0.99" transform="translate(208.676 323.085)" fill="#dfecf0"/>
      <path id="Path_129" data-name="Path 129" d="M308.155,385a32.567,32.567,0,0,0-.421-18.1,8.191,8.191,0,0,0-7.993-5.754l-8.921.186a32.554,32.554,0,0,1,.631,29.906l8.983-.2A8.129,8.129,0,0,0,308.155,385Z" transform="translate(31.988 -3.571)" fill="#ff5d7b"/>
      <rect id="Rectangle_29" data-name="Rectangle 29" width="121.791" height="11.235" transform="translate(198.001 370.931) rotate(-1.22)" fill="#f4b031"/>
      <rect id="Rectangle_30" data-name="Rectangle 30" width="121.791" height="10.517" transform="translate(197.778 360.421) rotate(-1.22)" fill="#e8a423"/>
      <rect id="Rectangle_31" data-name="Rectangle 31" width="121.791" height="8.154" transform="translate(198.253 382.159) rotate(-1.22)" fill="#f4c43e"/>
      <path id="Path_130" data-name="Path 130" d="M195.357,393.339,168.94,378.974l25.774-15.5S203.66,375.757,195.357,393.339Z" transform="translate(3.062 -3.018)" fill="#facfc9"/>
      <path id="Path_131" data-name="Path 131" d="M178.839,382.5a30.586,30.586,0,0,0-.074-11.3l-9.824,5.939Z" transform="translate(3.062 -1.183)" fill="#174859"/>
      <path id="Path_132" data-name="Path 132" d="M297.578,391.114a32.542,32.542,0,0,0-.643-29.894l-14.464.309a32.53,32.53,0,0,1,.631,29.894Z" transform="translate(30.006 -3.552)" fill="#174859"/>
      <ellipse id="Ellipse_2" data-name="Ellipse 2" cx="55.334" cy="17.397" rx="55.334" ry="17.397" transform="translate(231.827 260.278)" fill="#0f2f3b"/>
      <ellipse id="Ellipse_3" data-name="Ellipse 3" cx="55.334" cy="14.687" rx="55.334" ry="14.687" transform="translate(231.827 232.834)" fill="#dfecf0"/>
      <rect id="Rectangle_32" data-name="Rectangle 32" width="110.667" height="30.154" transform="translate(231.827 247.521)" fill="#0f2f3b"/>
      <path id="Path_133" data-name="Path 133" d="M286.046,249.255S178.324,276.674,179.3,276.674s97.935,33.3,102.835,34.274,96.945-28.4,100.867-30.364S289.968,248.265,286.046,249.255Z" transform="translate(5.519 -30.131)" fill="#143e4d"/>
      <path id="Path_134" data-name="Path 134" d="M383,275.885v-2.932L179.3,269.03v2.945Z" transform="translate(5.52 -25.432)" fill="#143e4d"/>
      <path id="Path_135" data-name="Path 135" d="M286.046,246.874S178.324,274.257,179.3,274.257s97.935,33.3,102.835,34.286S379.081,280.084,383,278.179,289.968,245.9,286.046,246.874Z" transform="translate(5.519 -30.695)" fill="#174859"/>
      <path id="Path_136" data-name="Path 136" d="M282.29,269.388v4.306l-98.789-.817s-2.772.421-3.811,4.318.693,22.124.693,22.124-3.056,3.811-4.85-1.472,0-24.969,0-24.969,1.126-3.972,6.286-3.489S282.29,269.388,282.29,269.388Z" transform="translate(4.437 -25.356)" fill="#0f2f3b"/>
      <path id="Path_137" data-name="Path 137" d="M175.84,294.848s-4.454,3.5-2.264,8.661l2.19,5.123.074-1.559,2.648,2.66.866-2.66,1.163,3.489s7.832-8.575-.408-16.382C180.109,294.143,177.511,292.918,175.84,294.848Z" transform="translate(4.018 -19.562)" fill="#0f2f3b"/>
      <path id="Path_138" data-name="Path 138" d="M272.2,271.381c0,1.3-3.192,2.351-7.139,2.351S258,272.7,258,271.381s3.192-2.351,7.127-2.351S272.2,270.082,272.2,271.381Z" transform="translate(24.199 -25.432)" fill="#f4c43e"/>
      <path id="Path_139" data-name="Path 139" d="M180.446,294.618a2.846,2.846,0,1,1-.834-2.025,2.858,2.858,0,0,1,.834,2.025Z" transform="translate(4.436 -20.037)" fill="#f4c43e"/>
      <path id="Path_140" data-name="Path 140" d="M253.759,169.562s.322,2.537-2.883,5.778-4.4,15.727,10.8,11.136S265.006,165.528,253.759,169.562Z" transform="translate(22.031 -49.189)" fill="#cf2949"/>
      <path id="Path_141" data-name="Path 141" d="M253.269,183.752s6.657-2.673,12.448-1.571c0,0,2.475,7.857-1.324,10.53S251.6,191.919,253.269,183.752Z" transform="translate(23.027 -46.107)" fill="#66a1ed"/>
      <path id="Path_142" data-name="Path 142" d="M219.98,123.715l-10.95,2.673A1.906,1.906,0,0,1,206.74,125h0a1.905,1.905,0,0,1,1.386-2.289l10.963-2.673a1.905,1.905,0,0,1,2.289,1.4h0a1.893,1.893,0,0,1-1.4,2.277Z" transform="translate(12.02 -60.804)" fill="#aab9d8"/>
      <path id="Path_143" data-name="Path 143" d="M226.051,93.163a17.508,17.508,0,1,0-26.4,18.919,9.144,9.144,0,0,1,4.009,5.531l.507,2.091a7.152,7.152,0,0,0,8.661,5.246l5.593-1.361a7.152,7.152,0,0,0,5.259-8.661l-.507-2.091a9.082,9.082,0,0,1,1-6.731A17.409,17.409,0,0,0,226.051,93.163Z" transform="translate(8.423 -70.342)" fill="#ffd96e"/>
      <path id="Path_144" data-name="Path 144" d="M223.107,86.12a15.565,15.565,0,0,1,1.373,3.625,15.38,15.38,0,0,1-1.67,11.458,8.005,8.005,0,0,0-.891,5.952l.445,1.844a6.323,6.323,0,0,1-4.64,7.647l-4.949,1.237a6.323,6.323,0,0,1-7.647-4.652l-.445-1.844a8.055,8.055,0,0,0-3.539-4.863,15.454,15.454,0,0,1-3.031-23.584,17.607,17.607,0,0,0-6.187,17.446,17.421,17.421,0,0,0,7.709,11,9.144,9.144,0,0,1,4.009,5.531l.507,2.091a7.152,7.152,0,0,0,8.661,5.246l5.593-1.361a7.152,7.152,0,0,0,5.259-8.661l-.507-2.091a9.082,9.082,0,0,1,1-6.731,17.545,17.545,0,0,0-1.052-19.265Z" transform="translate(8.423 -69.597)" fill="#f4c43e"/>
      <path id="Path_145" data-name="Path 145" d="M208.434,119.953,203.41,99.339s1.151,2.24,2.735.78-2.475-5.147-1.844-2.339,5.556,3.712,5.9.124-4.591-2.945-1.72.4,4.009-1.237,4.009-1.237l5.024,20.614" transform="translate(11.243 -66.619)" fill="none" stroke="#fff8e6" stroke-linejoin="round" stroke-width="0.56"/>
      <path id="Path_146" data-name="Path 146" d="M220.242,117.563l-13.611,3.328a2.376,2.376,0,0,1-2.858-1.732h0a2.351,2.351,0,0,1,1.732-2.846l13.611-3.341a2.388,2.388,0,0,1,2.858,1.745h0A2.363,2.363,0,0,1,220.242,117.563Z" transform="translate(11.313 -62.484)" fill="#e0eff2"/>
      <path id="Path_147" data-name="Path 147" d="M220.611,119.061,206.938,122.4a2.363,2.363,0,0,1-2.846-1.745h0a2.363,2.363,0,0,1,1.732-2.846l13.673-3.328a2.376,2.376,0,0,1,2.858,1.732h0A2.363,2.363,0,0,1,220.611,119.061Z" transform="translate(11.389 -62.127)" fill="#e0eff2"/>
      <path id="Path_148" data-name="Path 148" d="M220.983,120.566l-13.673,3.328a2.376,2.376,0,0,1-2.858-1.732h0a2.376,2.376,0,0,1,1.732-2.858l13.685-3.291a2.363,2.363,0,0,1,2.846,1.732h0a2.376,2.376,0,0,1-1.732,2.821Z" transform="translate(11.474 -61.763)" fill="#e0eff2"/>
      <path id="Path_149" data-name="Path 149" d="M221.354,122.073,207.669,125.4a2.363,2.363,0,0,1-2.846-1.732h0a2.351,2.351,0,0,1,1.732-2.846l13.611-3.341a2.388,2.388,0,0,1,2.858,1.745h0A2.363,2.363,0,0,1,221.354,122.073Z" transform="translate(11.562 -61.414)" fill="#e0eff2"/>
      <path id="Path_150" data-name="Path 150" d="M220.564,115.963l-14.749,3.588a2.561,2.561,0,0,1-3.081-1.868h0A2.561,2.561,0,0,1,204.6,114.6l14.749-3.588a2.561,2.561,0,0,1,3.081,1.868h0A2.561,2.561,0,0,1,220.564,115.963Z" transform="translate(11.065 -62.951)" fill="#aab9d8"/>
      <path id="Path_151" data-name="Path 151" d="M210.7,89.545h0a3.031,3.031,0,0,1-3.613-2.227l-.371-1.51a3.044,3.044,0,0,1,2.227-3.712h0a3.019,3.019,0,0,1,3.65,2.227l.371,1.522a3.031,3.031,0,0,1-2.264,3.7Z" transform="translate(12.005 -69.818)" fill="#ffe69e"/>
      <path id="Path_152" data-name="Path 152" d="M212.174,93.467h0a2.289,2.289,0,0,1-2.772-1.683h0a2.3,2.3,0,0,1,1.683-2.772h0a2.3,2.3,0,0,1,2.784,1.683h0a2.289,2.289,0,0,1-1.7,2.772Z" transform="translate(12.649 -68.172)" fill="#ffe69e"/>
      <path id="Path_153" data-name="Path 153" d="M225,131.015l-7.078,1.732a1.893,1.893,0,0,1-2.277-1.4.161.161,0,0,1,0-.074,2.339,2.339,0,0,1-2.4-2.772,2.276,2.276,0,0,1-.421-.891,2.178,2.178,0,0,1,0-.978,2.339,2.339,0,0,1-.433-.879,2.376,2.376,0,0,1,0-.977,2.537,2.537,0,0,1-.433-.879h0a3.1,3.1,0,0,1,0-.334,2.475,2.475,0,0,1-.656-3.8,7.882,7.882,0,0,1-.916-1.237,7.672,7.672,0,0,1-.817-1.992l-.507-2.091a6.571,6.571,0,0,0-.247-.841,9.045,9.045,0,0,0-3.106-4.071,7.425,7.425,0,0,0-.718-.507,17.68,17.68,0,0,1-3.254-2.66c-.384-.408-.755-.829-1.114-1.237a17.15,17.15,0,0,1-1.893-3.019,15.341,15.341,0,0,1-.718-1.6,17.709,17.709,0,0,1-.78-2.574c-.087-.371-.148-.742-.2-1.114a1.943,1.943,0,0,1,0-.285c0-.346-.087-.705-.111-1.052h0v-2.4a.161.161,0,0,1,0-.074,3.666,3.666,0,0,1,.111-1.1v-.223a5.938,5.938,0,0,1,.173-1.027c.087-.371.173-.73.272-1.089a.917.917,0,0,0,0-.173c.111-.334.21-.681.334-1.015h0c.136-.359.272-.718.433-1.064a.444.444,0,0,1,0-.111c.148-.346.309-.681.483-1.015h0c.173-.346.371-.681.582-1.015h0a17.9,17.9,0,0,1,3.972-4.5A17.5,17.5,0,0,0,194,88.1h0c-.2.334-.4.681-.582,1.027h0c-.173.334-.334.668-.495,1a.446.446,0,0,1,0,.111c-.148.346-.3.705-.421,1.064h0c-.124.346-.235.681-.334,1.027V92.5c-.1.359-.2.73-.272,1.089v.074c-.074.334-.136.668-.186,1.015a1.357,1.357,0,0,0,0,.223c0,.371-.1.73-.124,1.1v2.326h0a7.791,7.791,0,0,0,.111,1.052v.285c.062.371.124.73.21,1.1a18.816,18.816,0,0,0,.767,2.574c.223.557.458,1.089.718,1.6a17.484,17.484,0,0,0,1.856,2.9,15.487,15.487,0,0,0,1.114,1.237,17.187,17.187,0,0,0,3.254,2.66c.247.161.483.334.718.507a9.206,9.206,0,0,1,3.044,4.17c.087.285.173.557.247.854l.507,2.091a7.026,7.026,0,0,0,.817,1.98,6.286,6.286,0,0,0,.916,1.237,2.561,2.561,0,0,0-.52,2.227,2.475,2.475,0,0,0,1.175,1.584,2.886,2.886,0,0,0,0,.322h0a2.338,2.338,0,0,0,.433.879,2.178,2.178,0,0,0,0,.977,2.277,2.277,0,0,0,.421.891,2.376,2.376,0,0,0,0,.978,2.339,2.339,0,0,0,.433.879,2.178,2.178,0,0,0,0,.977,2.376,2.376,0,0,0,2.363,1.807.16.16,0,0,1,0,.074,1.905,1.905,0,0,0,2.289,1.386l10.95-2.673A1.893,1.893,0,0,0,225,131.015Z" transform="translate(8.437 -70.133)" fill="#e0eff2"/>
      <path id="Path_154" data-name="Path 154" d="M258.217,251.055s-4.393,6.286-3.3,7.424,5.8-2.536,7.139-4.318-.186-4.281-.186-4.281Z" transform="translate(23.425 -29.977)" fill="#ff5d7b"/>
      <path id="Path_155" data-name="Path 155" d="M255.47,224.372s1.237,15.813,1.72,17.743.346,14.984,1.027,16.531,3.786-.854,3.786-1.881S263.9,247,264.07,244.838s2.574-14.539,2.747-17.978S259.43,218.631,255.47,224.372Z" transform="translate(23.598 -36.664)" fill="#facfc9"/>
      <path id="Path_156" data-name="Path 156" d="M283.82,240.424s3.279,6.929,4.764,6.533.668-6.3-.21-8.34-3.811-1.967-3.811-1.967Z" transform="translate(30.327 -33.117)" fill="#ff5d7b"/>
      <path id="Path_157" data-name="Path 157" d="M276.032,218.725c0,5.679,0,9.329,1.819,14.576.866,2.475,10.567,7.139,12.448,9.367s-.235,3.217-3.007,2.648-11.322-4.751-14.4-6.929c-2.475-1.732-7.053-8.76-6.979-14.761S271.713,215.533,276.032,218.725Z" transform="translate(26.076 -37.724)" fill="#facfc9"/>
      <path id="Path_158" data-name="Path 158" d="M258.42,186.8s-11.544-2.475-13.041-4.355-8.34-10.827-10.53-10.678-2.833,1.373-2.809,2.821,9.181,12.559,10.084,13.512,13.116,8.661,14.786,8.08S260.932,187.373,258.42,186.8Z" transform="translate(18.037 -48.515)" fill="#174859"/>
      <path id="Path_159" data-name="Path 159" d="M279.236,206.117s-1.237,3.984.173,4.689,2.079-.074,2.079-.074,2.277,1.992,3.106.223-.161-5.692-3.341-6.335a2.066,2.066,0,0,0-2.017,1.5Z" transform="translate(29.12 -40.718)" fill="#facfc9"/>
      <path id="Path_160" data-name="Path 160" d="M263.624,191.965s10.765,4.838,11.841,7.028,5.84,12.373,8.018,12.658,3.069-.742,3.353-2.165-6.323-14.217-7-15.331-10.988-11.136-12.745-11.025S261.31,190.888,263.624,191.965Z" transform="translate(25.367 -45.819)" fill="#174859"/>
      <path id="Path_161" data-name="Path 161" d="M250.49,186.52s.742,15.021,3.192,17.941c0,0,.965,2.178.977,7.808s-2.932,15.133.359,24.747c0,0,28.31,2.19,28.459-7.869.074-6.459-4.244-14.848-8.1-19.587-3.3-4.021-1.608-5.469-2.685-10.406v-.074c-.557-2.611-1.027-13.685-1.905-15.108s-4.393-1.831-4.393-1.831-2.6,8.228-5.209,8.1-7.238-6.533-7.238-6.533S251.121,184.268,250.49,186.52Z" transform="translate(22.416 -46.054)" fill="#174859"/>
      <path id="Path_162" data-name="Path 162" d="M235.143,173.269s1.559-4.541,0-5.42-2.4,0-2.4,0-2.475-2.4-3.564-.4-.074,6.57,3.564,7.424a2.388,2.388,0,0,0,2.4-1.609Z" transform="translate(17.26 -49.729)" fill="#facfc9"/>
      <path id="Path_163" data-name="Path 163" d="M258.573,187.013v-2.475s-5.147-.2-5.457-3.935,0-1.881,0-1.881-1.807-.643-1.807-1.237,2.252-2.549,2.252-2.549,1.163-7.424,7.016-7.783,8.253,4.628,8.055,8.661-3.13,7.758-4.331,7.956-.408,3.229-.408,3.229S260.281,189.722,258.573,187.013Z" transform="translate(22.611 -49.615)" fill="#facfc9"/>
      <path id="Path_164" data-name="Path 164" d="M259.349,164.714s-8.81,1.547-6.706,5.345,8.253,4.071,8.253,4.071.173,3.526,2.351,4.5a11.52,11.52,0,0,1-2.351,10.691c-4.318,5.481,8.8,7.721,11.235-4.788s-2.066-16.89-6-17.793-4.776,0-4.776,0S260.5,164.454,259.349,164.714Z" transform="translate(22.85 -50.194)" fill="#ff5d7b"/>
      <path id="Path_165" data-name="Path 165" d="M211.33,124.44s3.6,45.67,24.747,55.519,24.994,24.648,12.274,31.49" transform="translate(13.122 -59.748)" fill="none" stroke="#174859" stroke-width="0.82"/>
      <path id="Path_166" data-name="Path 166" d="M205.244,243.455a5.444,5.444,0,0,0-1.559,3.13c-.557,3.712-2.215,14.2-3.118,14.378-1.1.186-13.957,5.89-13.957,6.187s.309,3.4,5.1,2.376,13.512-4.5,14.167-5.358,3.366-13.957,2.9-16.679C208.375,245.225,207.533,241.228,205.244,243.455Z" transform="translate(7.255 -31.657)" fill="#cc3853"/>
      <path id="Path_167" data-name="Path 167" d="M185.555,282.99s-.829,4.43-1.7,5.085a2.326,2.326,0,0,1-3.229-1.782c-.087-1.646,1.658-6.694,1.658-6.694S184.8,279.588,185.555,282.99Z" transform="translate(5.836 -22.923)" fill="#facfc9"/>
      <path id="Path_168" data-name="Path 168" d="M209.447,262.978s-22.854-1.237-24.833,1.819-1.732,6.187,7.078,5.914,18.436,1.237,19.6-1.955S209.447,262.978,209.447,262.978Z" transform="translate(6.542 -26.927)" fill="#5384c2"/>
      <path id="Path_169" data-name="Path 169" d="M187.044,264.226s-1.522-.532-2.475,2.821-4.677,19.438-4.355,19.8,4.281,2.314,6.88,1.967c0,0,3.415-14.959,3.984-17.508S190.471,263.78,187.044,264.226Z" transform="translate(5.733 -26.579)" fill="#5384c2"/>
      <path id="Path_170" data-name="Path 170" d="M187.066,286.15a6.744,6.744,0,0,1-2.042,4.949c-2.277,2.3-13.029-4.454-13.462-7.919s10.913.544,10.913.544a5.444,5.444,0,0,0,4.59,2.425Z" transform="translate(3.681 -22.408)" fill="#ff5d7b"/>
      <path id="Path_171" data-name="Path 171" d="M179.309,284.931c-3.922-3.229-6.979-2.945-7.214-2.9a1,1,0,0,0-.532,1.089c.408,3.217,9.688,9.255,12.844,8.278C186.053,290.053,183.244,288.185,179.309,284.931Z" transform="translate(3.68 -22.352)" fill="#e03d5b"/>
      <path id="Path_172" data-name="Path 172" d="M210.445,240.323a7.424,7.424,0,0,1,9.4,6.471c.841,8.364,1.373,22.495-3.885,27.159A20.466,20.466,0,0,1,199,278.582s3.5-28.929,3.328-33.408C202.229,243.911,205.063,241.808,210.445,240.323Z" transform="translate(10.196 -32.311)" fill="#ff5d7b"/>
      <path id="Path_173" data-name="Path 173" d="M194.045,286.73s-.829,4.43-1.7,5.085a2.326,2.326,0,0,1-3.229-1.769c-.087-1.658,1.658-6.706,1.658-6.706S193.315,283.34,194.045,286.73Z" transform="translate(7.85 -22.035)" fill="#facfc9"/>
      <path id="Path_174" data-name="Path 174" d="M217.855,266.751s.718,8.661-8.463,8.315-17.075.161-17.075-1.658-1.844-6.187,7.894-7.35A55.025,55.025,0,0,1,217.855,266.751Z" transform="translate(8.577 -26.234)" fill="#66a1ed"/>
      <path id="Path_175" data-name="Path 175" d="M195.534,267.186s-1.522-.532-2.475,2.833-4.677,19.426-4.355,19.8,4.281,2.326,6.88,1.967c0,0,3.415-14.947,3.984-17.508S198.974,266.74,195.534,267.186Z" transform="translate(7.748 -25.877)" fill="#66a1ed"/>
      <path id="Path_176" data-name="Path 176" d="M195.676,290.02a6.744,6.744,0,0,1-2.042,4.949c-2.277,2.3-13.029-4.454-13.462-7.919s10.913.544,10.913.544a5.42,5.42,0,0,0,4.591,2.425Z" transform="translate(5.725 -21.49)" fill="#ff5d7b"/>
      <path id="Path_177" data-name="Path 177" d="M187.919,288.8c-3.922-3.229-6.979-2.945-7.214-2.9a1,1,0,0,0-.532,1.089c.408,3.217,9.688,9.255,12.844,8.278C194.663,293.923,191.854,292.043,187.919,288.8Z" transform="translate(5.723 -21.433)" fill="#e03d5b"/>
      <path id="Path_178" data-name="Path 178" d="M207.846,247.277l-1.126-2.772s-5.976,2.153-8.043-1.955a17.818,17.818,0,0,1-2.153-6.731s-2.141-9.082,4.393-12.138,11.581,1.46,13.215,6.187,0,10.295-1.237,11.136,1.039,3.885,1.039,3.885S211.063,249.566,207.846,247.277Z" transform="translate(9.529 -36.431)" fill="#facfc9"/>
      <path id="Path_179" data-name="Path 179" d="M207.715,229.183s-7.486,4.5-11.916,2.9-4-6.385-1.955-7.659,2.722,0,2.722,0,2.475-1.806,3.056-.569c0,0,6.818-2.586,8.092-1.992l1.237.606s-1.621-1.448-.854-1.621,1.794,1.015,1.794,1.015,2.883-.161,2.636.433-1.324.829-1.324.829,4.009,1.893,4.5,8.018,0,7.325,0,7.325-.161,5.8-2.314,3.959.148-4.566.148-5.16.854-3.316-.247-4.331-2.091.841-2.091.841.977,2.722.557,2.982a1.571,1.571,0,0,1-1.868-1.027c-.173-.841-.26-2.636-.433-2.97s-1.7-1.027-1.868-1.448a7.8,7.8,0,0,1,.124-2.128Z" transform="translate(8.62 -36.872)" fill="#174859"/>
      <path id="Path_180" data-name="Path 180" d="M202.586,269.656l13.673-4.306-15.046-3.86-17.533,3.427Z" transform="translate(6.56 -27.221)" fill="#aab9d8"/>
      <path id="Path_181" data-name="Path 181" d="M215.643,243.2s-2.215,15.516-3.316,15.714S198.37,264.8,198.37,265.1s.309,3.4,5.1,2.376,13.512-4.5,14.167-5.358,3.366-13.957,2.9-16.679S215.878,241.65,215.643,243.2Z" transform="translate(10.046 -31.732)" fill="#e03d5b"/>
      <path id="Path_182" data-name="Path 182" d="M200.008,260.931s-4.294-.186-5.024,1.4.334,3.217,2.475,3.155,5.024-1.992,4.764-2.673a4.331,4.331,0,0,0-2.215-1.881Z" transform="translate(9.188 -27.355)" fill="#facfc9"/>
      <path id="Path_183" data-name="Path 183" d="M181.16,250.96l20.713,4.529,1.312,16.667-18.906-4.739Z" transform="translate(5.962 -29.72)" fill="#e0eff2"/>
      <path id="Path_184" data-name="Path 184" d="M72.782,318.126,70.171,320.4a33.848,33.848,0,0,0-5.184.483c-1.349.384-3.836,1.819-3.452,2.3,0,0-1.831,1.918-1.349,2.3,0,0,.3,1.336.965,1.336a1.794,1.794,0,0,0,1.819.767,7.61,7.61,0,0,1,3.477-1.435,23.219,23.219,0,0,1,2.376.1,5.877,5.877,0,0,0-2.883,1.373c-.668.928-.668,1.51-.285,1.7s2.017-1.151,3.366-1.151,3.786-1.633,3.712-3.069,2.945-3.551,3.712-4.7S74.18,316.9,72.782,318.126Z" transform="translate(-22.769 -13.861)" fill="#facfc9"/>
      <path id="Path_185" data-name="Path 185" d="M109.749,311.339s2.908,9.9,4.578,10.418,6.644-12.683,6.644-12.683,1.114-1.7,5.16,0-8.488,22.272-10.332,22.272-11.817-4.788-11.062-8.476S107.188,311.364,109.749,311.339Z" transform="translate(-12.185 -16.107)" fill="#e8a423"/>
      <path id="Path_186" data-name="Path 186" d="M95.951,376.108s-.557,3.848.4,5.259,2.314.668,2.759-.767a29.313,29.313,0,0,0,.4-5.469S97.028,374.388,95.951,376.108Z" transform="translate(-14.299 -0.288)" fill="#facfc9"/>
      <path id="Path_187" data-name="Path 187" d="M100.122,378.7a2.673,2.673,0,0,1,1.831-.062,72.017,72.017,0,0,0,6.929,2.277c1.918.384,5.123,1.844,5.283,3.712s-12.237,1-14.118.928-4.8.223-4.949-1c-.1-.817,0-3.452,0-5.073a1.052,1.052,0,0,1,1.237-.99,7.425,7.425,0,0,0,3.786.21Z" transform="translate(-14.474 0.544)" fill="#5384c2"/>
      <path id="Path_188" data-name="Path 188" d="M76.318,375.216s-1.571,3.564-1.015,5.172,2.042,1.237,2.846,0a28.98,28.98,0,0,0,1.844-5.172S77.8,373.855,76.318,375.216Z" transform="translate(-19.19 -0.374)" fill="#facfc9"/>
      <path id="Path_189" data-name="Path 189" d="M78.744,378.395a2.475,2.475,0,0,1,1.831-.062c1.918.693,5.543,1.992,6.917,2.277,1.918.384,5.135,1.831,5.283,3.712s-12.237.99-14.118.916-4.788.223-4.949-1c-.1-.817,0-3.452,0-5.073a1.027,1.027,0,0,1,1.237-.977A7.5,7.5,0,0,0,78.744,378.395Z" transform="translate(-19.55 0.469)" fill="#5384c2"/>
      <path id="Path_190" data-name="Path 190" d="M82.3,329.523s1.1,7.053,4.009,9.713c0,0,16.828,18.56,17.694,22.086s-5.457,26.974-5.519,27.221,4.64.507,5.135-1.708,8.166-26.306,7.622-28.075-14.464-22.693-14.464-22.693.693-6.793-.643-8.748S82.3,329.523,82.3,329.523Z" transform="translate(-17.501 -11.722)" fill="#e03d5b"/>
      <path id="Path_191" data-name="Path 191" d="M98.433,327.77s-14.316.8-14.427,2.982l2.957,36.477L75.32,387.174a4.157,4.157,0,0,0,4.566,1.126c2.784-3.6,14.328-17.954,15.318-20.762s-1.4-27.642-1.4-27.642,4.7-2.833,4.788-5.246S98.433,327.77,98.433,327.77Z" transform="translate(-19.157 -11.491)" fill="#ff5d7b"/>
      <path id="Path_192" data-name="Path 192" d="M107.312,305.534s-10.394-3.031-11.878-.705-12,28.892-10.443,31.626,9.6,7.424,11.594,5.952,17.2-24.9,18.04-27.073-1.151-6.075-3.056-7.226Z" transform="translate(-16.9 -17.144)" fill="#abb5f3"/>
      <path id="Path_193" data-name="Path 193" d="M99.9,324.288s-5.605,15.145-8.575,17.9c0,0-6.013.656-9.676-6.335,0,0,6.508-15.182,7.313-17.385S94.9,304.862,94.9,304.862s.977-3.786,13.1.792Z" transform="translate(-17.655 -17.277)" fill="#f4b031"/>
      <path id="Path_194" data-name="Path 194" d="M98.327,326.416s-4.207,14.106-4.046,14.848a6.1,6.1,0,0,0,2.363,3.143c1.472,1.1,10.567-21.591,10.567-21.591s6-7.523,5.593-9.23a19.451,19.451,0,0,1-.2-4.591s-3.019-.569-5.444,3.712S98.327,326.416,98.327,326.416Z" transform="translate(-14.658 -15.953)" fill="#f4b031"/>
      <path id="Path_195" data-name="Path 195" d="M108.2,313.665l1.237-2.883s6.187,2.24,8.352-2.029a18.411,18.411,0,0,0,2.227-6.966s2.215-9.441-4.566-12.608-12.014,1.51-13.71,6.385,0,10.691,1.237,11.507-1.089,4.034-1.089,4.034S104.867,316.041,108.2,313.665Z" transform="translate(-13.057 -20.895)" fill="#facfc9"/>
      <path id="Path_196" data-name="Path 196" d="M109.34,294.882s7.77,4.69,12.373,3.007,4.145-6.62,2.029-7.944-2.821,0-2.821,0-2.475-1.868-3.18-.594c0,0-7.065-2.673-8.389-2.054l-1.324.606s1.67-1.5.879-1.67-1.856,1.064-1.856,1.064-3.007-.186-2.735.433,1.373.866,1.373.866-4.17,1.967-4.677,8.327,0,7.585,0,7.585.173,6.038,2.4,4.12-.161-4.739-.161-5.345-.879-3.452.272-4.516,2.165.891,2.165.891-1.027,2.821-.582,3.093a1.646,1.646,0,0,0,1.943-1.064c.173-.879.26-2.735.445-3.093s1.769-1.052,1.943-1.5A8.439,8.439,0,0,0,109.34,294.882Z" transform="translate(-13.113 -21.353)" fill="#174859"/>
      <path id="Path_197" data-name="Path 197" d="M105.319,304.3s-4.949-.285-5.11.124,1.237,2.994,1.237,2.994-5.754,8.08-5.444,12.2a29.858,29.858,0,0,1,0,6.409S105.715,305.8,105.319,304.3Z" transform="translate(-14.252 -17.084)" fill="#e8a423"/>
      <path id="Path_198" data-name="Path 198" d="M109.651,306.65s3.118,3.811,2.9,4.207-3.155.742-3.155.742-3.168,9.391-6.694,11.569a30.516,30.516,0,0,0-5.147,3.8S108.216,307.207,109.651,306.65Z" transform="translate(-13.882 -16.503)" fill="#e8a423"/>
      <path id="Path_199" data-name="Path 199" d="M99.251,304.008s-16.16,3.415-17.731,4.578-13.14,12.373-13.14,12.373,1.386,5.3,5.395,4.368,8.414-9.763,10.01-9.763S98.633,311.691,100.6,311,101.974,303.389,99.251,304.008Z" transform="translate(-20.805 -17.14)" fill="#f4c43e"/>
      <path id="Path_200" data-name="Path 200" d="M119.335,312.391l.681-2.475s-1.646-1.646-1.646-2.252.817-3.8,1.646-3.8,4.6-2.153,5.321-.507,0,1.633,0,1.633,1.237,1.547.322,2.673a8.66,8.66,0,0,1-.421,2.252c-.309.619-2.153,1.027-2.153,1.027l-.643,2.128S119.9,315.052,119.335,312.391Z" transform="translate(-8.94 -17.431)" fill="#facfc9"/>
      <path id="Path_201" data-name="Path 201" d="M121.614,306.171h0a.8.8,0,0,1-.8-.8v-6.385a.8.8,0,0,1,.8-.792h0a.792.792,0,0,1,.792.792v6.4A.8.8,0,0,1,121.614,306.171Z" transform="translate(-8.361 -18.511)" fill="#174859"/>
      <circle id="Ellipse_4" data-name="Ellipse 4" cx="4.256" cy="4.256" r="4.256" transform="translate(108.997 275.769)" fill="#174859"/>
      <circle id="Ellipse_5" data-name="Ellipse 5" cx="3.007" cy="3.007" r="3.007" transform="translate(110.246 277.019)" fill="#c6e6fd"/>
      <path id="Path_202" data-name="Path 202" d="M352.449,311.98s2.809,11.136,5.642,12.893,12.6-4.665,12.6-4.665.47-3.39,1.361-3.836,2.376.9,2.376.9,5.061-3.836,6.422-3.947-2.648,3.712-2.648,3.712.161,3.712-1.237,4.64a15.144,15.144,0,0,1-4.727,1.559s-8.364,8.661-14.316,8.278-13.858-14.935-13.858-14.935S348.168,310.4,352.449,311.98Z" transform="translate(44.623 -15.3)" fill="#e0a880"/>
      <path id="Path_203" data-name="Path 203" d="M362.451,363.905l1.769,3.873,4.888-1.237-4-5.518S360.669,360.02,362.451,363.905Z" transform="translate(48.888 -3.626)" fill="#f8c29c"/>
      <path id="Path_204" data-name="Path 204" d="M343.194,330.611s14.588,3.65,19.8,11.383,11.495,27.1,11.495,27.1l-7.424,4-12.806-23.4-16.976-9.453S338.171,328.978,343.194,330.611Z" transform="translate(43.014 -10.855)" fill="#e8a423"/>
      <path id="Path_205" data-name="Path 205" d="M365.2,318.924l-1.064,4.888,10.468-6.57.854-4.8Z" transform="translate(49.389 -15.129)" fill="#fff"/>
      <path id="Path_206" data-name="Path 206" d="M342.679,310.39s4.417-6.088,8.1-3.168a16.382,16.382,0,0,1,4.949,7.956l-8.958,6.508S341.578,320.449,342.679,310.39Z" transform="translate(44.259 -16.556)" fill="#e03d5b"/>
      <path id="Path_207" data-name="Path 207" d="M347.506,304.774s2.475-.124,2.7-1.881,1.114-11.21,10.938-9.441c7.09,1.237,7.139,7.857,7.139,9.49s-2.475,7.709-2.128,9.094-2.611,0-2.611,0-2.994,3.922-3.972,4.195-5.939-3.217-6.1-4.949c-.26-2.945-3.106,1.485-4.417,1.064S345.465,307.446,347.506,304.774Z" transform="translate(45.248 -19.688)" fill="#f8c29c"/>
      <path id="Path_208" data-name="Path 208" d="M351.728,302.56s-17.855.978-21.294,18.35,0,27.9,0,27.9,10.468.681,15.38-.879-3.007-13.908,6.31-22.742C359.56,318.138,351.728,302.56,351.728,302.56Z" transform="translate(41.027 -17.474)" fill="#ff5d7b"/>
      <path id="Path_209" data-name="Path 209" d="M350.489,314.75s2.809,11.136,5.642,12.893,12.584-4.665,12.584-4.665.483-3.39,1.373-3.836,2.376.9,2.376.9,5.061-3.836,6.422-3.947-2.648,3.712-2.648,3.712.161,3.65-1.237,4.64A15.01,15.01,0,0,1,370.274,326s-8.364,8.661-14.316,8.29S342.1,319.353,342.1,319.353,346.208,313.166,350.489,314.75Z" transform="translate(44.158 -14.642)" fill="#f8c29c"/>
      <path id="Path_210" data-name="Path 210" d="M339.032,311.862s4.417-6.1,8.092-3.18a16.333,16.333,0,0,1,4.949,7.956l-8.958,6.508S337.881,321.921,339.032,311.862Z" transform="translate(43.391 -16.209)" fill="#e03d5b"/>
      <path id="Path_211" data-name="Path 211" d="M356.081,366.786l1.782,3.885,4.875-1.237-4-5.543S354.3,362.914,356.081,366.786Z" transform="translate(47.376 -2.944)" fill="#f8c29c"/>
      <path id="Path_212" data-name="Path 212" d="M337.118,333.5s14.6,3.65,19.8,11.384,11.495,27.1,11.495,27.1l-7.424,4-12.868-23.4-16.964-9.453s-1.992-2.475-1.435-4.615C330.511,335.5,334.173,332.552,337.118,333.5Z" transform="translate(41.197 -10.173)" fill="#f4c43e"/>
      <path id="Path_213" data-name="Path 213" d="M357.035,368.987a10.852,10.852,0,0,0,5.531-1.076s8.773,5.135,10.666,5.865,1.708,3.056,0,3.143-15.454-1.237-16.2-2.066S355.921,369.877,357.035,368.987Z" transform="translate(47.536 -1.964)" fill="#164454"/>
      <path id="Path_214" data-name="Path 214" d="M363.271,365.367a10.851,10.851,0,0,0,5.531-1.076s8.773,5.147,10.653,5.865,1.72,3.056,0,3.143-15.442-1.237-16.184-2.066S362.207,366.257,363.271,365.367Z" transform="translate(49.021 -2.823)" fill="#164454"/>
      <path id="Path_215" data-name="Path 215" d="M348.979,304.9s-1.237,1-.483-3.2,4.331-8.971,5.32-8.884c0,0-2.017-.953-.928-1.324a3.093,3.093,0,0,1,2.277.3s2.24-2.091,2.71-1.175-.755,1.559-.755,1.559a5.469,5.469,0,0,1,6.051,1.1,16,16,0,0,0,6.3,3.712,2.475,2.475,0,0,1,2.883,2.339c.247,2.784-2.252,1.621-2.252,1.621s3.712,2.227,1.175,4.083-3.514,1.163-5.494.569-2.475-1.757-3.514-1.943a15.956,15.956,0,0,0-3.069,0s-1.3,3.4-2.079,3.229-1.51-.346-1.052-1.435,1.472-2.611,1.052-3.341-3.613-.643-3.86,2.153-2.772,4.071-3.489,3.526S348.979,304.9,348.979,304.9Z" transform="translate(45.619 -20.366)" fill="#164454"/>
    </g>
  </g>
</svg>
