<svg xmlns="http://www.w3.org/2000/svg" xmlns:xlink="http://www.w3.org/1999/xlink" width="451.22" height="301.05" viewBox="0 0 451.22 301.05">
  <defs>
    <clipPath id="clip-path">
      <rect id="Rectangle_7018" data-name="Rectangle 7018" width="186.35" height="115.033" fill="none"/>
    </clipPath>
  </defs>
  <g id="Group_20181" data-name="Group 20181" transform="translate(-223.997 -274.448)">
    <path id="Path_28518" data-name="Path 28518" d="M162.76,1387.4c.85,7.785,11.272,6.07,18.179,11.879s.064,13.747,15.9,15.449c9.753,1.049,9.065-3.037,18.763,6.992,8.538,8.829,10.131-5.731,19.681-3.427,12.324,2.973,13.259-21.288,1.911-26.007s-16.913,1.889-19-8.3-9.728-14.018-19.441-11.739c-12.021,2.821-10.323,13.337-16.516,7.551s-20.605-2.693-19.479,7.607" transform="translate(61.297 -877.134)" fill="#8ab5dc"/>
    <path id="Path_28519" data-name="Path 28519" d="M298.911,1474.05c-34.632-26.862-75.362-30.962-75.771-31-1.55-.149-1.372-2.016.18-1.866.416.04,41.952,4.305,77.009,31.5Z" transform="translate(14.464 -932.014)" fill="#08558c"/>
    <path id="Path_28520" data-name="Path 28520" d="M349.8,1305.561c-2.016,4.971,4.826,7.321,7.1,13.068s-3.791,10.636,5.205,16.8c5.54,3.8,7.864-3.43,13.147,3.116s2.708,8.43,7.378,10.161c8.141,3.019,16.7-9.638,11.391-16.168s-12.552-4.208-10.5-11.029,2.739-9.715-3.857-11.5c-8.165-2.2-13.8,2.78-15.654-2.719s-11.552-8.314-14.217-1.739" transform="translate(-86.023 -822.02)" fill="#5285b4"/>
    <path id="Path_28521" data-name="Path 28521" d="M428.536,1391.673l1.411-1.169c-12.311-27.78-42.142-53.37-42.379-53.529-1.013-.678-1.727.385-.713,1.067.235.156,29.524,26.2,41.678,53.632" transform="translate(-115.161 -849.637)" fill="#08558c"/>
    <path id="Path_28522" data-name="Path 28522" d="M2151.405,753.054H2135.76V733.737h15.645Zm-14.811-.828h13.978V734.567h-13.978Z" transform="translate(-1495.294 -373.905)" fill="#80b2ff"/>
    <rect id="Rectangle_6996" data-name="Rectangle 6996" width="7.661" height="1.203" transform="translate(645.728 363.281)" fill="#0041a6"/>
    <rect id="Rectangle_6997" data-name="Rectangle 6997" width="9.927" height="1.203" transform="translate(643.463 366.106)" fill="#0041a6"/>
    <rect id="Rectangle_6998" data-name="Rectangle 6998" width="9.927" height="1.203" transform="translate(643.463 368.932)" fill="#0041a6"/>
    <rect id="Rectangle_6999" data-name="Rectangle 6999" width="9.927" height="1.203" transform="translate(643.463 371.755)" fill="#0041a6"/>
    <rect id="Rectangle_7000" data-name="Rectangle 7000" width="9.927" height="1.203" transform="translate(643.463 374.58)" fill="#0041a6"/>
    <rect id="Rectangle_7001" data-name="Rectangle 7001" width="14.81" height="18.487" transform="translate(643.254 362.512)" fill="#5795ce"/>
    <rect id="Rectangle_7002" data-name="Rectangle 7002" width="7.661" height="1.203" transform="translate(648.099 365.547)" fill="#005cea"/>
    <rect id="Rectangle_7003" data-name="Rectangle 7003" width="9.927" height="1.203" transform="translate(645.834 368.372)" fill="#005cea"/>
    <rect id="Rectangle_7004" data-name="Rectangle 7004" width="9.927" height="1.203" transform="translate(645.834 371.198)" fill="#005cea"/>
    <rect id="Rectangle_7005" data-name="Rectangle 7005" width="9.927" height="1.203" transform="translate(645.834 374.021)" fill="#005cea"/>
    <rect id="Rectangle_7006" data-name="Rectangle 7006" width="9.927" height="1.203" transform="translate(645.834 376.846)" fill="#005cea"/>
    <rect id="Rectangle_7007" data-name="Rectangle 7007" width="1.381" height="1.036" transform="translate(571.197 306.611)" fill="#97c6ff"/>
    <path id="Path_28523" data-name="Path 28523" d="M1808.964,533.6h-1.381v-2.163h1.381Zm0-4.332h-1.381V527.1h1.381Zm0-4.332h-1.381v-2.166h1.381Zm0-4.332h-1.381v-2.166h1.381Zm0-4.332h-1.381V514.1h1.381Zm0-4.332h-1.381V509.77h1.381Zm0-4.332h-1.381v-2.166h1.381Zm0-4.332h-1.381v-2.166h1.381Zm0-4.332h-1.381v-2.166h1.381Z" transform="translate(-1236.385 -186.962)" fill="#97c6ff"/>
    <rect id="Rectangle_7008" data-name="Rectangle 7008" width="1.381" height="1.036" transform="translate(571.197 348.799)" fill="#97c6ff"/>
    <rect id="Rectangle_7009" data-name="Rectangle 7009" width="1.381" height="1.036" transform="translate(559.909 306.611)" fill="#97c6ff"/>
    <path id="Path_28524" data-name="Path 28524" d="M377.168,585.839h-1.381v-2.076h1.381Zm.027-4.1-1.377-.1a11.026,11.026,0,0,1,.385-2.18l1.33.374a9.644,9.644,0,0,0-.335,1.9m1.043-3.7-1.227-.634a11.074,11.074,0,0,1,1.205-1.853l1.077.866a9.674,9.674,0,0,0-1.054,1.621m2.41-3-.885-1.062a11.075,11.075,0,0,1,1.831-1.237l.655,1.216a9.69,9.69,0,0,0-1.6,1.084m3.387-1.825-.4-1.322a11.018,11.018,0,0,1,2.17-.422l.128,1.376a9.645,9.645,0,0,0-1.9.368m271.679-.409h-2.076v-1.373h2.076Zm-4.151,0h-2.076v-1.373h2.076Zm-4.151,0h-2.076v-1.373h2.074Zm-4.151,0H641.19v-1.373h2.075Zm-4.151,0h-2.088v-1.373H639.1Zm-4.151,0h-2.076v-1.373h2.076Zm-4.151,0h-2.076v-1.373h2.076Zm-4.151,0h-2.076v-1.373h2.076Zm-4.151,0h-2.076v-1.373h2.076Zm-4.151,0h-2.076v-1.373h2.076Zm-4.151,0h-2.085v-1.373H614.2Zm-4.151,0H607.98v-1.373h2.076Zm-4.151,0h-2.076v-1.373H605.9Zm-4.151,0h-2.076v-1.373h2.076Zm-4.151,0h-2.076v-1.373H597.6Zm-4.151,0h-2.076v-1.373h2.076Zm-4.151,0h-2.075v-1.373H589.3Zm-4.151,0h-2.076v-1.373h2.076Zm-4.151,0h-2.076v-1.373h2.063Zm-4.151,0h-2.076v-1.373h2.076Zm-4.151,0H570.62v-1.373H572.7Zm-4.151,0h-2.089v-1.373h2.076Zm-4.151,0h-2.076v-1.373h2.076Zm-4.151,0h-2.084v-1.373h2.076Zm-4.151,0h-2.075v-1.373h2.075Zm-4.151,0h-2.076v-1.373h2.076Zm-4.151,0h-2.076v-1.373h2.058Zm-4.151,0h-2.076v-1.373h2.076Zm-4.151,0h-2.076v-1.373h2.076Zm-4.151,0H533.26v-1.373h2.076Zm-4.151,0h-2.076v-1.373h2.076Zm-4.151,0h-2.089v-1.373h2.076Zm-4.151,0H520.79v-1.373h2.076Zm-4.151,0h-2.076v-1.373h2.076Zm-4.151,0H512.5v-1.373h2.053Zm-4.151,0h-2.076v-1.373h2.076Zm-4.151,0h-2.1v-1.373h2.075Zm-4.151,0h-2.076v-1.373h2.076Zm-4.151,0H495.9v-1.373h2.076Zm-4.151,0h-2.094v-1.373h2.076Zm-4.151,0H487.6v-1.373h2.076Zm-4.151,0h-2.076v-1.373h2.076Zm-4.151,0H479.3v-1.373h2.076Zm-4.151,0h-2.076v-1.373h2.076Zm-4.151,0h-2.076v-1.373h2.076Zm-4.151,0h-2.076v-1.373h2.076Zm-4.151,0h-2.076v-1.373h2.076Zm-4.151,0h-2.1v-1.373h2.076Zm-4.151,0H454.39v-1.373h2.076Zm-4.151,0h-2.076v-1.373h2.076Zm-4.151,0h-2.076v-1.373h2.076Zm-4.151,0h-2.076v-1.373h2.076Zm-4.151,0h-2.076v-1.373h2.076Zm-4.151,0h-2.076v-1.373h2.076Zm-4.151,0h-2.075v-1.373h2.075Zm-4.151,0h-2.1v-1.373h2.076Zm-4.151,0h-2.076v-1.373h2.076Zm-4.151,0H417.03v-1.373h2.076Zm-4.151,0h-2.1v-1.373h2.076Zm-4.151,0h-2.076v-1.373H410.8Zm-4.151,0h-2.076v-1.373h2.076Zm-4.151,0h-2.076v-1.373h2.052Zm-4.151,0h-2.106v-1.373h2.076Zm-4.151,0H392.09v-1.373h2.076Zm-4.151,0h-2.076v-1.373h2.076Zm267.818-.026-.095-1.379a9.628,9.628,0,0,0,1.906-.325l.368,1.331a11.054,11.054,0,0,1-2.18.372m4.24-1.173-.627-1.231a9.684,9.684,0,0,0,1.626-1.046l.86,1.081a11.068,11.068,0,0,1-1.858,1.2m3.442-2.737-1.057-.889a9.687,9.687,0,0,0,1.091-1.6l1.213.662a11.071,11.071,0,0,1-1.247,1.825m2.1-3.863-1.321-.405a9.63,9.63,0,0,0,.377-1.9l1.375.128a11.009,11.009,0,0,1-.432,2.168m.484-4.308h-1.381v-2.076h1.381Zm0-4.151h-1.381v-2.067h1.381Zm0-4.151h-1.381v-2.076h1.381Zm0-4.151h-1.381v-2.062h1.381Zm0-4.151h-1.381v-2.076h1.381Zm0-4.151h-1.381v-2.076h1.381Zm0-4.151h-1.381V533.7h1.381Zm0-4.151h-1.381v-2.076h1.381Zm0-4.151h-1.381V525.4h1.381Zm0-4.151h-1.381v-2.076h1.381Zm0-4.151h-1.381V517.1h1.381Zm0-4.151h-1.381v-2.067h1.381Zm0-4.151h-1.381V508.8h1.381Zm0-4.151h-1.381v-2.076h1.381Zm0-4.151h-1.381V500.5h1.381Zm0-4.151h-1.381v-2.076h1.381Z" transform="translate(-106.813 -186.625)" fill="#97c6ff"/>
    <rect id="Rectangle_7010" data-name="Rectangle 7010" width="1.381" height="1.036" transform="translate(268.974 401.311)" fill="#97c6ff"/>
    <rect id="Rectangle_7011" data-name="Rectangle 7011" width="1.381" height="1.036" transform="translate(579.504 306.611)" fill="#97c6ff"/>
    <path id="Path_28525" data-name="Path 28525" d="M1848.314,516.126h-1.381v-2.156h1.381Zm0-4.311h-1.381v-2.156h1.381Zm0-4.311h-1.381v-2.154h1.381Zm0-4.311h-1.381v-2.156h1.381Zm0-4.311h-1.381v-2.156h1.381Z" transform="translate(-1267.432 -186.923)" fill="#97c6ff"/>
    <path id="Path_28526" data-name="Path 28526" d="M1848.661,600.574h-1.727v-1.727h1.381v.345h.345Z" transform="translate(-1267.432 -267.488)" fill="#97c6ff"/>
    <path id="Path_28527" data-name="Path 28527" d="M1912.638,662.8h-1.381V660.74h1.381Zm0-4.122h-1.381v-2.061h1.381Zm0-4.122h-1.381V652.5h1.381Zm0-4.122h-1.381v-2.061h1.381Zm0-4.122h-1.381v-2.061h1.381Zm0-4.122h-1.381v-2.061h1.381Zm0-4.122h-1.381V636.01h1.381Zm0-4.122h-1.381v-2.061h1.381Zm0-4.122h-1.381v-2.058h1.381Zm0-4.122h-1.381v-2.061h1.381Zm0-4.122h-1.381v-2.061h1.381Zm0-4.122h-1.381V615.4h1.381Zm0-4.122h-1.381v-2.061h1.381Zm-1.389-4.092a7.727,7.727,0,0,0-.308-1.861l1.325-.385a9.111,9.111,0,0,1,.363,2.194Zm-1.059-3.591a7.752,7.752,0,0,0-1.154-1.5l.985-.968a9.132,9.132,0,0,1,1.356,1.762Zm-2.628-2.67a7.684,7.684,0,0,0-1.717-.78l.413-1.318a9.062,9.062,0,0,1,2.026.919Zm-3.572-1.116q-.223-.013-.448-.013h-1.575v-1.381h1.572c.176,0,.354,0,.527.015Zm-4.082-.013h-2.061v-1.381h2.061Zm-4.122,0h-2.061v-1.381h2.061Zm-4.122,0H1889.6v-1.381h2.061Zm-4.121,0h-2.061v-1.381h2.061Zm-4.122,0h-2.061v-1.381h2.061Zm-4.122,0h-2.061v-1.381h2.061Zm-4.122,0h-2.061v-1.381h2.061Zm-4.121,0H1869v-1.381h2.061Zm-4.122,0h-2.061v-1.381h2.061Z" transform="translate(-1281.59 -268.78)" fill="#97c6ff"/>
    <rect id="Rectangle_7012" data-name="Rectangle 7012" width="1.381" height="1.036" transform="translate(629.668 396.09)" fill="#97c6ff"/>
    <path id="Path_28528" data-name="Path 28528" d="M1664.479,426.014c.027-.354.046-.712.046-1.072a13.689,13.689,0,0,0-27.379,0c0,.362.018.718.046,1.072Z" transform="translate(-1101.922 -119.489)" fill="#5795ce"/>
    <path id="Path_28529" data-name="Path 28529" d="M1877.539,426.014c.028-.354.046-.712.046-1.072a13.69,13.69,0,0,0-27.38,0c0,.362.018.718.046,1.072Z" transform="translate(-1270.014 -119.489)" fill="#5795ce"/>
    <path id="Path_28530" data-name="Path 28530" d="M1755.8,396.7a20.36,20.36,0,0,0,.16-2.552,20.055,20.055,0,1,0-40.11,0,20.269,20.269,0,0,0,.161,2.552Z" transform="translate(-1164.01 -90.171)" fill="#5795ce"/>
    <path id="Path_28534" data-name="Path 28534" d="M530.118,1165.01h-14.76a1.7,1.7,0,1,0,0,3.4h14.76a1.7,1.7,0,1,0,0-3.4" transform="translate(-215.584 -714.15)" fill="#d1f5ff"/>
    <path id="Path_28535" data-name="Path 28535" d="M637.635,1165.01h-14.76a1.7,1.7,0,0,0,0,3.4h14.76a1.7,1.7,0,1,0,0-3.4" transform="translate(-300.403 -714.15)" fill="#d1f5ff"/>
    <path id="Path_28539" data-name="Path 28539" d="M755.795,389.454a42.252,42.252,0,0,0,.843-16.671l1.714-.256,3.387-.507.044-.009a47.313,47.313,0,0,0-6.193-17.349l-4.46,2.657a42.273,42.273,0,0,0-11.2-12.367l3.1-4.183a47.1,47.1,0,0,0-16.649-7.9l-1.282,5.051a42.182,42.182,0,0,0-16.671-.844l-.769-5.145a47.612,47.612,0,0,0-17.349,6.191l2.657,4.46a42.273,42.273,0,0,0-12.369,11.2l-4.183-3.1a47.111,47.111,0,0,0-7.9,16.649l5.051,1.282a42.183,42.183,0,0,0-.844,16.671l-3.64.544-1.485.235h-.019a47.612,47.612,0,0,0,6.191,17.349l4.46-2.657a42.354,42.354,0,0,0,11.22,12.372l-3.1,4.184a47.013,47.013,0,0,0,16.63,7.9l1.282-5.051a42.286,42.286,0,0,0,16.686.849l.6,4,.178,1.145a47.526,47.526,0,0,0,17.33-6.2l-2.657-4.461a42.717,42.717,0,0,0,12.392-11.215l4.183,3.1a47.356,47.356,0,0,0,7.88-16.634Zm-46.776,11.909a23.025,23.025,0,1,1,27.968-16.671A23.025,23.025,0,0,1,709.019,401.363Z" transform="translate(-337.009 -56.91)" fill="none" stroke="#1364ae" stroke-width="1"/>
    <path id="Path_28540" data-name="Path 28540" d="M442.09,594.455a22.242,22.242,0,0,0-6.717-5.664l.439-.8.867-1.581.01-.021a24.91,24.91,0,0,0-9.245-2.933l-.308,2.716a22.257,22.257,0,0,0-8.754.754l-.769-2.632a24.8,24.8,0,0,0-8.618,4.46l1.709,2.145a22.209,22.209,0,0,0-5.664,6.717l-2.4-1.315a25.062,25.062,0,0,0-2.933,9.245l2.716.308a22.257,22.257,0,0,0,.754,8.754l-2.631.769A24.8,24.8,0,0,0,405,624l2.147-1.709a22.21,22.21,0,0,0,6.717,5.664l-.932,1.7-.374.7-.008.006a25.07,25.07,0,0,0,9.245,2.933l.308-2.716a22.3,22.3,0,0,0,8.761-.76l.769,2.631a24.751,24.751,0,0,0,8.61-4.453l-1.709-2.147a22.265,22.265,0,0,0,5.672-6.724l1.866,1.026.536.29a25.02,25.02,0,0,0,2.925-9.233l-2.716-.308a22.5,22.5,0,0,0-.753-8.768l2.632-.769a24.939,24.939,0,0,0-4.461-8.6Zm-9.913,23.4A12.122,12.122,0,1,1,434.1,600.82a12.122,12.122,0,0,1-1.924,17.036Z" transform="translate(-125.685 -255.345)" fill="none" stroke="#1364ae" stroke-width="1"/>
    <path id="Path_28629" data-name="Path 28629" d="M431.742,591.77a16.813,16.813,0,0,0-5.077-4.282l.331-.605.655-1.2.008-.015a18.828,18.828,0,0,0-6.988-2.217l-.232,2.052a16.827,16.827,0,0,0-6.616.571l-.58-1.989a18.746,18.746,0,0,0-6.513,3.371l1.291,1.622a16.79,16.79,0,0,0-4.282,5.077l-1.816-.994a18.945,18.945,0,0,0-2.217,6.988l2.052.232a16.823,16.823,0,0,0,.569,6.616l-1.989.58a18.742,18.742,0,0,0,3.37,6.514l1.622-1.291a16.789,16.789,0,0,0,5.077,4.281l-.7,1.282-.283.527h0a18.949,18.949,0,0,0,6.988,2.217l.232-2.052a16.853,16.853,0,0,0,6.622-.575l.58,1.989a18.713,18.713,0,0,0,6.5-3.362l-1.293-1.622a16.832,16.832,0,0,0,4.287-5.082l1.411.769.405.219a18.912,18.912,0,0,0,2.211-6.983l-2.052-.232a17,17,0,0,0-.568-6.627l1.989-.58a18.853,18.853,0,0,0-3.373-6.5Zm-7.493,17.688a9.163,9.163,0,1,1,1.453-12.876,9.163,9.163,0,0,1-1.453,12.876Z" transform="translate(-136.811 -186.243)" fill="none" stroke="#1364ae" stroke-width="1"/>
    <path id="Path_28541" data-name="Path 28541" d="M2015.371,1383.616a25.67,25.67,0,0,0-7.75-6.54l.505-.924,1-1.824.012-.024a28.742,28.742,0,0,0-10.669-3.384l-.355,3.134a25.685,25.685,0,0,0-10.1.871l-.885-3.037a28.616,28.616,0,0,0-9.945,5.146l1.973,2.476a25.618,25.618,0,0,0-6.54,7.751l-2.772-1.517a28.932,28.932,0,0,0-3.384,10.668l3.134.355a25.679,25.679,0,0,0,.87,10.1l-3.037.885a28.622,28.622,0,0,0,5.146,9.945l2.476-1.972a25.64,25.64,0,0,0,7.752,6.54l-1.076,1.961-.432.8-.009.008a28.926,28.926,0,0,0,10.668,3.384l.355-3.134a25.735,25.735,0,0,0,10.11-.877l.885,3.035a28.553,28.553,0,0,0,9.936-5.138l-1.972-2.477a25.683,25.683,0,0,0,6.54-7.759l2.153,1.182.62.335a28.875,28.875,0,0,0,3.375-10.661l-3.134-.355a25.948,25.948,0,0,0-.868-10.118l3.036-.885a28.776,28.776,0,0,0-5.149-9.928Zm-11.439,27a13.989,13.989,0,1,1,2.219-19.659,13.989,13.989,0,0,1-2.219,19.659Z" transform="translate(-1361.73 -876.598)" fill="none" stroke="#00224d" stroke-width="1"/>
    <path id="Path_28542" data-name="Path 28542" d="M734.815,1738.207H345.023a2.308,2.308,0,1,1,0-4.616H734.815a2.308,2.308,0,0,1,0,4.617" transform="translate(-80.72 -1162.71)" fill="#003c99"/>
    <path id="Path_28543" data-name="Path 28543" d="M828.842,897.353H513.105a7.694,7.694,0,0,1-7.694-7.694V693.723a7.694,7.694,0,0,1,7.694-7.694H828.842a7.694,7.694,0,0,1,7.694,7.694V889.662a7.694,7.694,0,0,1-7.694,7.694" transform="translate(-212.115 -338.208)" fill="#b3d1ff"/>
    <rect id="Rectangle_7016" data-name="Rectangle 7016" width="328.265" height="208.466" rx="5" transform="translate(294.726 349.251)"/>
    <rect id="Rectangle_7017" data-name="Rectangle 7017" width="306.252" height="191.481" transform="translate(307.417 358.227)" fill="#5795ce"/>
    <path id="Path_28544" data-name="Path 28544" d="M756.254,1677.99v5.1a5.966,5.966,0,0,1-.046.77,6.632,6.632,0,0,1-6.59,5.868H385.693a6.631,6.631,0,0,1-6.588-5.869,6,6,0,0,1-.046-.769v-5.1Z" transform="translate(-109.394 -1118.85)" fill="#599aff"/>
    <path id="Path_28545" data-name="Path 28545" d="M756.38,1705.79a6.632,6.632,0,0,1-6.59,5.868H385.867a6.631,6.631,0,0,1-6.588-5.869Z" transform="translate(-109.568 -1140.78)" fill="#406eff"/>
    <g id="Group_20180" data-name="Group 20180" transform="translate(368.333 398.845)" opacity="0.3">
      <g id="Group_20179" data-name="Group 20179">
        <g id="Group_20178" data-name="Group 20178" clip-path="url(#clip-path)">
          <path id="Path_28546" data-name="Path 28546" d="M1024.461,1033.591H854.9a8.4,8.4,0,0,1-8.395-8.394V926.953a8.4,8.4,0,0,1,8.395-8.394h169.561a8.4,8.4,0,0,1,8.394,8.395V1025.2a8.394,8.394,0,0,1-8.394,8.394" transform="translate(-846.505 -918.562)" fill="#fff"/>
        </g>
      </g>
    </g>
    <path id="Path_28547" data-name="Path 28547" d="M1303.656,1290.675h-27.376a4.211,4.211,0,0,1,0-8.423h27.376a4.211,4.211,0,1,1,0,8.423" transform="translate(-813.906 -806.643)" fill="#ff9f34"/>
    <path id="Path_28548" data-name="Path 28548" d="M1276.9,1131.7h-59.735a4.211,4.211,0,1,1,0-8.423H1276.9a4.211,4.211,0,1,1,0,8.423" transform="translate(-767.269 -681.228)" fill="#fff"/>
    <path id="Path_28549" data-name="Path 28549" d="M1276.9,1206.825h-59.735a4.211,4.211,0,1,1,0-8.422H1276.9a4.211,4.211,0,1,1,0,8.423" transform="translate(-767.269 -740.484)" fill="#fff"/>
    <path id="Path_28550" data-name="Path 28550" d="M1269.7,1214.577a1.483,1.483,0,1,1-1.483-1.482,1.483,1.483,0,0,1,1.483,1.482" transform="translate(-809.701 -752.08)" fill="rgba(8,85,140,0.67)"/>
    <path id="Path_28551" data-name="Path 28551" d="M1293.783,1214.577a1.482,1.482,0,1,1-1.482-1.482,1.482,1.482,0,0,1,1.482,1.482" transform="translate(-828.704 -752.08)" fill="rgba(8,85,140,0.67)"/>
    <path id="Path_28552" data-name="Path 28552" d="M1317.873,1214.577a1.482,1.482,0,1,1-1.483-1.482,1.482,1.482,0,0,1,1.483,1.482" transform="translate(-847.703 -752.08)" fill="rgba(8,85,140,0.67)"/>
    <path id="Path_28553" data-name="Path 28553" d="M1341.953,1214.577a1.483,1.483,0,1,1-1.483-1.482,1.483,1.483,0,0,1,1.483,1.482" transform="translate(-866.705 -752.08)" fill="rgba(8,85,140,0.67)"/>
    <path id="Path_28554" data-name="Path 28554" d="M1366.043,1214.577a1.482,1.482,0,1,1-1.482-1.482,1.482,1.482,0,0,1,1.482,1.482" transform="translate(-885.703 -752.08)" fill="rgba(8,85,140,0.67)"/>
    <path id="Path_28555" data-name="Path 28555" d="M1390.123,1214.577a1.482,1.482,0,1,1-1.482-1.482,1.482,1.482,0,0,1,1.482,1.482" transform="translate(-904.705 -752.08)" fill="rgba(8,85,140,0.67)"/>
    <path id="Path_28556" data-name="Path 28556" d="M1414.213,1214.577a1.482,1.482,0,1,1-1.483-1.482,1.483,1.483,0,0,1,1.483,1.482" transform="translate(-923.705 -752.08)" fill="rgba(8,85,140,0.67)"/>
    <path id="Path_28557" data-name="Path 28557" d="M1438.293,1214.577a1.482,1.482,0,1,1-1.483-1.482,1.482,1.482,0,0,1,1.483,1.482" transform="translate(-942.706 -752.08)" fill="rgba(8,85,140,0.67)"/>
    <path id="Path_28558" data-name="Path 28558" d="M1462.373,1214.577a1.482,1.482,0,1,1-1.482-1.482,1.482,1.482,0,0,1,1.482,1.482" transform="translate(-961.709 -752.08)" fill="rgba(8,85,140,0.67)"/>
    <path id="Path_28559" data-name="Path 28559" d="M1341.6,1003.237a8.8,8.8,0,1,1-8.8-8.8,8.8,8.8,0,0,1,8.8,8.8" transform="translate(-854.884 -579.578)" fill="#fff"/>
    <path id="Path_28560" data-name="Path 28560" d="M1355.371,1013.69a2.779,2.779,0,0,0,2.158-1.057,2.708,2.708,0,0,0,.6-1.718,2.764,2.764,0,1,0-5.527,0,2.7,2.7,0,0,0,.6,1.718,2.787,2.787,0,0,0,2.18,1.057" transform="translate(-877.439 -590.39)" fill="#08558c"/>
    <path id="Path_28561" data-name="Path 28561" d="M1352.294,1042.25c0,1.752-9.779,1.752-9.779,0v-2.04c.385-2.789,8.977-2.907,9.778,0Z" transform="translate(-869.484 -614.004)" fill="#08558c"/>
    <path id="Path_28562" data-name="Path 28562" d="M1262.386,1207.635v-.226a1.657,1.657,0,1,0-3.313,0v.226h-.256v2.986c0,.513,3.828.513,3.828,0v-2.986Zm-2.724-.226a1.072,1.072,0,1,1,2.144,0v.226h-2.144Zm1.349,1.73V1210a.274.274,0,0,1-.287.266.256.256,0,0,1-.265-.266v-.862a.5.5,0,0,1-.266-.442.531.531,0,1,1,.819.442" transform="translate(-809.083 -746.288)" fill="#4d4d4d"/>
    <path id="Path_28563" data-name="Path 28563" d="M1237.658,1133.686a1.084,1.084,0,0,0,.843-.413,1.056,1.056,0,0,0,.232-.67,1.078,1.078,0,1,0-2.157,0,1.059,1.059,0,0,0,.232.671,1.088,1.088,0,0,0,.851.413" transform="translate(-785.906 -687.729)" fill="#4d4d4d"/>
    <path id="Path_28564" data-name="Path 28564" d="M1236.385,1144.839c0,.683-3.837.683-3.837,0l.021-.8c.151-1.089,3.506-1.135,3.816,0Z" transform="translate(-782.727 -696.946)" fill="#4d4d4d"/>
    <path id="Path_28565" data-name="Path 28565" d="M1283.5,1139.854h-15.517a1.236,1.236,0,1,1,0-2.471H1283.5a1.236,1.236,0,0,1,0,2.471" transform="translate(-809.71 -692.348)" fill="rgba(8,85,140,0.67)"/>
    <path id="Path_28566" data-name="Path 28566" d="M1239.95,1097.134h-14.978a1.236,1.236,0,1,1,0-2.471h14.978a1.236,1.236,0,0,1,0,2.471" transform="translate(-775.776 -658.644)" fill="#08558c"/>
    <path id="Path_28567" data-name="Path 28567" d="M1380.418,1139.854H1364.9a1.236,1.236,0,1,1,0-2.471h15.517a1.236,1.236,0,0,1,0,2.471" transform="translate(-886.18 -692.348)" fill="rgba(8,85,140,0.67)"/>
    <path id="Path_28568" data-name="Path 28568" d="M991.434,1140.62v21.845c0,2.427,29.705,2.427,29.705,0V1140.62Z" transform="translate(-592.509 -694.902)" fill="#fff"/>
    <path id="Path_28569" data-name="Path 28569" d="M1051.755,1166.008a3.668,3.668,0,1,1-3.668-3.667,3.667,3.667,0,0,1,3.668,3.667" transform="translate(-634.316 -712.035)" fill="#08558c"/>
    <path id="Path_28570" data-name="Path 28570" d="M1056.181,1194.973h0a1.5,1.5,0,0,1-1.5-1.5v-8.411h3.006v8.411a1.5,1.5,0,0,1-1.5,1.5" transform="translate(-642.403 -729.967)" fill="#08558c"/>
    <path id="Path_28571" data-name="Path 28571" d="M1028.264,1081.962h-3.006v-1.472a9.243,9.243,0,1,0-18.486,0v1.472h-3.006v-1.472a12.248,12.248,0,1,1,24.5,0Z" transform="translate(-602.237 -637.804)" fill="#fff"/>
    <path id="Path_28572" data-name="Path 28572" d="M1667.051,1130.445l1.419,5.707.256,1.061c.287,1.348,9.191.769,8.561-.8l-.531-1.162-2.739-6.008Z" transform="translate(-1125.514 -685.925)" fill="#f7a58e"/>
    <path id="Path_28573" data-name="Path 28573" d="M1642.38,1062.6c-.091,6.187,2.782,11.221,7.276,11.2s8.849-3.836,9-11.277a8.294,8.294,0,0,0-8.182-8.547,8.433,8.433,0,0,0-8.1,8.625" transform="translate(-1106.047 -626.546)" fill="#f7a58e"/>
    <path id="Path_28574" data-name="Path 28574" d="M1643.308,1045.91s-8.957.442-9.7,7.226c-1,5.954,3.473,1.576,5.3,5.572,2.089,4.577-.04,7.925-2.754,8.836,2.413,3.37,16.216,3.248,19.766-2.664,2.437-7.417-1.009-18.559-12.606-18.97" transform="translate(-1099.022 -620.188)"/>
    <path id="Path_28575" data-name="Path 28575" d="M1650.331,1099.658a1.667,1.667,0,1,0,1.8-1.529,1.667,1.667,0,0,0-1.8,1.529" transform="translate(-1112.321 -661.375)" fill="#f7a58e"/>
    <path id="Path_28576" data-name="Path 28576" d="M1644.706,1649.629c-.421-.445-2.4-.451-2.582.207s.168,1.127-.668,2.17a8.489,8.489,0,0,0,2.71,0c.522-.151.959-1.931.54-2.376" transform="translate(-1105.329 -1096.219)" fill="#fff"/>
    <path id="Path_28577" data-name="Path 28577" d="M1653.076,1375.355h-4.827c-.452-20.423-.366-42.656-.2-59.4.058-6,.223-9.029,1.311-12.629,2.2-7.27,12.524-5.032,13.257,1.557.305,3.657.529,10.79-6.23,35.028,2.926,10.672-2.18,23.468-3.308,35.444" transform="translate(-1110.415 -819.706)" fill="#00050d"/>
    <path id="Path_28578" data-name="Path 28578" d="M1627.6,1657.415a5.246,5.246,0,0,0,2.684-1.2,2.941,2.941,0,0,0,2.581.485c1.369-.2,1.55-.841,2.533-.755.414,1.154,1.423,3.736.45,4.335H1625.7c-.907-.827-.882-2.593,1.9-2.87" transform="translate(-1092.472 -1101.45)" fill="#fff"/>
    <path id="Path_28579" data-name="Path 28579" d="M1763.061,1652.259c-.353-.373-2.017-.385-2.168.173s.141.948-.562,1.824a7.128,7.128,0,0,0,2.276,0c.439-.128.807-1.624.454-2" transform="translate(-1199.105 -1098.339)" fill="#fff"/>
    <path id="Path_28580" data-name="Path 28580" d="M1696.814,1306.585c.988-7.53,14.382-6.757,15.273-.182.322,3.538,1.3,8.863-1.213,35.138,5.31,10.028,3.81,24.417,5.4,35.009.176,1.611-4.39,2-4.745.562-4.865-19.651-11.663-41.7-14.189-58.047-.917-5.927-1.009-8.752-.521-12.482" transform="translate(-1148.77 -821.587)" fill="#00050d"/>
    <path id="Path_28581" data-name="Path 28581" d="M1746,1656.076a3.737,3.737,0,0,0,2.073-1.435,2.85,2.85,0,0,0,2.5,1.037c1.37-.205,1.55-.841,2.533-.756.414,1.154,1.423,3.735.449,4.334h-9.874c-.905-.827-.468-2.9,2.308-3.18" transform="translate(-1185.648 -1100.43)" fill="#fff"/>
    <path id="Path_28582" data-name="Path 28582" d="M1493.85,1258.261l-.5-2.51c1.226-.479,3.084-1.469,5.246-2.308l1.188,4.068c-2.394.355-4.515.615-5.933.753" transform="translate(-988.482 -783.912)" fill="#f7a58e"/>
    <path id="Path_28583" data-name="Path 28583" d="M1518.21,1186.74c4.168-1.938,11.306-6.156,12.952-6.913l17.614-10.814c3.8-1.154,8.229,6.366,3.425,9.759,0,0-27.237,11.211-32.8,12.038Z" transform="translate(-1008.09 -717.208)" fill="#ff7268"/>
    <path id="Path_28584" data-name="Path 28584" d="M1478.545,1268.509c-1.7-.513-2.294-3.021-2.338-3.206l3.525-1.282c1.714-.694,2.693,1.38,1.615,2.878,0,0-1.178,2-2.8,1.621" transform="translate(-974.954 -792.145)" fill="#f7a58e"/>
    <path id="Path_28585" data-name="Path 28585" d="M1465.452,1270.38c-4.072.875-3.914-.128-3.914-.128s1.373-.457,3.855-1.134c1.434-.321,1.039.94.059,1.257" transform="translate(-963.381 -796.24)" fill="#f7a58e"/>
    <path id="Path_28586" data-name="Path 28586" d="M1646.934,1173.113c-.847-4.12-1.3-8.188,2.949-10.745,2.519-1.516,10.611-2.6,14.395-1.348,3.814,1.7,2.988,9.136,3.7,20.871,2.628,5.857,3.769,7.78,4.547,13.485,0,0-1.411,4.3-11.308,4.3-4.5,0-11.12-.4-14.132-2.693.3-3.889,1.923-7.638,2.6-13.144,0,0-2.693-10.259-2.755-10.732" transform="translate(-1109.205 -710.569)" fill="#ff7268"/>
    <path id="Path_28587" data-name="Path 28587" d="M1713.942,1163.269a63.706,63.706,0,0,1,11.323,12.091c2.143,2.964,7.694,14.876,7.694,14.876l-3.532,2.6-9.554-13.016-11.669-9.573c-4.05-4.133,1.213-10.435,5.74-6.979" transform="translate(-1156.843 -711.979)" fill="#ff7268"/>
    <path id="Path_28588" data-name="Path 28588" d="M1814.736,1291.372l-2.289-4.729a5.914,5.914,0,0,1-3.912,2.693s2.461,3.542,3.064,4.145,3.088-.418,3.138-2.107" transform="translate(-1237.132 -810.099)" fill="#f7a58e"/>
    <path id="Path_28589" data-name="Path 28589" d="M1820.3,1308.424c.009.035,0,.083.009.118a3.4,3.4,0,0,0,1.8,2.729.205.205,0,0,0,.092.036c-1.244-.249-1.617,1.418-.984,1.8a3.471,3.471,0,0,0,4.663-1.5c.224-1.05-1.862-4.523-1.862-4.523-1.063-.859-3.788-.726-3.713,1.336" transform="translate(-1246.412 -825.84)" fill="#f7a58e"/>
    <path id="Path_28590" data-name="Path 28590" d="M1820.34,1314.172a3.283,3.283,0,0,0,1.858,2.753c1.026-.028,1.391-.091,2.37-.088a2.258,2.258,0,0,1-1.442-2.75,2.766,2.766,0,0,0-2.786.086" transform="translate(-1246.449 -831.473)" fill="#e6856a"/>
    <path id="Path_28591" data-name="Path 28591" d="M1819.664,1308.133a11.871,11.871,0,0,0,.226,4.9s.985.052.9-1.808c-.024-.484.046-1.539.524-1.884,1.474-.974,1.711-1.867,1.171-2.6-.721-.977-2.757.014-2.813,1.391" transform="translate(-1245.801 -825.646)" fill="#f7a58e"/>
    <path id="Path_28592" data-name="Path 28592" d="M1829.515,1331.917c-.8.554-2.916,1.63-3.25,1.364s1.358-2.067,2.451-2.308,1.209.657.8.941" transform="translate(-1251.091 -845.054)" fill="#f7a58e"/>
    <path id="Path_28593" data-name="Path 28593" d="M1432.108,621.108c2.286-3.312.182-13.618-9.581-16.577-8.248-2.126-12.541.482-23.7,3.52l1.667,13.059Z" transform="translate(-913.91 -271.36)" fill="#50318f"/>
    <path id="Path_28594" data-name="Path 28594" d="M1343.56,609.972s-19.985,4.128-27.361,6.842c-4.232,1.557-5.281,5.055-3.65,7.747,2.415,3.987,31.085,1.154,31.085,1.154,9.89-2.769,4.655-15.921-.074-15.748" transform="translate(-845.272 -276.263)" fill="#50318f"/>
    <path id="Path_28595" data-name="Path 28595" d="M1482.8,604.621s12.762,4.329,19.94,7.534c6.966.549,6.508,9.2,3.206,9.756-7.583,2.052-24.286-1.583-24.286-1.583-9.682-3.428-3.573-16.2,1.135-15.708" transform="translate(-975.213 -272.032)" fill="#50318f"/>
    <path id="Path_28596" data-name="Path 28596" d="M1407.407,598.975s-4.024-6.123,5.962-10.866,16.7,0,15.039,5.74-7.549,9.572-7.549,9.572-9.956.047-13.451-4.445" transform="translate(-920.046 -257.485)" fill="#50318f"/>
    <path id="Path_28597" data-name="Path 28597" d="M1431.967,582.446c4.8-3.334,2.874-9.828,2.874-9.828l-1.82-3.471-1.516-2.891-8.017,3.088,1.459,5.936a15.363,15.363,0,0,0,1.267,2.949c1.105,1.972,2.973,4.214,5.752,4.223" transform="translate(-933.368 -241.775)" fill="#f7a28a"/>
    <path id="Path_28598" data-name="Path 28598" d="M1426.21,578.223a17.461,17.461,0,0,0,6.807-9.077l-1.516-2.891-8.017,3.088,1.459,5.936a15.4,15.4,0,0,0,1.267,2.949" transform="translate(-933.368 -241.776)" fill="#f0896c"/>
    <path id="Path_28599" data-name="Path 28599" d="M1371.807,529.713a3.091,3.091,0,0,0-.187,5.8,2.651,2.651,0,0,0,1.594,3.862c6.171,2.267,5.568-11.037-1.411-9.663" transform="translate(-890.91 -212.867)" fill="#3d3d3d"/>
    <path id="Path_28600" data-name="Path 28600" d="M1384.634,515.266c1.89,5.578,5.825,10.8,8.992,9.5,5.369-2.206,9.874-8.207,7.648-14.522s-7.019-9.219-12.1-7.426-6.693,6.1-4.542,12.446" transform="translate(-901.981 -191.318)" fill="#f7a28a"/>
    <path id="Path_28601" data-name="Path 28601" d="M1372.166,495.705c1.135.962,5.336,2.6,14.026-1.613a10.148,10.148,0,0,1,3.253,4.392c.818-.194,1.154-.621,1.714.081.78.968,1.19,3.089.222,3.868a2.249,2.249,0,0,1-.805.414c-.348,1.485-.018,3.119,1.18,3.483,1.848-1.488,1.625-1.831,2.308-3.544,2.157-1.513,2.162-4.835.426-5.744,1.648-1.545-.342-4.932-2.781-5.045.016-1.872-2.367-5.218-5.363-3.261.086-2.013-3.569-3.334-5.546-.369-1.593-2.174-6.429-.858-6.243,2.03-2.925-.513-4.529,3.424-2.386,5.308" transform="translate(-892.105 -178.96)" fill="#3d3d3d"/>
    <path id="Path_28602" data-name="Path 28602" d="M1315.291,657.045s-.507,4.851,8.432,5.628a180.2,180.2,0,0,0,18.77.627l.916-3.847s-18.057-6.126-22.478-6.393c-5.258-.318-5.643,3.975-5.643,3.975" transform="translate(-848 -310.249)" fill="#f7a28a"/>
    <path id="Path_28603" data-name="Path 28603" d="M1442.315,678.609l5.7-1.191s3.674,1.758,4.818,4.043c-.836.937-3.118-1.04-3.118-1.04s.231,3.823-.329,4.549-3.361,1.211-4.278.422.678-1.726.678-1.726l-4.17-1.139s-1.942-2.911.7-3.918" transform="translate(-947.12 -329.474)" fill="#f7a28a"/>
    <path id="Path_28604" data-name="Path 28604" d="M1461.059,528.28a.156.156,0,1,0-.045.112.157.157,0,0,0,.045-.112" transform="translate(-962.754 -211.692)" fill="#f7a28a"/>
    <path id="Path_28605" data-name="Path 28605" d="M1533.609,652.7s3.011,3.838-4.142,9.254a180.288,180.288,0,0,1-15.558,10.516l-2.821-2.767s12.028-14.8,15.627-17.375c4.287-3.071,6.894.367,6.894.367" transform="translate(-1002.478 -308.677)" fill="#f7a28a"/>
    <path id="Path_28606" data-name="Path 28606" d="M1499.171,735.718l-3.182,4.879s.3,4.063,2.016,5.958c1.177-.439.164-3.283.164-3.283s3.478,1.6,4.36,1.347,2.349-2.693,1.948-3.833-1.856,0-1.856,0l.69-3.633c.564-2.025-2.8-3.486-4.14-1.441" transform="translate(-990.563 -374.686)" fill="#f7a28a"/>
    <path id="Path_28607" data-name="Path 28607" d="M703.832,1053.035c.553,5.208-2.072,10.762-5.374,10.722-4.53-.055-10.387-3.783-10.94-8.992s2.652-9.818,7.157-10.3,8.6,3.357,9.156,8.566" transform="translate(-352.694 -619.017)" fill="#f7b28a"/>
    <path id="Path_28608" data-name="Path 28608" d="M630.609,1652.359a40.164,40.164,0,0,1,8.464,0c3.078,2.031,4.4,1.913,4.4,1.913,1.314.344,1.9,2.149.76,2.149H630.226Z" transform="translate(-307.544 -1098.444)" fill="#fff"/>
    <path id="Path_28609" data-name="Path 28609" d="M739.564,1652.36a39.918,39.918,0,0,1,8.464,0c3.388,2.031,4.7,1.913,4.7,1.913,1.368.344,2.23,2.149,1.09,2.149H739.8Z" transform="translate(-393.803 -1098.444)" fill="#fff"/>
    <path id="Path_28610" data-name="Path 28610" d="M685.992,1104.421l-8.809-2.974,6.381-13.288,6.193,2.974Z" transform="translate(-344.591 -653.521)" fill="#f7b28a"/>
    <path id="Path_28611" data-name="Path 28611" d="M734.382,1208.2s6.834,5,3.5,10.319c-2.485,3.959-10.441-.328-10.441-4.935,0-4.152,3.2-6.6,6.943-5.386" transform="translate(-384.238 -747.967)" fill="#f2b231"/>
    <path id="Path_28612" data-name="Path 28612" d="M636.58,1307a29.9,29.9,0,0,0-2.742,8.522c-.385,2.016.067,11.135-.063,26.491a321.911,321.911,0,0,0-3.55,39.754l8.849-1.676,13.548-72.259Z" transform="translate(-307.543 -826.169)" fill="#333"/>
    <path id="Path_28613" data-name="Path 28613" d="M689.894,1315.73a335.291,335.291,0,0,1,3.11,34.8l2.052,36.446-8.415,1.609c-1.725-11.309-4.6-25.435-5.05-38.537l-9.176-34.21Z" transform="translate(-340.822 -833.049)" fill="#333"/>
    <path id="Path_28614" data-name="Path 28614" d="M647.232,1176.546c.583,3.524.9,3.762.9,3.762l22.42.5a15.316,15.316,0,0,1-.1-5.4,11.006,11.006,0,0,0-.019-3c-.213-2.283-.7-5.61-1.346-9.255-1.4-7.833-3.565-17.122-5.472-20.613l-9.787-2.348s-4.36,4.427-5.326,8.346-1.85,24.486-1.267,28.007" transform="translate(-320.813 -694.561)" fill="#ffd834"/>
    <path id="Path_28615" data-name="Path 28615" d="M722.644,1236.76l7.427,11.831c-.213-2.283-.7-5.612-1.346-9.255Z" transform="translate(-380.455 -770.752)" fill="#f2b231"/>
    <path id="Path_28616" data-name="Path 28616" d="M705.7,1222.79s-2.633,5.671.1,7.19,5.468-3.342,5.468-3.342Z" transform="translate(-366.183 -759.733)" fill="#f7b28a"/>
    <path id="Path_28617" data-name="Path 28617" d="M691.179,1151.2l-1.9,12.237-5.9-6.942s-5.3-5.374-9.555-.523,2.389,9.7,2.389,9.7,9.7,7.9,15.9,7.078,2.329-21.321,2.329-21.321Z" transform="translate(-340.825 -703.247)" fill="#ffd834"/>
    <path id="Path_28618" data-name="Path 28618" d="M757.759,1119.564l-.955-4.661,2.437-3.7s.908-.669,1.243,1.385c.667.955,1.481,1.667,1.385,2.743s-.839,4.464-.839,4.464Z" transform="translate(-407.404 -671.612)" fill="#f7b28a"/>
    <path id="Path_28619" data-name="Path 28619" d="M679.166,1133.5l.692-1.8,10.368,4.116.816,4.5Z" transform="translate(-346.155 -687.864)" fill="#ffeac2"/>
    <path id="Path_28620" data-name="Path 28620" d="M683.508,1052.394a15.658,15.658,0,0,1-2.324-10.687c1.058-5.821,9.683-7.038,9.683-7.038s8.995-.53,11.005,8.624c-.953,1.217-4.873-.794-4.873-.794l-6.436,5.873s.076-4.6-2.194-3.439-1.593,4.873-1.593,4.873a13.066,13.066,0,0,1-3.275,2.593" transform="translate(-347.583 -611.309)"/>
    <path id="Path_28621" data-name="Path 28621" d="M1864.81,973.7h0v0" transform="translate(-1281.538 -563.025)" fill="#d9ffff"/>
    <path id="Path_28622" data-name="Path 28622" d="M1864.81,973.7h0v0" transform="translate(-1281.538 -563.025)" fill="#d9ffff"/>
    <path id="Path_28625" data-name="Path 28625" d="M1920.526,869.558c-10.446,11.19-27.115,20.36-44.951,24.267,0,1.191-.034,7.792-.171,38.215-.181,40.581,38.44,60.412,44.436,63.455,5.809-2.674,44.918-22.474,45.1-63.055.136-30.421.165-37.021.171-38.215-17.8-4.066-34.24-13.384-44.583-24.668" transform="translate(-1289.892 -481.058)" fill="#fff"/>
    <path id="Path_28626" data-name="Path 28626" d="M1930.8,890.409c-10.772,9.875-25.687,17.643-42.093,21.875l-.162,36.2c-.074,16.562,6.506,31.547,19.557,44.535a93.543,93.543,0,0,0,22.166,16.208c.2-.1.413-.213.625-.323V890.494c-.031-.028-.064-.056-.094-.085" transform="translate(-1300.257 -497.507)" fill="#8ab5dc"/>
    <path id="Path_28627" data-name="Path 28627" d="M2089.181,890.808v118.405a93.574,93.574,0,0,0,21.685-15.686c13.166-12.871,19.877-27.8,19.954-44.358l.162-36.2c-16.32-4.36-31.128-12.231-41.806-22.165" transform="translate(-1458.54 -497.822)" fill="#5795ce"/>
    <path id="Path_28628" data-name="Path 28628" d="M2010.444,1062.69c-12.489,1.924-29.495,13.318-40.226,27.013-1.505-6.458-8.261-12.354-11.8-13.642l-10.709,10.763c6.686,3.013,13.993,11.55,14.961,20.291l10.7,1.658c4.51-8.909,16.158-30.219,39.332-41.677a17.571,17.571,0,0,0-2.261-4.405" transform="translate(-1346.94 -633.421)" fill="#08558c"/>
  </g>
</svg>
