<svg xmlns="http://www.w3.org/2000/svg" width="27.831" height="27.831" viewBox="0 0 27.831 27.831"><defs><style>.a{fill:#fff;}</style></defs><g transform="translate(0 -0.004)"><path class="a" d="M17.394,15.079a1.159,1.159,0,0,0-1.16,1.16v4.639a1.161,1.161,0,0,1-1.16,1.16H11.6V4.642a2.337,2.337,0,0,0-1.579-2.2l-.343-.115h5.4a1.161,1.161,0,0,1,1.16,1.16V6.962a1.16,1.16,0,0,0,2.319,0V3.483A3.483,3.483,0,0,0,15.075,0H2.609a.911.911,0,0,0-.124.025C2.429.025,2.376,0,2.319,0A2.321,2.321,0,0,0,0,2.323V23.2a2.337,2.337,0,0,0,1.579,2.2l6.979,2.326a2.4,2.4,0,0,0,.719.108A2.321,2.321,0,0,0,11.6,25.516v-1.16h3.479a3.483,3.483,0,0,0,3.479-3.479V16.238A1.159,1.159,0,0,0,17.394,15.079Zm0,0" transform="translate(0 0)"/><path class="a" d="M289.748,111.644l-4.639-4.638a1.159,1.159,0,0,0-1.979.82V111.3h-4.638a1.16,1.16,0,1,0,0,2.319h4.638V117.1a1.159,1.159,0,0,0,1.979.82l4.639-4.639A1.158,1.158,0,0,0,289.748,111.644Zm0,0" transform="translate(-262.257 -100.864)"/></g></svg>