<svg xmlns="http://www.w3.org/2000/svg" width="27.594" height="38" viewBox="0 0 27.594 38"><defs><style>.a{opacity:0.5;}.b{fill:#fff;}</style></defs><g class="a"><path class="b" d="M24.8,27.16H21.2v1.222a4.254,4.254,0,0,1-4.25,4.25h-6.3a4.254,4.254,0,0,1-4.25-4.25V27.16H2.8a2.8,2.8,0,0,0-2.8,2.8V59.544a2.8,2.8,0,0,0,2.8,2.8h22a2.8,2.8,0,0,0,2.8-2.8V29.956A2.8,2.8,0,0,0,24.8,27.16Zm-4.63,15.862-7.542,7.363a.727.727,0,0,1-1.015,0L7.426,46.3a.727.727,0,0,1,1.016-1.04l3.678,3.591,7.034-6.867a.727.727,0,0,1,1.016,1.04Zm0,0" transform="translate(0 -24.34)"/><path class="b" d="M78.413,6.838h6.3a2.8,2.8,0,0,0,2.8-2.8V2.82H85.139a.727.727,0,0,1-.71-.571,2.95,2.95,0,0,0-5.731,0,.727.727,0,0,1-.71.571H75.617V4.043A2.8,2.8,0,0,0,78.413,6.838Zm0,0" transform="translate(-67.766)"/></g></svg>