<svg id="Page-1" xmlns="http://www.w3.org/2000/svg" width="31.578" height="31.578" viewBox="0 0 31.578 31.578">
  <g id="_090---Settings-File" data-name="090---Settings-File" transform="translate(0 0)">
    <ellipse id="Oval" cx="0.5" cy="1.5" rx="0.5" ry="1.5" transform="translate(21.789 18.789)" fill="#1f1a17"/>
    <path id="Shape" d="M22.713,30.45H21.271a1.128,1.128,0,0,1-1.071-.771l-.614-1.843a8.42,8.42,0,0,1-1.62-.672l-1.739.869a1.128,1.128,0,0,1-1.3-.21L13.906,26.8a1.128,1.128,0,0,1-.211-1.3l.87-1.739a8.42,8.42,0,0,1-.672-1.62l-1.843-.615a1.128,1.128,0,0,1-.771-1.07V19.015a1.128,1.128,0,0,1,.771-1.071l1.843-.614a8.42,8.42,0,0,1,.672-1.62l-.87-1.739a1.128,1.128,0,0,1,.211-1.3l1.021-1.021a1.128,1.128,0,0,1,1.3-.211l1.739.87a8.42,8.42,0,0,1,1.62-.672L20.2,9.792a1.128,1.128,0,0,1,1.07-.77h1.442a1.116,1.116,0,0,1,.97.58V1.692A1.692,1.692,0,0,0,21.992,0H3.834L6.752,2.386a2.819,2.819,0,0,1,.071,4.3L0,12.662V29.886a1.692,1.692,0,0,0,1.692,1.692h20.3a1.692,1.692,0,0,0,1.692-1.692v-.016A1.115,1.115,0,0,1,22.713,30.45ZM12.97,4.511h7.895a.564.564,0,0,1,0,1.128H12.97a.564.564,0,0,1,0-1.128ZM11.842,7.895h6.2a.564.564,0,0,1,0,1.128h-6.2a.564.564,0,0,1,0-1.128ZM2.256,27.067a.564.564,0,0,1-1.128,0V16.917a.564.564,0,1,1,1.128,0Zm0-12.406a.564.564,0,1,1-1.128,0V13.533a.564.564,0,0,1,1.128,0ZM9.586,9.022H7.331a.564.564,0,0,1,0-1.128H9.586a.564.564,0,0,1,0,1.128Zm1.128-3.383H9.586a.564.564,0,1,1,0-1.128h1.128a.564.564,0,1,1,0,1.128Z" transform="translate(0 0)" fill="#1f1a17"/>
    <path id="Shape-2" data-name="Shape" d="M6.929,4.893a1.688,1.688,0,0,0-.62-1.282L2.881.808.62,11.209,6.351,6.194a1.688,1.688,0,0,0,.577-1.3Z" transform="translate(-0.27 -0.352)" fill="#1f1a17"/>
    <path id="Shape-3" data-name="Shape" d="M35.075,26a5.075,5.075,0,1,0,5.075,5.075A5.075,5.075,0,0,0,35.075,26Zm0,7.331a2.256,2.256,0,1,1,2.256-2.256A2.256,2.256,0,0,1,35.075,33.331Z" transform="translate(-13.083 -11.339)" fill="#1f1a17"/>
    <path id="Shape-4" data-name="Shape" d="M39.045,26.156a.564.564,0,0,1-.368-.395,7.274,7.274,0,0,0-.786-1.9.564.564,0,0,1-.019-.54l1-2.007L37.854,20.3l-2.007,1a.564.564,0,0,1-.54-.019,7.274,7.274,0,0,0-1.9-.786.564.564,0,0,1-.395-.368L32.307,18H30.865l-.709,2.128a.564.564,0,0,1-.395.368,7.274,7.274,0,0,0-1.9.786.564.564,0,0,1-.54.019l-2.007-1L24.3,21.318l1,2.007a.564.564,0,0,1-.019.54,7.274,7.274,0,0,0-.786,1.9.564.564,0,0,1-.368.395L22,26.865v1.442l2.128.709a.564.564,0,0,1,.368.395,7.274,7.274,0,0,0,.786,1.9.564.564,0,0,1,.019.54l-1,2.007,1.021,1.021,2.007-1a.564.564,0,0,1,.54.019,7.274,7.274,0,0,0,1.9.786.564.564,0,0,1,.395.368l.709,2.127h1.442l.709-2.128a.564.564,0,0,1,.395-.368,7.274,7.274,0,0,0,1.9-.786.564.564,0,0,1,.54-.019l2.007,1,1.021-1.02-1-2.007a.564.564,0,0,1,.019-.54,7.275,7.275,0,0,0,.786-1.9.564.564,0,0,1,.368-.395l2.127-.709V26.865Zm-7.459,7.633a6.2,6.2,0,1,1,6.2-6.2A6.2,6.2,0,0,1,31.586,33.789Z" transform="translate(-9.594 -7.85)" fill="#1f1a17"/>
  </g>
</svg>
