<svg id="status-bar" xmlns="http://www.w3.org/2000/svg" width="29.885" height="29.885" viewBox="0 0 29.885 29.885">
  <g id="Group_4521" data-name="Group 4521" transform="translate(10.565 10.506)">
    <g id="Group_4520" data-name="Group 4520">
      <path id="Path_2321" data-name="Path 2321" d="M188.857,180a4.333,4.333,0,0,1-6.96,0,4.335,4.335,0,0,0-.9,2.627v1.751a.875.875,0,0,0,.876.876h7a.875.875,0,0,0,.876-.876v-1.751A4.335,4.335,0,0,0,188.857,180Z" transform="translate(-181 -180)" fill="#1f1a17"/>
    </g>
  </g>
  <g id="Group_4523" data-name="Group 4523" transform="translate(12.316 5.253)">
    <g id="Group_4522" data-name="Group 4522">
      <path id="Path_2322" data-name="Path 2322" d="M213.627,90a2.627,2.627,0,1,0,2.627,2.627A2.63,2.63,0,0,0,213.627,90Z" transform="translate(-211 -90)" fill="#1f1a17"/>
    </g>
  </g>
  <g id="Group_4525" data-name="Group 4525" transform="translate(21.129 5.253)">
    <g id="Group_4524" data-name="Group 4524">
      <path id="Path_2323" data-name="Path 2323" d="M369.857,90a4.333,4.333,0,0,1-6.96,0,4.335,4.335,0,0,0-.9,2.627v1.751a.875.875,0,0,0,.876.876h7a.875.875,0,0,0,.876-.876V92.627A4.335,4.335,0,0,0,369.857,90Z" transform="translate(-362 -90)" fill="#1f1a17"/>
    </g>
  </g>
  <g id="Group_4527" data-name="Group 4527" transform="translate(22.881)">
    <g id="Group_4526" data-name="Group 4526">
      <path id="Path_2324" data-name="Path 2324" d="M394.627,0a2.627,2.627,0,1,0,2.627,2.627A2.63,2.63,0,0,0,394.627,0Z" transform="translate(-392)" fill="#1f1a17"/>
    </g>
  </g>
  <g id="Group_4529" data-name="Group 4529" transform="translate(0 15.76)">
    <g id="Group_4528" data-name="Group 4528">
      <path id="Path_2325" data-name="Path 2325" d="M7.857,270A4.333,4.333,0,0,1,.9,270a4.335,4.335,0,0,0-.9,2.627v1.751a.875.875,0,0,0,.876.876h7a.875.875,0,0,0,.876-.876v-1.751A4.335,4.335,0,0,0,7.857,270Z" transform="translate(0 -270)" fill="#1f1a17"/>
    </g>
  </g>
  <g id="Group_4531" data-name="Group 4531" transform="translate(1.751 10.506)">
    <g id="Group_4530" data-name="Group 4530">
      <path id="Path_2326" data-name="Path 2326" d="M32.627,180a2.627,2.627,0,1,0,2.627,2.627A2.629,2.629,0,0,0,32.627,180Z" transform="translate(-30 -180)" fill="#1f1a17"/>
    </g>
  </g>
  <g id="Group_4533" data-name="Group 4533" transform="translate(0 12.257)">
    <g id="Group_4532" data-name="Group 4532">
      <path id="Path_2327" data-name="Path 2327" d="M29.009,210H22a.875.875,0,0,0-.876.876v15H19.32v-9.748a.875.875,0,0,0-.876-.876h-7a.875.875,0,0,0-.876.876v9.748H8.755v-4.494a.875.875,0,0,0-.876-.876h-7a.875.875,0,0,0-.876.876v5.37a.875.875,0,0,0,.876.876H29.009a.875.875,0,0,0,.876-.876V210.876A.875.875,0,0,0,29.009,210Z" transform="translate(0 -210)" fill="#1f1a17"/>
    </g>
  </g>
</svg>
