<svg xmlns="http://www.w3.org/2000/svg" width="29.885" height="29.885" viewBox="0 0 29.885 29.885"><defs><style>.a{fill:#fff;}</style></defs><g transform="translate(10.565 10.506)"><path class="a" d="M188.857,180a4.333,4.333,0,0,1-6.96,0,4.335,4.335,0,0,0-.9,2.627v1.751a.875.875,0,0,0,.876.876h7a.875.875,0,0,0,.876-.876v-1.751A4.335,4.335,0,0,0,188.857,180Z" transform="translate(-181 -180)"/></g><g transform="translate(12.316 5.253)"><path class="a" d="M213.627,90a2.627,2.627,0,1,0,2.627,2.627A2.63,2.63,0,0,0,213.627,90Z" transform="translate(-211 -90)"/></g><g transform="translate(21.129 5.253)"><path class="a" d="M369.857,90a4.333,4.333,0,0,1-6.96,0,4.335,4.335,0,0,0-.9,2.627v1.751a.875.875,0,0,0,.876.876h7a.875.875,0,0,0,.876-.876V92.627A4.335,4.335,0,0,0,369.857,90Z" transform="translate(-362 -90)"/></g><g transform="translate(22.881)"><path class="a" d="M394.627,0a2.627,2.627,0,1,0,2.627,2.627A2.63,2.63,0,0,0,394.627,0Z" transform="translate(-392)"/></g><g transform="translate(0 15.76)"><path class="a" d="M7.857,270A4.333,4.333,0,0,1,.9,270a4.335,4.335,0,0,0-.9,2.627v1.751a.875.875,0,0,0,.876.876h7a.875.875,0,0,0,.876-.876v-1.751A4.335,4.335,0,0,0,7.857,270Z" transform="translate(0 -270)"/></g><g transform="translate(1.751 10.506)"><path class="a" d="M32.627,180a2.627,2.627,0,1,0,2.627,2.627A2.629,2.629,0,0,0,32.627,180Z" transform="translate(-30 -180)"/></g><g transform="translate(0 12.257)"><path class="a" d="M29.009,210H22a.875.875,0,0,0-.876.876v15H19.32v-9.748a.875.875,0,0,0-.876-.876h-7a.875.875,0,0,0-.876.876v9.748H8.755v-4.494a.875.875,0,0,0-.876-.876h-7a.875.875,0,0,0-.876.876v5.37a.875.875,0,0,0,.876.876H29.009a.875.875,0,0,0,.876-.876V210.876A.875.875,0,0,0,29.009,210Z" transform="translate(0 -210)"/></g></svg>