<svg xmlns="http://www.w3.org/2000/svg" width="33.74" height="33.74" viewBox="0 0 33.74 33.74"><defs><style>.a{fill:#fff;}</style></defs><g transform="translate(20.56 2.636)"><path class="a" d="M316.876,40a4.873,4.873,0,0,0-3.361,8.4.65.65,0,0,0,.078.074,4.867,4.867,0,0,0,6.566,0,.658.658,0,0,0,.078-.074,4.873,4.873,0,0,0-3.361-8.4Zm0,8.435a3.538,3.538,0,0,1-2.044-.648,2.425,2.425,0,0,1,4.088,0A3.538,3.538,0,0,1,316.876,48.435Zm-.678-3.764v-.334a.678.678,0,0,1,1.356,0v.334a.678.678,0,1,1-1.356,0Zm3.656,2.15a3.71,3.71,0,0,0-1.3-1.077,1.983,1.983,0,0,0,.314-1.073v-.334a2,2,0,0,0-3.992,0v.334a1.984,1.984,0,0,0,.314,1.073,3.709,3.709,0,0,0-1.3,1.077,3.559,3.559,0,1,1,5.956,0Z" transform="translate(-312 -40)"/></g><path class="a" d="M33.037,25.536a2.547,2.547,0,0,0-3.248-.3l-.022.016-3.694,2.778a.659.659,0,1,0,.792,1.053l3.682-2.769a1.229,1.229,0,0,1,1.557.15,1.083,1.083,0,0,1-.084,1.607l-3.372,2.731a7.271,7.271,0,0,1-4.562,1.616H14.333a7.248,7.248,0,0,1-3.755-1.048L7.924,29.766v-8.34h5.082a2.618,2.618,0,0,1,1.863.771l3.506,3.522a2.619,2.619,0,0,0,1.864.772h2.586a.987.987,0,1,1,0,1.974H17.858a2.341,2.341,0,0,1-1.28-.38L14.464,26.71l-.008-.005a.659.659,0,1,0-.72,1.1L15.86,29.19a3.656,3.656,0,0,0,2,.593h4.966a2.305,2.305,0,1,0,0-4.61H20.28l5.479-3.163h6.663a1.319,1.319,0,0,0,1.318-1.318V1.318A1.319,1.319,0,0,0,32.422,0H18.451a1.319,1.319,0,0,0-1.318,1.318V20.692a1.319,1.319,0,0,0,1.318,1.318h4.672l-4.179,2.413h0L15.8,21.266a3.928,3.928,0,0,0-2.8-1.158H7.924V18.946a1.319,1.319,0,0,0-1.318-1.318H.659A.659.659,0,0,0,0,18.287V33.081a.659.659,0,0,0,.659.659H6.606a1.319,1.319,0,0,0,1.318-1.318V31.307L9.9,32.5a8.566,8.566,0,0,0,4.438,1.239h9.753a8.593,8.593,0,0,0,5.392-1.91L32.85,29.1a2.4,2.4,0,0,0,.186-3.563ZM18.451,20.692V1.318h13.97V20.692H18.451ZM6.606,32.422H1.318V18.946H6.606V30.105c0,.017,0,.033,0,.05v2.267Z"/><g transform="translate(7.939 2.989)"><path class="a" d="M127.972,45.694a.659.659,0,0,0-.9-.241l-5.932,3.425a1.32,1.32,0,0,0-.482,1.8l5.757,9.972a.659.659,0,1,0,1.141-.659L121.8,50.019l5.932-3.425A.659.659,0,0,0,127.972,45.694Z" transform="translate(-120.481 -45.364)"/></g><g transform="translate(21.219 13.97)"><path class="a" d="M330.3,212h-7.644a.659.659,0,1,0,0,1.318H330.3a.659.659,0,0,0,0-1.318Z" transform="translate(-322 -212)"/></g><g transform="translate(28.863 16.87)"><path class="a" d="M439.125,256.193a.659.659,0,1,0,.193.466A.664.664,0,0,0,439.125,256.193Z" transform="translate(-438 -256)"/></g><g transform="translate(21.219 16.87)"><path class="a" d="M327.555,256h-4.9a.659.659,0,1,0,0,1.318h4.9a.659.659,0,0,0,0-1.318Z" transform="translate(-322 -256)"/></g><g transform="translate(3.303 24.286)"><path class="a" d="M50.784,368.547a.659.659,0,0,0-.659.659v2.578a.659.659,0,1,0,1.318,0v-2.578A.659.659,0,0,0,50.784,368.547Z" transform="translate(-50.125 -368.547)"/></g><g transform="translate(3.303 29.133)"><path class="a" d="M51.255,442.283a.66.66,0,1,0,.192.466A.666.666,0,0,0,51.255,442.283Z" transform="translate(-50.13 -442.09)"/></g></svg>