<svg id="Group_16950" data-name="Group 16950" xmlns="http://www.w3.org/2000/svg" width="45.117" height="45.117" viewBox="0 0 45.117 45.117">
  <path id="Frames-24px" d="M0,0H45.117V45.117H0Z" fill="none"/>
  <path id="Solid" d="M37.718,26.438h-3.76v-1.88a5.647,5.647,0,0,0-5.64-5.64h-5.64v-3.76h3.76a1.88,1.88,0,0,0,1.88-1.88V3.88A1.88,1.88,0,0,0,26.438,2H15.159a1.88,1.88,0,0,0-1.88,1.88v9.4a1.88,1.88,0,0,0,1.88,1.88h3.76v3.76h-5.64a5.647,5.647,0,0,0-5.64,5.64v1.88H3.88A1.88,1.88,0,0,0,2,28.318v9.4A1.88,1.88,0,0,0,3.88,39.6H15.159a1.88,1.88,0,0,0,1.88-1.88v-9.4a1.88,1.88,0,0,0-1.88-1.88H11.4v-1.88a1.883,1.883,0,0,1,1.88-1.88H28.318a1.883,1.883,0,0,1,1.88,1.88v1.88h-3.76a1.88,1.88,0,0,0-1.88,1.88v9.4a1.88,1.88,0,0,0,1.88,1.88H37.718a1.88,1.88,0,0,0,1.88-1.88v-9.4A1.88,1.88,0,0,0,37.718,26.438Z" transform="translate(1.76 1.76)" fill="#23a4c9"/>
</svg>
