<svg xmlns="http://www.w3.org/2000/svg" width="137.886" height="144.268" viewBox="0 0 137.886 144.268">
  <g id="Envelope" transform="translate(-181.538 -185.523)">
    <g id="Group_98" data-name="Group 98">
      <g id="Group_93" data-name="Group 93">
        <g id="Group_92" data-name="Group 92">
          <g id="Group_89" data-name="Group 89">
            <g id="Group_76" data-name="Group 76">
              <g id="Group_75" data-name="Group 75">
                <path id="Path_27" data-name="Path 27" d="M182.551,240.225l133.16-.967,3.711,90.532L181.54,328.512Z" fill="#2fba3f"/>
              </g>
            </g>
            <g id="Group_78" data-name="Group 78">
              <g id="Group_77" data-name="Group 77">
                <path id="Path_28" data-name="Path 28" d="M182.551,240.225l67.6-54.7,65.557,53.735" fill="#2fba3f"/>
              </g>
            </g>
            <g id="Group_80" data-name="Group 80" transform="translate(8 52)" opacity="0.3">
              <g id="Group_79" data-name="Group 79">
                <path id="Path_29" data-name="Path 29" d="M182.551,240.225l67.6-54.7,65.557,53.735" transform="translate(-8 -52)"/>
              </g>
            </g>
            <g id="Group_83" data-name="Group 83">
              <g id="Group_82" data-name="Group 82">
                <g id="Group_81" data-name="Group 81">
                  <path id="Path_30" data-name="Path 30" d="M181.54,328.512c-.166-.156,10.5-11.795,23.808-25.994s24.245-25.588,24.411-25.432-10.492,11.792-23.809,26S181.707,328.668,181.54,328.512Z" fill="#263238"/>
                </g>
              </g>
            </g>
            <g id="Group_86" data-name="Group 86">
              <g id="Group_85" data-name="Group 85">
                <g id="Group_84" data-name="Group 84">
                  <path id="Path_31" data-name="Path 31" d="M319.422,329.79c-.17.152-10.551-11.253-23.185-25.468S273.5,278.454,273.666,278.3s10.55,11.251,23.188,25.472S319.593,329.639,319.422,329.79Z" fill="#263238"/>
                </g>
              </g>
            </g>
            <g id="Group_88" data-name="Group 88" opacity="0.5">
              <g id="Group_87" data-name="Group 87">
                <path id="Path_32" data-name="Path 32" d="M315.711,239.258l-66.866,53.416-66.294-52.449"/>
              </g>
            </g>
          </g>
          <g id="Group_91" data-name="Group 91">
            <g id="Group_90" data-name="Group 90">
              <path id="Path_33" data-name="Path 33" d="M189.257,245.172l-.193-38.735,116.626-2.854,1.273,42.38-58.124,46.013Z" fill="#ebebeb"/>
            </g>
          </g>
        </g>
      </g>
      <g id="Group_97" data-name="Group 97">
        <g id="Group_94" data-name="Group 94">
          <path id="Path_34" data-name="Path 34" d="M250.466,278.059a29.5,29.5,0,0,1-3.323-.189,29.012,29.012,0,1,1,32.1-25.561h0a29.022,29.022,0,0,1-28.772,25.75Zm-.077-57.032A28.015,28.015,0,1,0,278.244,252.2h0a28.013,28.013,0,0,0-24.681-30.99A28.367,28.367,0,0,0,250.389,221.027Z" fill="#2fba3f"/>
        </g>
        <g id="Group_96" data-name="Group 96">
          <g id="Group_95" data-name="Group 95">
            <path id="Path_35" data-name="Path 35" d="M230.689,253.071l4.848-5.942,11.343,8.194L265.312,233.6l5.557,4.887-23.7,27.321Z" fill="#2fba3f"/>
          </g>
        </g>
      </g>
    </g>
  </g>
</svg>
