<svg xmlns="http://www.w3.org/2000/svg" xmlns:xlink="http://www.w3.org/1999/xlink" width="256.629" height="42.566" viewBox="0 0 256.629 42.566">
  <defs>
    <clipPath id="clip-path">
      <path id="Path_71" data-name="Path 71" d="M154.956,63.863v-9.3a3.423,3.423,0,0,0-.594-2.33,2.626,2.626,0,0,0-1.966-.621,2.894,2.894,0,0,0-1.312.289,2.85,2.85,0,0,0-.976.791,3.5,3.5,0,0,0-.594,1.159,4.858,4.858,0,0,0-.2,1.417v8.591h-3.964V43.39h3.964v7.436a3.057,3.057,0,0,1,.655-.93,4.21,4.21,0,0,1,1.022-.746,5.977,5.977,0,0,1,1.28-.488,5.77,5.77,0,0,1,1.463-.182,5.52,5.52,0,0,1,3.765,1.265,4.427,4.427,0,0,1,1.448,3.519v10.6ZM144.194,58.44a6.32,6.32,0,0,1-.747,2.376,6.434,6.434,0,0,1-1.509,1.828,6.914,6.914,0,0,1-2.089,1.188,7.39,7.39,0,0,1-2.546.426,7.5,7.5,0,0,1-2.79-.5,5.722,5.722,0,0,1-2.179-1.524,7.081,7.081,0,0,1-1.418-2.53,11.117,11.117,0,0,1-.5-3.519,10.69,10.69,0,0,1,.5-3.474,6.227,6.227,0,0,1,1.418-2.392,5.723,5.723,0,0,1,2.209-1.384,8.623,8.623,0,0,1,2.881-.457,8.507,8.507,0,0,1,2.668.4,6.227,6.227,0,0,1,2.1,1.159,5.549,5.549,0,0,1,1.418,1.828,6.4,6.4,0,0,1,.609,2.376H140.23a2.735,2.735,0,0,0-.93-1.813,2.855,2.855,0,0,0-1.9-.655,3.268,3.268,0,0,0-1.189.214,2.327,2.327,0,0,0-.96.716,3.76,3.76,0,0,0-.655,1.341,7.439,7.439,0,0,0-.244,2.055,6.134,6.134,0,0,0,.884,3.656,2.53,2.53,0,0,0,2.043,1.188,3.133,3.133,0,0,0,1.982-.64,2.555,2.555,0,0,0,.945-1.858ZM118.982,57.4a4.275,4.275,0,0,0,.991,2.711,3.017,3.017,0,0,0,2.362,1.005,3.326,3.326,0,0,0,1.723-.442,2,2,0,0,0,.96-1.234H129.1a6.576,6.576,0,0,1-2.44,3.565,6.915,6.915,0,0,1-4.146,1.249q-7.5,0-7.5-8.165a9.494,9.494,0,0,1,.489-3.138,6.768,6.768,0,0,1,1.418-2.407,6.127,6.127,0,0,1,2.271-1.538,8.289,8.289,0,0,1,3.079-.533,6.343,6.343,0,0,1,5.26,2.224q1.785,2.224,1.783,6.7Zm6.25-2.5a4.139,4.139,0,0,0-.289-1.447,3.024,3.024,0,0,0-.685-1.037,2.715,2.715,0,0,0-.976-.609,3.288,3.288,0,0,0-1.128-.2,2.814,2.814,0,0,0-2.058.869,3.7,3.7,0,0,0-.991,2.424Zm-18.17,8.959v-16.7h-6.1V43.633h16.463v3.535H111.3v16.7Zm-6.342,0v-2.1a5.09,5.09,0,0,1-4.664,2.5,5.206,5.206,0,0,1-2.058-.4,4.6,4.6,0,0,1-1.6-1.127A5.339,5.339,0,0,1,91.346,61a6.305,6.305,0,0,1-.382-2.255V48.876h3.963v9.259q0,2.8,2.53,2.8a2.787,2.787,0,0,0,2.3-.96,3.776,3.776,0,0,0,.777-2.453V48.876h3.933V63.863Zm-15.3,0-.03-1.828a4.573,4.573,0,0,1-4.177,2.223,6.19,6.19,0,0,1-2.621-.548,5.723,5.723,0,0,1-2.043-1.585A7.666,7.666,0,0,1,75.2,59.6a10.852,10.852,0,0,1-.488-3.382,11.163,11.163,0,0,1,.412-3.124,7.375,7.375,0,0,1,1.2-2.453,5.437,5.437,0,0,1,1.935-1.6,5.826,5.826,0,0,1,2.607-.563,5.218,5.218,0,0,1,4.451,2.349V43.39h3.9V63.863Zm-3.292-2.833a2.96,2.96,0,0,0,2.393-1.188,4.789,4.789,0,0,0,.96-3.109q0-4.876-3.323-4.875-3.414,0-3.414,4.631a5.323,5.323,0,0,0,.945,3.275,2.912,2.912,0,0,0,2.439,1.265ZM58.709,63.863V43.633H73.586v3.535H62.825v4.325h9.908v3.565H62.825v5.21H74.074v3.6Z" transform="translate(-58.709 -43.39)" fill="none"/>
    </clipPath>
    <linearGradient id="linear-gradient" x1="0.353" y1="0.659" x2="0.871" y2="0.097" gradientUnits="objectBoundingBox">
      <stop offset="0" stop-color="#16bef0"/>
      <stop offset="1" stop-color="#54b952"/>
    </linearGradient>
    <linearGradient id="linear-gradient-2" x1="0.5" x2="0.5" y2="1" gradientUnits="objectBoundingBox">
      <stop offset="0" stop-color="#54b952"/>
      <stop offset="0.848" stop-color="#34bca3"/>
      <stop offset="1" stop-color="#16bef0"/>
    </linearGradient>
  </defs>
  <g id="Group_1" data-name="Group 1" transform="translate(13862 -2308.996)">
    <path id="Skills_Exchange" data-name="Skills Exchange" d="M3.33-1.533H8.906V0H1.533V-14.219h1.8ZM16.63,0a3.8,3.8,0,0,1-.225-1.152A2.745,2.745,0,0,1,14.062.2,3.029,3.029,0,0,1,11.821-.61a3.07,3.07,0,0,1-.806-2.271,3.212,3.212,0,0,1,1.094-2.559,4.5,4.5,0,0,1,3-.967h1.27V-7.529a1.806,1.806,0,0,0-.42-1.348,1.794,1.794,0,0,0-1.279-.4,1.768,1.768,0,0,0-1.27.464,1.553,1.553,0,0,0-.488,1.177H11.191a2.8,2.8,0,0,1,.479-1.548,3.333,3.333,0,0,1,1.289-1.157,3.868,3.868,0,0,1,1.807-.42,3.44,3.44,0,0,1,2.466.806A3.153,3.153,0,0,1,18.1-7.607v5.332a6.435,6.435,0,0,0,.332,2.119V0Zm-2.3-1.377a2.29,2.29,0,0,0,1.211-.352,2.168,2.168,0,0,0,.84-.879v-2.52H15.4a3.271,3.271,0,0,0-1.943.552,1.752,1.752,0,0,0-.713,1.489,1.932,1.932,0,0,0,.361,1.3A1.57,1.57,0,0,0,14.326-1.377ZM25.536-8.945a4.205,4.205,0,0,0-.781-.068A1.9,1.9,0,0,0,22.9-7.559V0H21.171V-10.566h1.68l.029,1.074a2.151,2.151,0,0,1,1.963-1.27,1.522,1.522,0,0,1,.684.137Zm7.255,6.24a1.277,1.277,0,0,0-.42-.957A6.211,6.211,0,0,0,30.751-4.6a10.6,10.6,0,0,1-1.968-.986,2.806,2.806,0,0,1-.854-.933,2.577,2.577,0,0,1-.283-1.245,2.772,2.772,0,0,1,.942-2.144,3.446,3.446,0,0,1,2.407-.854,3.435,3.435,0,0,1,2.48.9,3.052,3.052,0,0,1,.938,2.3H32.694a1.7,1.7,0,0,0-.479-1.216,1.611,1.611,0,0,0-1.221-.5,1.711,1.711,0,0,0-1.2.4,1.363,1.363,0,0,0-.435,1.06,1.158,1.158,0,0,0,.317.85,5.653,5.653,0,0,0,1.528.85,7.683,7.683,0,0,1,2.617,1.47,2.515,2.515,0,0,1,.693,1.821,2.775,2.775,0,0,1-.947,2.2A3.73,3.73,0,0,1,31.034.2a3.787,3.787,0,0,1-2.676-.947,3.128,3.128,0,0,1-1.025-2.4h1.738a1.936,1.936,0,0,0,.537,1.377,1.95,1.95,0,0,0,1.426.5,1.956,1.956,0,0,0,1.309-.386A1.3,1.3,0,0,0,32.792-2.705ZM40.946.2A3.854,3.854,0,0,1,37.918-.981a5.086,5.086,0,0,1-1.074-3.452V-5.713a5.955,5.955,0,0,1,1.03-3.706,3.419,3.419,0,0,1,2.876-1.343A3.294,3.294,0,0,1,43.524-9.58,6.073,6.073,0,0,1,44.461-5.9v1.133h-5.9v.244a3.855,3.855,0,0,0,.64,2.471,2.255,2.255,0,0,0,1.841.771,2.986,2.986,0,0,0,1.343-.288,3.336,3.336,0,0,0,1.089-.913l.9,1.094A3.921,3.921,0,0,1,40.946.2Zm-.2-9.473a1.812,1.812,0,0,0-1.592.737,4.376,4.376,0,0,0-.586,2.29h4.16v-.234a4.038,4.038,0,0,0-.542-2.148A1.67,1.67,0,0,0,40.75-9.277Zm7.812-1.289.049,1.143a3.084,3.084,0,0,1,2.568-1.338q2.8,0,2.842,3.74V0H52.3V-6.943a2.879,2.879,0,0,0-.415-1.763,1.494,1.494,0,0,0-1.245-.522,1.754,1.754,0,0,0-1.157.43,3.1,3.1,0,0,0-.825,1.123V0H46.932V-10.566ZM61.706-3.818a3.714,3.714,0,0,1,.483-1.86A7.948,7.948,0,0,1,64.04-7.666a9.881,9.881,0,0,1-1.1-1.851,3.781,3.781,0,0,1-.3-1.44,3.631,3.631,0,0,1,.835-2.544,2.889,2.889,0,0,1,2.241-.913,2.819,2.819,0,0,1,2.119.859,2.97,2.97,0,0,1,.83,2.148,3.632,3.632,0,0,1-.332,1.553,4.542,4.542,0,0,1-1.172,1.445l-1.006.859,2.5,3.6a7.075,7.075,0,0,0,.459-2.617h1.543a7.574,7.574,0,0,1-1,4.063L71.4,0h-2.07l-.723-1.045a4,4,0,0,1-1.348.908A4.2,4.2,0,0,1,65.622.2,3.761,3.761,0,0,1,62.771-.918,4.023,4.023,0,0,1,61.706-3.818Zm3.916,2.539a2.791,2.791,0,0,0,2.1-1.074L64.9-6.465l-.293.244a3.3,3.3,0,0,0-1.182,2.4,2.773,2.773,0,0,0,.586,1.836A1.985,1.985,0,0,0,65.622-1.279Zm-1.26-9.736a2.523,2.523,0,0,0,.264,1.084A9.214,9.214,0,0,0,65.31-8.75l.752-.645a2.859,2.859,0,0,0,.811-.923,2.488,2.488,0,0,0,.215-1.089A1.573,1.573,0,0,0,66.7-12.49a1.263,1.263,0,0,0-.986-.439,1.121,1.121,0,0,0-.991.547A2.454,2.454,0,0,0,64.363-11.016Zm22.04-1.66h-3.74V0H80.875V-12.676h-3.73v-1.543H86.4Zm.927,6.9a5.525,5.525,0,0,1,1.118-3.647A3.654,3.654,0,0,1,91.4-10.762a3.694,3.694,0,0,1,2.954,1.309A5.422,5.422,0,0,1,95.5-5.889v1.113a5.505,5.505,0,0,1-1.113,3.633A3.667,3.667,0,0,1,91.422.2a3.678,3.678,0,0,1-2.944-1.3A5.391,5.391,0,0,1,87.33-4.619Zm1.729,1a4.477,4.477,0,0,0,.64,2.563,1.99,1.99,0,0,0,1.724.933q2.285,0,2.354-3.3V-5.771a4.48,4.48,0,0,0-.645-2.563A2,2,0,0,0,91.4-9.277a1.968,1.968,0,0,0-1.7.942,4.486,4.486,0,0,0-.64,2.554ZM103.521-.928A2.967,2.967,0,0,1,101.011.2,2.524,2.524,0,0,1,98.843-.8,4.853,4.853,0,0,1,98.1-3.682v-6.885H99.82v6.758q0,2.471,1.484,2.471a2.165,2.165,0,0,0,2.168-1.406v-7.822H105.2V0H103.56Zm12.334-3.848a6.417,6.417,0,0,1-.889,3.721A2.966,2.966,0,0,1,112.388.2a2.733,2.733,0,0,1-2.52-1.445L109.78,0h-1.572V-15h1.719v5.6a2.715,2.715,0,0,1,2.441-1.357,2.982,2.982,0,0,1,2.607,1.23,6.5,6.5,0,0,1,.879,3.711Zm-1.719-.986a5.08,5.08,0,0,0-.522-2.671,1.876,1.876,0,0,0-1.694-.8,2.118,2.118,0,0,0-1.992,1.445v5.029a2.117,2.117,0,0,0,2.012,1.426,1.821,1.821,0,0,0,1.68-.82,5.028,5.028,0,0,0,.518-2.549Zm8.691-3.184a4.205,4.205,0,0,0-.781-.068,1.9,1.9,0,0,0-1.855,1.455V0h-1.729V-10.566h1.68l.029,1.074a2.151,2.151,0,0,1,1.963-1.27,1.522,1.522,0,0,1,.684.137Zm1.562,3.174a5.525,5.525,0,0,1,1.118-3.647,3.654,3.654,0,0,1,2.954-1.343,3.694,3.694,0,0,1,2.954,1.309,5.422,5.422,0,0,1,1.147,3.564v1.113a5.505,5.505,0,0,1-1.113,3.633A3.667,3.667,0,0,1,128.481.2a3.678,3.678,0,0,1-2.944-1.3,5.391,5.391,0,0,1-1.147-3.516Zm1.729,1a4.477,4.477,0,0,0,.64,2.563,1.99,1.99,0,0,0,1.724.933q2.285,0,2.354-3.3V-5.771a4.48,4.48,0,0,0-.645-2.563,2,2,0,0,0-1.729-.942,1.968,1.968,0,0,0-1.7.942,4.486,4.486,0,0,0-.64,2.554ZM7.547,13.9a4.964,4.964,0,0,1-.868,3.138,2.96,2.96,0,0,1-2.468,1.1,3,3,0,0,1-2.43-1.07,4.732,4.732,0,0,1-.926-3.025V12.169a4.97,4.97,0,0,1,.882-3.127A2.943,2.943,0,0,1,4.2,7.91,2.979,2.979,0,0,1,6.648,8.994a4.883,4.883,0,0,1,.9,3.093ZM6.3,12.155A4.266,4.266,0,0,0,5.78,9.807,1.774,1.774,0,0,0,4.2,9.038a1.767,1.767,0,0,0-1.562.779,4.129,4.129,0,0,0-.537,2.3V13.9a4.217,4.217,0,0,0,.53,2.324,1.773,1.773,0,0,0,1.583.8,1.759,1.759,0,0,0,1.559-.738A4.148,4.148,0,0,0,6.3,14.021ZM10.124,18V11.581H9.16V10.6h.964V9.749a2.672,2.672,0,0,1,.571-1.76,1.951,1.951,0,0,1,1.555-.632,2.426,2.426,0,0,1,.731.116L12.92,8.5a2.4,2.4,0,0,0-.554-.062q-1.032,0-1.032,1.47v.7H12.6v.978H11.334V18Zm4.71,0V11.581H13.87V10.6h.964V9.749a2.672,2.672,0,0,1,.571-1.76,1.951,1.951,0,0,1,1.555-.632,2.426,2.426,0,0,1,.731.116L17.629,8.5a2.4,2.4,0,0,0-.554-.062q-1.032,0-1.032,1.47v.7h1.265v.978H16.043V18Zm6.583-.9a1.283,1.283,0,0,0,.964-.373,1.581,1.581,0,0,0,.4-1.063h1.142a2.515,2.515,0,0,1-.755,1.767,2.4,2.4,0,0,1-1.747.7,2.573,2.573,0,0,1-2.1-.865A3.94,3.94,0,0,1,18.6,14.7v-.813a3.921,3.921,0,0,1,.718-2.546,2.554,2.554,0,0,1,2.092-.872,2.339,2.339,0,0,1,1.8.718,2.919,2.919,0,0,1,.708,1.962H22.777a2.009,2.009,0,0,0-.393-1.23,1.215,1.215,0,0,0-.974-.41,1.387,1.387,0,0,0-1.2.53,3.056,3.056,0,0,0-.4,1.74v.943a3.29,3.29,0,0,0,.386,1.846A1.4,1.4,0,0,0,21.416,17.1ZM29.4,18a2.661,2.661,0,0,1-.157-.807,1.921,1.921,0,0,1-1.641.943,2.121,2.121,0,0,1-1.569-.564,2.149,2.149,0,0,1-.564-1.589,2.248,2.248,0,0,1,.766-1.791,3.151,3.151,0,0,1,2.1-.677h.889v-.786a1.264,1.264,0,0,0-.294-.943,1.256,1.256,0,0,0-.9-.28,1.237,1.237,0,0,0-.889.325,1.087,1.087,0,0,0-.342.824h-1.21a1.96,1.96,0,0,1,.335-1.083,2.333,2.333,0,0,1,.9-.81,2.708,2.708,0,0,1,1.265-.294,2.408,2.408,0,0,1,1.726.564,2.207,2.207,0,0,1,.6,1.644v3.732a4.5,4.5,0,0,0,.232,1.483V18Zm-1.613-.964a1.6,1.6,0,0,0,.848-.246,1.517,1.517,0,0,0,.588-.615V14.411h-.684a2.29,2.29,0,0,0-1.36.386,1.226,1.226,0,0,0-.5,1.042,1.352,1.352,0,0,0,.253.913A1.1,1.1,0,0,0,27.787,17.036ZM33.72,10.6l.027.684a2.2,2.2,0,0,1,1.784-.82,1.75,1.75,0,0,1,1.729,1.073A2.194,2.194,0,0,1,39.2,10.467q2.044,0,2.092,2.55V18h-1.2V13.133a2.038,2.038,0,0,0-.287-1.2,1.122,1.122,0,0,0-.971-.393,1.088,1.088,0,0,0-.889.424,1.932,1.932,0,0,0-.4,1.08V18H36.332V13.078q-.021-1.538-1.251-1.538a1.315,1.315,0,0,0-1.292.916V18h-1.2V10.6Zm15.018,4.054a4.425,4.425,0,0,1-.632,2.618,2.087,2.087,0,0,1-1.788.861A1.983,1.983,0,0,1,44.6,17.3v3.548H43.4V10.6h1.094l.062.82a1.947,1.947,0,0,1,1.743-.957,2.082,2.082,0,0,1,1.818.848,4.483,4.483,0,0,1,.622,2.536Zm-1.2-.69a3.449,3.449,0,0,0-.383-1.835,1.357,1.357,0,0,0-1.23-.591,1.424,1.424,0,0,0-1.319.868v3.849a1.427,1.427,0,0,0,1.333.848,1.338,1.338,0,0,0,1.207-.591,3.4,3.4,0,0,0,.393-1.808Zm6.815,3.384a2.077,2.077,0,0,1-1.757.786,1.767,1.767,0,0,1-1.518-.694,3.4,3.4,0,0,1-.52-2.02V10.6h1.2v4.73q0,1.729,1.039,1.729a1.515,1.515,0,0,0,1.518-.984V10.6h1.21V18H54.378Zm6.87-1.244a.894.894,0,0,0-.294-.67,4.348,4.348,0,0,0-1.135-.656,7.421,7.421,0,0,1-1.377-.69,1.964,1.964,0,0,1-.6-.653,1.8,1.8,0,0,1-.2-.872,1.94,1.94,0,0,1,.66-1.5A2.692,2.692,0,0,1,61.7,11.1a2.136,2.136,0,0,1,.656,1.613h-1.2a1.19,1.19,0,0,0-.335-.851,1.128,1.128,0,0,0-.854-.352,1.2,1.2,0,0,0-.837.277.954.954,0,0,0-.3.742.811.811,0,0,0,.222.595,3.957,3.957,0,0,0,1.07.595,5.378,5.378,0,0,1,1.832,1.029,1.76,1.76,0,0,1,.485,1.275,1.942,1.942,0,0,1-.663,1.542,2.611,2.611,0,0,1-1.777.578,2.651,2.651,0,0,1-1.873-.663,2.19,2.19,0,0,1-.718-1.682h1.217A1.251,1.251,0,0,0,59.99,17.1a1.369,1.369,0,0,0,.916-.27A.91.91,0,0,0,61.22,16.106ZM67.94,18V8.047h2.372a3.424,3.424,0,0,1,2.707,1.09,4.476,4.476,0,0,1,.964,3.066v1.668a4.382,4.382,0,0,1-.978,3.052A3.637,3.637,0,0,1,70.168,18Zm1.251-8.873v7.8h1a2.329,2.329,0,0,0,1.928-.755,3.566,3.566,0,0,0,.622-2.239V12.169a3.6,3.6,0,0,0-.6-2.307,2.231,2.231,0,0,0-1.829-.735Zm9.9,2.611a2.944,2.944,0,0,0-.547-.048,1.328,1.328,0,0,0-1.3,1.019V18H76.04V10.6h1.176l.021.752a1.505,1.505,0,0,1,1.374-.889,1.065,1.065,0,0,1,.479.1ZM81.884,18h-1.21V10.6h1.21Zm.1-9.358a.774.774,0,0,1-.171.513.638.638,0,0,1-.52.205.629.629,0,0,1-.513-.205.774.774,0,0,1-.171-.513.8.8,0,0,1,.171-.52.726.726,0,0,1,1.029,0A.8.8,0,0,1,81.98,8.642Zm4.183,7.52,1.4-5.558H88.8L86.6,18h-.9l-2.222-7.4h1.23Zm6.726,1.976a2.7,2.7,0,0,1-2.119-.824,3.56,3.56,0,0,1-.752-2.417V14a4.169,4.169,0,0,1,.721-2.594,2.393,2.393,0,0,1,2.013-.94,2.306,2.306,0,0,1,1.941.827,4.251,4.251,0,0,1,.656,2.577v.793H91.222v.171a2.7,2.7,0,0,0,.448,1.729,1.579,1.579,0,0,0,1.289.54,2.09,2.09,0,0,0,.94-.2,2.335,2.335,0,0,0,.762-.639l.629.766A2.745,2.745,0,0,1,92.89,18.137Zm-.137-6.631a1.269,1.269,0,0,0-1.114.516,3.063,3.063,0,0,0-.41,1.6h2.912v-.164a2.826,2.826,0,0,0-.379-1.5A1.169,1.169,0,0,0,92.753,11.506Z" transform="translate(-13737.934 2328.199)"/>
    <g id="Group_23940" data-name="Group 23940" transform="translate(-13862 2308.995)">
      <path id="Path_70" data-name="Path 70" d="M93.811,39.332h4.473v-15.6h4.146V20.295H89.665v3.437h4.146ZM80.53,29.266c.464-.3,3.409-2.182,3.409-4.991,0-3.057-2.727-4.31-5.428-4.31-4.882,0-5.755,3.191-5.755,4.473,0,2.045,1.856,3.9,2.1,4.146a5.462,5.462,0,0,0-3.382,5.291c0,3.273,2.427,5.782,6.6,5.782a5.934,5.934,0,0,0,4.585-1.8l1.09,1.473H88.44l-3.027-3.982A10.235,10.235,0,0,0,87.7,28.8H83.94a7.374,7.374,0,0,1-.843,3.655Zm.163,6.245a2.822,2.822,0,0,1-2.4,1.037,2.793,2.793,0,0,1-2.619-2.7,3.592,3.592,0,0,1,1.282-2.7ZM78.457,22.583a1.622,1.622,0,0,1,1.828,1.692c0,1.227-.928,2.018-2.046,2.918-.245-.243-1.72-1.771-1.72-2.753a1.77,1.77,0,0,1,1.938-1.855ZM58.709,39.332H69.482V35.9h-6.3V20.3H58.709Z" transform="translate(-58.709 -19.965)" fill="#08558c"/>
      <g id="Group_77" data-name="Group 77" transform="translate(0 21.689)">
        <g id="Group_76" data-name="Group 76" clip-path="url(#clip-path)">
          <rect id="Rectangle_44" data-name="Rectangle 44" width="100.241" height="20.87" transform="translate(0 -0.001)" fill="url(#linear-gradient)"/>
        </g>
      </g>
    </g>
    <rect id="Rectangle_8867" data-name="Rectangle 8867" width="0.527" height="42.426" transform="translate(-13749.955 2308.998)" fill="url(#linear-gradient-2)"/>
  </g>
</svg>
