<svg xmlns="http://www.w3.org/2000/svg" width="39.507" height="39.5" viewBox="0 0 39.507 39.5">
  <g id="Glyph" transform="translate(-1.997 -2)">
    <path id="Path_13770" data-name="Path 13770" d="M31.658,14.317H44.825a.658.658,0,0,0,0-1.317H31.658a.658.658,0,0,0,0,1.317Zm13.167,1.317H34.95a.658.658,0,0,0,0,1.317h9.875a.658.658,0,0,0,0-1.317Z" transform="translate(-9.909 -3.758)" fill="#23a4c9"/>
    <path id="Path_13771" data-name="Path 13771" d="M39.524,9.9H38.207V6.608a.658.658,0,0,0-.658-.658H33.6V2.658A.658.658,0,0,0,32.941,2H5.291a.658.658,0,0,0-.658.658V9.9H4.422A2.535,2.535,0,0,0,2,12.533V38.814A2.585,2.585,0,0,0,4.461,41.5H39.135A2.543,2.543,0,0,0,41.5,38.814V11.875A1.981,1.981,0,0,0,39.524,9.9ZM9.241,6.608V9.939a2.55,2.55,0,0,0-1.975,2.594V37.55H5.949V3.317H32.282V5.95H9.9A.658.658,0,0,0,9.241,6.608ZM24.382,37.55A9.217,9.217,0,1,1,33.6,28.333,9.217,9.217,0,0,1,24.382,37.55ZM36.891,15.167H23.3a.544.544,0,0,1-.375-.151l-4.885-4.6A1.86,1.86,0,0,0,16.765,9.9H10.557V7.267H36.891Z" fill="#23a4c9"/>
    <path id="Path_13772" data-name="Path 13772" d="M31.9,30a7.891,7.891,0,0,0-5.517,13.542,5.549,5.549,0,0,1,11.04,0A7.9,7.9,0,0,0,31.9,30Zm0,7.242a2.962,2.962,0,1,1,2.962-2.962A2.962,2.962,0,0,1,31.9,37.242Z" transform="translate(-7.517 -9.567)" fill="#23a4c9"/>
    <circle id="Ellipse_18" data-name="Ellipse 18" cx="1.646" cy="1.646" r="1.646" transform="translate(22.736 23.067)" fill="#23a4c9"/>
    <path id="Path_13773" data-name="Path 13773" d="M33.777,45A4.453,4.453,0,0,0,29.5,49.654a7.84,7.84,0,0,0,8.558,0A4.452,4.452,0,0,0,33.777,45Z" transform="translate(-9.394 -14.692)" fill="#23a4c9"/>
  </g>
</svg>
